<?xml version="1.0" encoding="utf-8" standalone="no"?>
<!DOCTYPE svg PUBLIC "-//W3C//DTD SVG 1.1//EN"
  "http://www.w3.org/Graphics/SVG/1.1/DTD/svg11.dtd">
<!-- Created with matplotlib (https://matplotlib.org/) -->
<svg height="360pt" version="1.1" viewBox="0 0 1287.9 360" width="1287.9pt" xmlns="http://www.w3.org/2000/svg" xmlns:xlink="http://www.w3.org/1999/xlink">
 <metadata>
  <rdf:RDF xmlns:cc="http://creativecommons.org/ns#" xmlns:dc="http://purl.org/dc/elements/1.1/" xmlns:rdf="http://www.w3.org/1999/02/22-rdf-syntax-ns#">
   <cc:Work>
    <dc:type rdf:resource="http://purl.org/dc/dcmitype/StillImage"/>
    <dc:date>2020-10-19T12:33:43.583434</dc:date>
    <dc:format>image/svg+xml</dc:format>
    <dc:creator>
     <cc:Agent>
      <dc:title>Matplotlib v3.3.2, https://matplotlib.org/</dc:title>
     </cc:Agent>
    </dc:creator>
   </cc:Work>
  </rdf:RDF>
 </metadata>
 <defs>
  <style type="text/css">*{stroke-linecap:butt;stroke-linejoin:round;}</style>
 </defs>
 <g id="figure_1">
  <g id="patch_1">
   <path d="M 0 360 
L 1287.9 360 
L 1287.9 0 
L 0 0 
z
" style="fill:#ffffff;"/>
  </g>
  <g id="axes_1">
   <g id="patch_2">
    <path d="M 98.011575 313.06 
L 402.267512 313.06 
L 402.267512 39.44 
L 98.011575 39.44 
z
" style="fill:#ffffff;"/>
   </g>
   <g id="matplotlib.axis_1">
    <g id="xtick_1">
     <g id="line2d_1">
      <defs>
       <path d="M 0 0 
L 0 9 
" id="m01158dd818" style="stroke:#262626;stroke-width:1.875;"/>
      </defs>
      <g>
       <use style="fill:#262626;stroke:#262626;stroke-width:1.875;" x="122.47971" xlink:href="#m01158dd818" y="313.06"/>
      </g>
     </g>
     <g id="text_1">
      <!-- 5 -->
      <g style="fill:#262626;" transform="translate(117.891936 337.370391)scale(0.165 -0.165)">
       <defs>
        <path d="M 4.15625 18.75 
L 13.375 19.53125 
Q 14.40625 12.796875 18.140625 9.390625 
Q 21.875 6 27.15625 6 
Q 33.5 6 37.890625 10.78125 
Q 42.28125 15.578125 42.28125 23.484375 
Q 42.28125 31 38.0625 35.34375 
Q 33.84375 39.703125 27 39.703125 
Q 22.75 39.703125 19.328125 37.765625 
Q 15.921875 35.84375 13.96875 32.765625 
L 5.71875 33.84375 
L 12.640625 70.609375 
L 48.25 70.609375 
L 48.25 62.203125 
L 19.671875 62.203125 
L 15.828125 42.96875 
Q 22.265625 47.46875 29.34375 47.46875 
Q 38.71875 47.46875 45.15625 40.96875 
Q 51.609375 34.46875 51.609375 24.265625 
Q 51.609375 14.546875 45.953125 7.46875 
Q 39.0625 -1.21875 27.15625 -1.21875 
Q 17.390625 -1.21875 11.203125 4.25 
Q 5.03125 9.71875 4.15625 18.75 
z
" id="ArialMT-53"/>
       </defs>
       <use xlink:href="#ArialMT-53"/>
      </g>
     </g>
    </g>
    <g id="xtick_2">
     <g id="line2d_2">
      <g>
       <use style="fill:#262626;stroke:#262626;stroke-width:1.875;" x="175.671307" xlink:href="#m01158dd818" y="313.06"/>
      </g>
     </g>
     <g id="text_2">
      <!-- 10 -->
      <g style="fill:#262626;" transform="translate(166.49576 337.370391)scale(0.165 -0.165)">
       <defs>
        <path d="M 37.25 0 
L 28.46875 0 
L 28.46875 56 
Q 25.296875 52.984375 20.140625 49.953125 
Q 14.984375 46.921875 10.890625 45.40625 
L 10.890625 53.90625 
Q 18.265625 57.375 23.78125 62.296875 
Q 29.296875 67.234375 31.59375 71.875 
L 37.25 71.875 
z
" id="ArialMT-49"/>
        <path d="M 4.15625 35.296875 
Q 4.15625 48 6.765625 55.734375 
Q 9.375 63.484375 14.515625 67.671875 
Q 19.671875 71.875 27.484375 71.875 
Q 33.25 71.875 37.59375 69.546875 
Q 41.9375 67.234375 44.765625 62.859375 
Q 47.609375 58.5 49.21875 52.21875 
Q 50.828125 45.953125 50.828125 35.296875 
Q 50.828125 22.703125 48.234375 14.96875 
Q 45.65625 7.234375 40.5 3 
Q 35.359375 -1.21875 27.484375 -1.21875 
Q 17.140625 -1.21875 11.234375 6.203125 
Q 4.15625 15.140625 4.15625 35.296875 
z
M 13.1875 35.296875 
Q 13.1875 17.671875 17.3125 11.828125 
Q 21.4375 6 27.484375 6 
Q 33.546875 6 37.671875 11.859375 
Q 41.796875 17.71875 41.796875 35.296875 
Q 41.796875 52.984375 37.671875 58.78125 
Q 33.546875 64.59375 27.390625 64.59375 
Q 21.34375 64.59375 17.71875 59.46875 
Q 13.1875 52.9375 13.1875 35.296875 
z
" id="ArialMT-48"/>
       </defs>
       <use xlink:href="#ArialMT-49"/>
       <use x="55.615234" xlink:href="#ArialMT-48"/>
      </g>
     </g>
    </g>
    <g id="xtick_3">
     <g id="line2d_3">
      <g>
       <use style="fill:#262626;stroke:#262626;stroke-width:1.875;" x="228.862905" xlink:href="#m01158dd818" y="313.06"/>
      </g>
     </g>
     <g id="text_3">
      <!-- 15 -->
      <g style="fill:#262626;" transform="translate(219.687358 337.370391)scale(0.165 -0.165)">
       <use xlink:href="#ArialMT-49"/>
       <use x="55.615234" xlink:href="#ArialMT-53"/>
      </g>
     </g>
    </g>
    <g id="xtick_4">
     <g id="line2d_4">
      <g>
       <use style="fill:#262626;stroke:#262626;stroke-width:1.875;" x="282.054502" xlink:href="#m01158dd818" y="313.06"/>
      </g>
     </g>
     <g id="text_4">
      <!-- 20 -->
      <g style="fill:#262626;" transform="translate(272.878955 337.370391)scale(0.165 -0.165)">
       <defs>
        <path d="M 50.34375 8.453125 
L 50.34375 0 
L 3.03125 0 
Q 2.9375 3.171875 4.046875 6.109375 
Q 5.859375 10.9375 9.828125 15.625 
Q 13.8125 20.3125 21.34375 26.46875 
Q 33.015625 36.03125 37.109375 41.625 
Q 41.21875 47.21875 41.21875 52.203125 
Q 41.21875 57.421875 37.46875 61 
Q 33.734375 64.59375 27.734375 64.59375 
Q 21.390625 64.59375 17.578125 60.78125 
Q 13.765625 56.984375 13.71875 50.25 
L 4.6875 51.171875 
Q 5.609375 61.28125 11.65625 66.578125 
Q 17.71875 71.875 27.9375 71.875 
Q 38.234375 71.875 44.234375 66.15625 
Q 50.25 60.453125 50.25 52 
Q 50.25 47.703125 48.484375 43.546875 
Q 46.734375 39.40625 42.65625 34.8125 
Q 38.578125 30.21875 29.109375 22.21875 
Q 21.1875 15.578125 18.9375 13.203125 
Q 16.703125 10.84375 15.234375 8.453125 
z
" id="ArialMT-50"/>
       </defs>
       <use xlink:href="#ArialMT-50"/>
       <use x="55.615234" xlink:href="#ArialMT-48"/>
      </g>
     </g>
    </g>
    <g id="xtick_5">
     <g id="line2d_5">
      <g>
       <use style="fill:#262626;stroke:#262626;stroke-width:1.875;" x="335.2461" xlink:href="#m01158dd818" y="313.06"/>
      </g>
     </g>
     <g id="text_5">
      <!-- 25 -->
      <g style="fill:#262626;" transform="translate(326.070553 337.370391)scale(0.165 -0.165)">
       <use xlink:href="#ArialMT-50"/>
       <use x="55.615234" xlink:href="#ArialMT-53"/>
      </g>
     </g>
    </g>
    <g id="xtick_6">
     <g id="line2d_6">
      <g>
       <use style="fill:#262626;stroke:#262626;stroke-width:1.875;" x="388.437697" xlink:href="#m01158dd818" y="313.06"/>
      </g>
     </g>
     <g id="text_6">
      <!-- 30 -->
      <g style="fill:#262626;" transform="translate(379.26215 337.370391)scale(0.165 -0.165)">
       <defs>
        <path d="M 4.203125 18.890625 
L 12.984375 20.0625 
Q 14.5 12.59375 18.140625 9.296875 
Q 21.78125 6 27 6 
Q 33.203125 6 37.46875 10.296875 
Q 41.75 14.59375 41.75 20.953125 
Q 41.75 27 37.796875 30.921875 
Q 33.84375 34.859375 27.734375 34.859375 
Q 25.25 34.859375 21.53125 33.890625 
L 22.515625 41.609375 
Q 23.390625 41.5 23.921875 41.5 
Q 29.546875 41.5 34.03125 44.421875 
Q 38.53125 47.359375 38.53125 53.46875 
Q 38.53125 58.296875 35.25 61.46875 
Q 31.984375 64.65625 26.8125 64.65625 
Q 21.6875 64.65625 18.265625 61.421875 
Q 14.84375 58.203125 13.875 51.765625 
L 5.078125 53.328125 
Q 6.6875 62.15625 12.390625 67.015625 
Q 18.109375 71.875 26.609375 71.875 
Q 32.46875 71.875 37.390625 69.359375 
Q 42.328125 66.84375 44.9375 62.5 
Q 47.5625 58.15625 47.5625 53.265625 
Q 47.5625 48.640625 45.0625 44.828125 
Q 42.578125 41.015625 37.703125 38.765625 
Q 44.046875 37.3125 47.5625 32.6875 
Q 51.078125 28.078125 51.078125 21.140625 
Q 51.078125 11.765625 44.234375 5.25 
Q 37.40625 -1.265625 26.953125 -1.265625 
Q 17.53125 -1.265625 11.296875 4.34375 
Q 5.078125 9.96875 4.203125 18.890625 
z
" id="ArialMT-51"/>
       </defs>
       <use xlink:href="#ArialMT-51"/>
       <use x="55.615234" xlink:href="#ArialMT-48"/>
      </g>
     </g>
    </g>
    <g id="text_7">
     <!-- EO : Na ratio -->
     <g style="fill:#262626;" transform="translate(198.123762 357.533828)scale(0.18 -0.18)">
      <defs>
       <path d="M 7.90625 0 
L 7.90625 71.578125 
L 59.671875 71.578125 
L 59.671875 63.140625 
L 17.390625 63.140625 
L 17.390625 41.21875 
L 56.984375 41.21875 
L 56.984375 32.8125 
L 17.390625 32.8125 
L 17.390625 8.453125 
L 61.328125 8.453125 
L 61.328125 0 
z
" id="ArialMT-69"/>
       <path d="M 4.828125 34.859375 
Q 4.828125 52.6875 14.390625 62.765625 
Q 23.96875 72.859375 39.109375 72.859375 
Q 49.03125 72.859375 56.984375 68.109375 
Q 64.9375 63.375 69.109375 54.90625 
Q 73.296875 46.4375 73.296875 35.6875 
Q 73.296875 24.8125 68.890625 16.21875 
Q 64.5 7.625 56.4375 3.203125 
Q 48.390625 -1.21875 39.0625 -1.21875 
Q 28.953125 -1.21875 20.984375 3.65625 
Q 13.03125 8.546875 8.921875 16.984375 
Q 4.828125 25.4375 4.828125 34.859375 
z
M 14.59375 34.71875 
Q 14.59375 21.78125 21.546875 14.328125 
Q 28.515625 6.890625 39.015625 6.890625 
Q 49.703125 6.890625 56.609375 14.40625 
Q 63.53125 21.921875 63.53125 35.75 
Q 63.53125 44.484375 60.578125 51 
Q 57.625 57.515625 51.921875 61.109375 
Q 46.234375 64.703125 39.15625 64.703125 
Q 29.109375 64.703125 21.84375 57.78125 
Q 14.59375 50.875 14.59375 34.71875 
z
" id="ArialMT-79"/>
       <path id="ArialMT-32"/>
       <path d="M 9.03125 41.84375 
L 9.03125 51.859375 
L 19.046875 51.859375 
L 19.046875 41.84375 
z
M 9.03125 0 
L 9.03125 10.015625 
L 19.046875 10.015625 
L 19.046875 0 
z
" id="ArialMT-58"/>
       <path d="M 7.625 0 
L 7.625 71.578125 
L 17.328125 71.578125 
L 54.9375 15.375 
L 54.9375 71.578125 
L 64.015625 71.578125 
L 64.015625 0 
L 54.296875 0 
L 16.703125 56.25 
L 16.703125 0 
z
" id="ArialMT-78"/>
       <path d="M 40.4375 6.390625 
Q 35.546875 2.25 31.03125 0.53125 
Q 26.515625 -1.171875 21.34375 -1.171875 
Q 12.796875 -1.171875 8.203125 3 
Q 3.609375 7.171875 3.609375 13.671875 
Q 3.609375 17.484375 5.34375 20.625 
Q 7.078125 23.78125 9.890625 25.6875 
Q 12.703125 27.59375 16.21875 28.5625 
Q 18.796875 29.25 24.03125 29.890625 
Q 34.671875 31.15625 39.703125 32.90625 
Q 39.75 34.71875 39.75 35.203125 
Q 39.75 40.578125 37.25 42.78125 
Q 33.890625 45.75 27.25 45.75 
Q 21.046875 45.75 18.09375 43.578125 
Q 15.140625 41.40625 13.71875 35.890625 
L 5.125 37.0625 
Q 6.296875 42.578125 8.984375 45.96875 
Q 11.671875 49.359375 16.75 51.1875 
Q 21.828125 53.03125 28.515625 53.03125 
Q 35.15625 53.03125 39.296875 51.46875 
Q 43.453125 49.90625 45.40625 47.53125 
Q 47.359375 45.171875 48.140625 41.546875 
Q 48.578125 39.3125 48.578125 33.453125 
L 48.578125 21.734375 
Q 48.578125 9.46875 49.140625 6.21875 
Q 49.703125 2.984375 51.375 0 
L 42.1875 0 
Q 40.828125 2.734375 40.4375 6.390625 
z
M 39.703125 26.03125 
Q 34.90625 24.078125 25.34375 22.703125 
Q 19.921875 21.921875 17.671875 20.9375 
Q 15.4375 19.96875 14.203125 18.09375 
Q 12.984375 16.21875 12.984375 13.921875 
Q 12.984375 10.40625 15.640625 8.0625 
Q 18.3125 5.71875 23.4375 5.71875 
Q 28.515625 5.71875 32.46875 7.9375 
Q 36.421875 10.15625 38.28125 14.015625 
Q 39.703125 17 39.703125 22.796875 
z
" id="ArialMT-97"/>
       <path d="M 6.5 0 
L 6.5 51.859375 
L 14.40625 51.859375 
L 14.40625 44 
Q 17.4375 49.515625 20 51.265625 
Q 22.5625 53.03125 25.640625 53.03125 
Q 30.078125 53.03125 34.671875 50.203125 
L 31.640625 42.046875 
Q 28.421875 43.953125 25.203125 43.953125 
Q 22.3125 43.953125 20.015625 42.21875 
Q 17.71875 40.484375 16.75 37.40625 
Q 15.28125 32.71875 15.28125 27.15625 
L 15.28125 0 
z
" id="ArialMT-114"/>
       <path d="M 25.78125 7.859375 
L 27.046875 0.09375 
Q 23.34375 -0.6875 20.40625 -0.6875 
Q 15.625 -0.6875 12.984375 0.828125 
Q 10.359375 2.34375 9.28125 4.8125 
Q 8.203125 7.28125 8.203125 15.1875 
L 8.203125 45.015625 
L 1.765625 45.015625 
L 1.765625 51.859375 
L 8.203125 51.859375 
L 8.203125 64.703125 
L 16.9375 69.96875 
L 16.9375 51.859375 
L 25.78125 51.859375 
L 25.78125 45.015625 
L 16.9375 45.015625 
L 16.9375 14.703125 
Q 16.9375 10.9375 17.40625 9.859375 
Q 17.875 8.796875 18.921875 8.15625 
Q 19.96875 7.515625 21.921875 7.515625 
Q 23.390625 7.515625 25.78125 7.859375 
z
" id="ArialMT-116"/>
       <path d="M 6.640625 61.46875 
L 6.640625 71.578125 
L 15.4375 71.578125 
L 15.4375 61.46875 
z
M 6.640625 0 
L 6.640625 51.859375 
L 15.4375 51.859375 
L 15.4375 0 
z
" id="ArialMT-105"/>
       <path d="M 3.328125 25.921875 
Q 3.328125 40.328125 11.328125 47.265625 
Q 18.015625 53.03125 27.640625 53.03125 
Q 38.328125 53.03125 45.109375 46.015625 
Q 51.90625 39.015625 51.90625 26.65625 
Q 51.90625 16.65625 48.90625 10.90625 
Q 45.90625 5.171875 40.15625 2 
Q 34.421875 -1.171875 27.640625 -1.171875 
Q 16.75 -1.171875 10.03125 5.8125 
Q 3.328125 12.796875 3.328125 25.921875 
z
M 12.359375 25.921875 
Q 12.359375 15.96875 16.703125 11.015625 
Q 21.046875 6.0625 27.640625 6.0625 
Q 34.1875 6.0625 38.53125 11.03125 
Q 42.875 16.015625 42.875 26.21875 
Q 42.875 35.84375 38.5 40.796875 
Q 34.125 45.75 27.640625 45.75 
Q 21.046875 45.75 16.703125 40.8125 
Q 12.359375 35.890625 12.359375 25.921875 
z
" id="ArialMT-111"/>
      </defs>
      <use xlink:href="#ArialMT-69"/>
      <use x="66.699219" xlink:href="#ArialMT-79"/>
      <use x="144.482422" xlink:href="#ArialMT-32"/>
      <use x="172.265625" xlink:href="#ArialMT-58"/>
      <use x="200.048828" xlink:href="#ArialMT-32"/>
      <use x="227.832031" xlink:href="#ArialMT-78"/>
      <use x="300.048828" xlink:href="#ArialMT-97"/>
      <use x="355.664062" xlink:href="#ArialMT-32"/>
      <use x="383.447266" xlink:href="#ArialMT-114"/>
      <use x="416.748047" xlink:href="#ArialMT-97"/>
      <use x="472.363281" xlink:href="#ArialMT-116"/>
      <use x="500.146484" xlink:href="#ArialMT-105"/>
      <use x="522.363281" xlink:href="#ArialMT-111"/>
     </g>
    </g>
   </g>
   <g id="matplotlib.axis_2">
    <g id="ytick_1">
     <g id="line2d_7">
      <defs>
       <path d="M 0 0 
L -9 0 
" id="m2726e64844" style="stroke:#262626;stroke-width:1.875;"/>
      </defs>
      <g>
       <use style="fill:#262626;stroke:#262626;stroke-width:1.875;" x="98.011575" xlink:href="#m2726e64844" y="264.204176"/>
      </g>
     </g>
     <g id="text_8">
      <!-- $\mathdefault{10^{-7}}$ -->
      <g style="fill:#262626;" transform="translate(52.841575 272.629489)scale(0.165 -0.165)">
       <defs>
        <path d="M 52.828125 31.203125 
L 5.5625 31.203125 
L 5.5625 39.40625 
L 52.828125 39.40625 
z
" id="ArialMT-8722"/>
        <path d="M 4.734375 62.203125 
L 4.734375 70.65625 
L 51.078125 70.65625 
L 51.078125 63.8125 
Q 44.234375 56.546875 37.515625 44.484375 
Q 30.8125 32.421875 27.15625 19.671875 
Q 24.515625 10.6875 23.78125 0 
L 14.75 0 
Q 14.890625 8.453125 18.0625 20.40625 
Q 21.234375 32.375 27.171875 43.484375 
Q 33.109375 54.59375 39.796875 62.203125 
z
" id="ArialMT-55"/>
       </defs>
       <use transform="translate(0 0.846875)" xlink:href="#ArialMT-49"/>
       <use transform="translate(55.615234 0.846875)" xlink:href="#ArialMT-48"/>
       <use transform="translate(112.972813 70.540625)scale(0.7)" xlink:href="#ArialMT-8722"/>
       <use transform="translate(153.851719 70.540625)scale(0.7)" xlink:href="#ArialMT-55"/>
      </g>
     </g>
    </g>
    <g id="ytick_2">
     <g id="line2d_8">
      <g>
       <use style="fill:#262626;stroke:#262626;stroke-width:1.875;" x="98.011575" xlink:href="#m2726e64844" y="211.614512"/>
      </g>
     </g>
     <g id="text_9">
      <!-- $\mathdefault{10^{-6}}$ -->
      <g style="fill:#262626;" transform="translate(52.841575 220.122325)scale(0.165 -0.165)">
       <defs>
        <path d="M 49.75 54.046875 
L 41.015625 53.375 
Q 39.84375 58.546875 37.703125 60.890625 
Q 34.125 64.65625 28.90625 64.65625 
Q 24.703125 64.65625 21.53125 62.3125 
Q 17.390625 59.28125 14.984375 53.46875 
Q 12.59375 47.65625 12.5 36.921875 
Q 15.671875 41.75 20.265625 44.09375 
Q 24.859375 46.4375 29.890625 46.4375 
Q 38.671875 46.4375 44.84375 39.96875 
Q 51.03125 33.5 51.03125 23.25 
Q 51.03125 16.5 48.125 10.71875 
Q 45.21875 4.9375 40.140625 1.859375 
Q 35.0625 -1.21875 28.609375 -1.21875 
Q 17.625 -1.21875 10.6875 6.859375 
Q 3.765625 14.9375 3.765625 33.5 
Q 3.765625 54.25 11.421875 63.671875 
Q 18.109375 71.875 29.4375 71.875 
Q 37.890625 71.875 43.28125 67.140625 
Q 48.6875 62.40625 49.75 54.046875 
z
M 13.875 23.1875 
Q 13.875 18.65625 15.796875 14.5 
Q 17.71875 10.359375 21.1875 8.171875 
Q 24.65625 6 28.46875 6 
Q 34.03125 6 38.03125 10.484375 
Q 42.046875 14.984375 42.046875 22.703125 
Q 42.046875 30.125 38.078125 34.390625 
Q 34.125 38.671875 28.125 38.671875 
Q 22.171875 38.671875 18.015625 34.390625 
Q 13.875 30.125 13.875 23.1875 
z
" id="ArialMT-54"/>
       </defs>
       <use transform="translate(0 0.99375)" xlink:href="#ArialMT-49"/>
       <use transform="translate(55.615234 0.99375)" xlink:href="#ArialMT-48"/>
       <use transform="translate(112.972813 70.6875)scale(0.7)" xlink:href="#ArialMT-8722"/>
       <use transform="translate(153.851719 70.6875)scale(0.7)" xlink:href="#ArialMT-54"/>
      </g>
     </g>
    </g>
    <g id="ytick_3">
     <g id="line2d_9">
      <g>
       <use style="fill:#262626;stroke:#262626;stroke-width:1.875;" x="98.011575" xlink:href="#m2726e64844" y="159.024848"/>
      </g>
     </g>
     <g id="text_10">
      <!-- $\mathdefault{10^{-5}}$ -->
      <g style="fill:#262626;" transform="translate(52.841575 167.450161)scale(0.165 -0.165)">
       <use transform="translate(0 0.879688)" xlink:href="#ArialMT-49"/>
       <use transform="translate(55.615234 0.879688)" xlink:href="#ArialMT-48"/>
       <use transform="translate(112.972813 70.573438)scale(0.7)" xlink:href="#ArialMT-8722"/>
       <use transform="translate(153.851719 70.573438)scale(0.7)" xlink:href="#ArialMT-53"/>
      </g>
     </g>
    </g>
    <g id="ytick_4">
     <g id="line2d_10">
      <g>
       <use style="fill:#262626;stroke:#262626;stroke-width:1.875;" x="98.011575" xlink:href="#m2726e64844" y="106.435184"/>
      </g>
     </g>
     <g id="text_11">
      <!-- $\mathdefault{10^{-4}}$ -->
      <g style="fill:#262626;" transform="translate(52.841575 114.860496)scale(0.165 -0.165)">
       <defs>
        <path d="M 32.328125 0 
L 32.328125 17.140625 
L 1.265625 17.140625 
L 1.265625 25.203125 
L 33.9375 71.578125 
L 41.109375 71.578125 
L 41.109375 25.203125 
L 50.78125 25.203125 
L 50.78125 17.140625 
L 41.109375 17.140625 
L 41.109375 0 
z
M 32.328125 25.203125 
L 32.328125 57.46875 
L 9.90625 25.203125 
z
" id="ArialMT-52"/>
       </defs>
       <use transform="translate(0 0.201563)" xlink:href="#ArialMT-49"/>
       <use transform="translate(55.615234 0.201563)" xlink:href="#ArialMT-48"/>
       <use transform="translate(112.972813 69.895313)scale(0.7)" xlink:href="#ArialMT-8722"/>
       <use transform="translate(153.851719 69.895313)scale(0.7)" xlink:href="#ArialMT-52"/>
      </g>
     </g>
    </g>
    <g id="ytick_5">
     <g id="line2d_11">
      <g>
       <use style="fill:#262626;stroke:#262626;stroke-width:1.875;" x="98.011575" xlink:href="#m2726e64844" y="53.84552"/>
      </g>
     </g>
     <g id="text_12">
      <!-- $\mathdefault{10^{-3}}$ -->
      <g style="fill:#262626;" transform="translate(52.841575 62.353332)scale(0.165 -0.165)">
       <use transform="translate(0 0.99375)" xlink:href="#ArialMT-49"/>
       <use transform="translate(55.615234 0.99375)" xlink:href="#ArialMT-48"/>
       <use transform="translate(112.972813 70.6875)scale(0.7)" xlink:href="#ArialMT-8722"/>
       <use transform="translate(153.851719 70.6875)scale(0.7)" xlink:href="#ArialMT-51"/>
      </g>
     </g>
    </g>
    <g id="ytick_6">
     <g id="line2d_12">
      <defs>
       <path d="M 0 0 
L -6 0 
" id="m27bc148700" style="stroke:#262626;stroke-width:1.5;"/>
      </defs>
      <g>
       <use style="fill:#262626;stroke:#262626;stroke-width:1.5;" x="98.011575" xlink:href="#m27bc148700" y="300.962774"/>
      </g>
     </g>
    </g>
    <g id="ytick_7">
     <g id="line2d_13">
      <g>
       <use style="fill:#262626;stroke:#262626;stroke-width:1.5;" x="98.011575" xlink:href="#m27bc148700" y="291.702194"/>
      </g>
     </g>
    </g>
    <g id="ytick_8">
     <g id="line2d_14">
      <g>
       <use style="fill:#262626;stroke:#262626;stroke-width:1.5;" x="98.011575" xlink:href="#m27bc148700" y="285.131708"/>
      </g>
     </g>
    </g>
    <g id="ytick_9">
     <g id="line2d_15">
      <g>
       <use style="fill:#262626;stroke:#262626;stroke-width:1.5;" x="98.011575" xlink:href="#m27bc148700" y="280.035243"/>
      </g>
     </g>
    </g>
    <g id="ytick_10">
     <g id="line2d_16">
      <g>
       <use style="fill:#262626;stroke:#262626;stroke-width:1.5;" x="98.011575" xlink:href="#m27bc148700" y="275.871128"/>
      </g>
     </g>
    </g>
    <g id="ytick_11">
     <g id="line2d_17">
      <g>
       <use style="fill:#262626;stroke:#262626;stroke-width:1.5;" x="98.011575" xlink:href="#m27bc148700" y="272.350419"/>
      </g>
     </g>
    </g>
    <g id="ytick_12">
     <g id="line2d_18">
      <g>
       <use style="fill:#262626;stroke:#262626;stroke-width:1.5;" x="98.011575" xlink:href="#m27bc148700" y="269.300641"/>
      </g>
     </g>
    </g>
    <g id="ytick_13">
     <g id="line2d_19">
      <g>
       <use style="fill:#262626;stroke:#262626;stroke-width:1.5;" x="98.011575" xlink:href="#m27bc148700" y="266.610548"/>
      </g>
     </g>
    </g>
    <g id="ytick_14">
     <g id="line2d_20">
      <g>
       <use style="fill:#262626;stroke:#262626;stroke-width:1.5;" x="98.011575" xlink:href="#m27bc148700" y="248.37311"/>
      </g>
     </g>
    </g>
    <g id="ytick_15">
     <g id="line2d_21">
      <g>
       <use style="fill:#262626;stroke:#262626;stroke-width:1.5;" x="98.011575" xlink:href="#m27bc148700" y="239.11253"/>
      </g>
     </g>
    </g>
    <g id="ytick_16">
     <g id="line2d_22">
      <g>
       <use style="fill:#262626;stroke:#262626;stroke-width:1.5;" x="98.011575" xlink:href="#m27bc148700" y="232.542044"/>
      </g>
     </g>
    </g>
    <g id="ytick_17">
     <g id="line2d_23">
      <g>
       <use style="fill:#262626;stroke:#262626;stroke-width:1.5;" x="98.011575" xlink:href="#m27bc148700" y="227.445579"/>
      </g>
     </g>
    </g>
    <g id="ytick_18">
     <g id="line2d_24">
      <g>
       <use style="fill:#262626;stroke:#262626;stroke-width:1.5;" x="98.011575" xlink:href="#m27bc148700" y="223.281464"/>
      </g>
     </g>
    </g>
    <g id="ytick_19">
     <g id="line2d_25">
      <g>
       <use style="fill:#262626;stroke:#262626;stroke-width:1.5;" x="98.011575" xlink:href="#m27bc148700" y="219.760754"/>
      </g>
     </g>
    </g>
    <g id="ytick_20">
     <g id="line2d_26">
      <g>
       <use style="fill:#262626;stroke:#262626;stroke-width:1.5;" x="98.011575" xlink:href="#m27bc148700" y="216.710977"/>
      </g>
     </g>
    </g>
    <g id="ytick_21">
     <g id="line2d_27">
      <g>
       <use style="fill:#262626;stroke:#262626;stroke-width:1.5;" x="98.011575" xlink:href="#m27bc148700" y="214.020883"/>
      </g>
     </g>
    </g>
    <g id="ytick_22">
     <g id="line2d_28">
      <g>
       <use style="fill:#262626;stroke:#262626;stroke-width:1.5;" x="98.011575" xlink:href="#m27bc148700" y="195.783446"/>
      </g>
     </g>
    </g>
    <g id="ytick_23">
     <g id="line2d_29">
      <g>
       <use style="fill:#262626;stroke:#262626;stroke-width:1.5;" x="98.011575" xlink:href="#m27bc148700" y="186.522866"/>
      </g>
     </g>
    </g>
    <g id="ytick_24">
     <g id="line2d_30">
      <g>
       <use style="fill:#262626;stroke:#262626;stroke-width:1.5;" x="98.011575" xlink:href="#m27bc148700" y="179.952379"/>
      </g>
     </g>
    </g>
    <g id="ytick_25">
     <g id="line2d_31">
      <g>
       <use style="fill:#262626;stroke:#262626;stroke-width:1.5;" x="98.011575" xlink:href="#m27bc148700" y="174.855914"/>
      </g>
     </g>
    </g>
    <g id="ytick_26">
     <g id="line2d_32">
      <g>
       <use style="fill:#262626;stroke:#262626;stroke-width:1.5;" x="98.011575" xlink:href="#m27bc148700" y="170.691799"/>
      </g>
     </g>
    </g>
    <g id="ytick_27">
     <g id="line2d_33">
      <g>
       <use style="fill:#262626;stroke:#262626;stroke-width:1.5;" x="98.011575" xlink:href="#m27bc148700" y="167.17109"/>
      </g>
     </g>
    </g>
    <g id="ytick_28">
     <g id="line2d_34">
      <g>
       <use style="fill:#262626;stroke:#262626;stroke-width:1.5;" x="98.011575" xlink:href="#m27bc148700" y="164.121313"/>
      </g>
     </g>
    </g>
    <g id="ytick_29">
     <g id="line2d_35">
      <g>
       <use style="fill:#262626;stroke:#262626;stroke-width:1.5;" x="98.011575" xlink:href="#m27bc148700" y="161.431219"/>
      </g>
     </g>
    </g>
    <g id="ytick_30">
     <g id="line2d_36">
      <g>
       <use style="fill:#262626;stroke:#262626;stroke-width:1.5;" x="98.011575" xlink:href="#m27bc148700" y="143.193782"/>
      </g>
     </g>
    </g>
    <g id="ytick_31">
     <g id="line2d_37">
      <g>
       <use style="fill:#262626;stroke:#262626;stroke-width:1.5;" x="98.011575" xlink:href="#m27bc148700" y="133.933202"/>
      </g>
     </g>
    </g>
    <g id="ytick_32">
     <g id="line2d_38">
      <g>
       <use style="fill:#262626;stroke:#262626;stroke-width:1.5;" x="98.011575" xlink:href="#m27bc148700" y="127.362715"/>
      </g>
     </g>
    </g>
    <g id="ytick_33">
     <g id="line2d_39">
      <g>
       <use style="fill:#262626;stroke:#262626;stroke-width:1.5;" x="98.011575" xlink:href="#m27bc148700" y="122.26625"/>
      </g>
     </g>
    </g>
    <g id="ytick_34">
     <g id="line2d_40">
      <g>
       <use style="fill:#262626;stroke:#262626;stroke-width:1.5;" x="98.011575" xlink:href="#m27bc148700" y="118.102135"/>
      </g>
     </g>
    </g>
    <g id="ytick_35">
     <g id="line2d_41">
      <g>
       <use style="fill:#262626;stroke:#262626;stroke-width:1.5;" x="98.011575" xlink:href="#m27bc148700" y="114.581426"/>
      </g>
     </g>
    </g>
    <g id="ytick_36">
     <g id="line2d_42">
      <g>
       <use style="fill:#262626;stroke:#262626;stroke-width:1.5;" x="98.011575" xlink:href="#m27bc148700" y="111.531649"/>
      </g>
     </g>
    </g>
    <g id="ytick_37">
     <g id="line2d_43">
      <g>
       <use style="fill:#262626;stroke:#262626;stroke-width:1.5;" x="98.011575" xlink:href="#m27bc148700" y="108.841555"/>
      </g>
     </g>
    </g>
    <g id="ytick_38">
     <g id="line2d_44">
      <g>
       <use style="fill:#262626;stroke:#262626;stroke-width:1.5;" x="98.011575" xlink:href="#m27bc148700" y="90.604117"/>
      </g>
     </g>
    </g>
    <g id="ytick_39">
     <g id="line2d_45">
      <g>
       <use style="fill:#262626;stroke:#262626;stroke-width:1.5;" x="98.011575" xlink:href="#m27bc148700" y="81.343537"/>
      </g>
     </g>
    </g>
    <g id="ytick_40">
     <g id="line2d_46">
      <g>
       <use style="fill:#262626;stroke:#262626;stroke-width:1.5;" x="98.011575" xlink:href="#m27bc148700" y="74.773051"/>
      </g>
     </g>
    </g>
    <g id="ytick_41">
     <g id="line2d_47">
      <g>
       <use style="fill:#262626;stroke:#262626;stroke-width:1.5;" x="98.011575" xlink:href="#m27bc148700" y="69.676586"/>
      </g>
     </g>
    </g>
    <g id="ytick_42">
     <g id="line2d_48">
      <g>
       <use style="fill:#262626;stroke:#262626;stroke-width:1.5;" x="98.011575" xlink:href="#m27bc148700" y="65.512471"/>
      </g>
     </g>
    </g>
    <g id="ytick_43">
     <g id="line2d_49">
      <g>
       <use style="fill:#262626;stroke:#262626;stroke-width:1.5;" x="98.011575" xlink:href="#m27bc148700" y="61.991762"/>
      </g>
     </g>
    </g>
    <g id="ytick_44">
     <g id="line2d_50">
      <g>
       <use style="fill:#262626;stroke:#262626;stroke-width:1.5;" x="98.011575" xlink:href="#m27bc148700" y="58.941985"/>
      </g>
     </g>
    </g>
    <g id="ytick_45">
     <g id="line2d_51">
      <g>
       <use style="fill:#262626;stroke:#262626;stroke-width:1.5;" x="98.011575" xlink:href="#m27bc148700" y="56.251891"/>
      </g>
     </g>
    </g>
    <g id="text_13">
     <!-- Ionic conductivity $\slash$ S cm$^{-1}$ -->
     <g style="fill:#262626;" transform="translate(44.881575 282.99)rotate(-90)scale(0.18 -0.18)">
      <defs>
       <path d="M 9.328125 0 
L 9.328125 71.578125 
L 18.796875 71.578125 
L 18.796875 0 
z
" id="ArialMT-73"/>
       <path d="M 6.59375 0 
L 6.59375 51.859375 
L 14.5 51.859375 
L 14.5 44.484375 
Q 20.21875 53.03125 31 53.03125 
Q 35.6875 53.03125 39.625 51.34375 
Q 43.5625 49.65625 45.515625 46.921875 
Q 47.46875 44.1875 48.25 40.4375 
Q 48.734375 37.984375 48.734375 31.890625 
L 48.734375 0 
L 39.9375 0 
L 39.9375 31.546875 
Q 39.9375 36.921875 38.90625 39.578125 
Q 37.890625 42.234375 35.28125 43.8125 
Q 32.671875 45.40625 29.15625 45.40625 
Q 23.53125 45.40625 19.453125 41.84375 
Q 15.375 38.28125 15.375 28.328125 
L 15.375 0 
z
" id="ArialMT-110"/>
       <path d="M 40.4375 19 
L 49.078125 17.875 
Q 47.65625 8.9375 41.8125 3.875 
Q 35.984375 -1.171875 27.484375 -1.171875 
Q 16.84375 -1.171875 10.375 5.78125 
Q 3.90625 12.75 3.90625 25.734375 
Q 3.90625 34.125 6.6875 40.421875 
Q 9.46875 46.734375 15.15625 49.875 
Q 20.84375 53.03125 27.546875 53.03125 
Q 35.984375 53.03125 41.359375 48.75 
Q 46.734375 44.484375 48.25 36.625 
L 39.703125 35.296875 
Q 38.484375 40.53125 35.375 43.15625 
Q 32.28125 45.796875 27.875 45.796875 
Q 21.234375 45.796875 17.078125 41.03125 
Q 12.9375 36.28125 12.9375 25.984375 
Q 12.9375 15.53125 16.9375 10.796875 
Q 20.953125 6.0625 27.390625 6.0625 
Q 32.5625 6.0625 36.03125 9.234375 
Q 39.5 12.40625 40.4375 19 
z
" id="ArialMT-99"/>
       <path d="M 40.234375 0 
L 40.234375 6.546875 
Q 35.296875 -1.171875 25.734375 -1.171875 
Q 19.53125 -1.171875 14.328125 2.25 
Q 9.125 5.671875 6.265625 11.796875 
Q 3.421875 17.921875 3.421875 25.875 
Q 3.421875 33.640625 6 39.96875 
Q 8.59375 46.296875 13.765625 49.65625 
Q 18.953125 53.03125 25.34375 53.03125 
Q 30.03125 53.03125 33.6875 51.046875 
Q 37.359375 49.078125 39.65625 45.90625 
L 39.65625 71.578125 
L 48.390625 71.578125 
L 48.390625 0 
z
M 12.453125 25.875 
Q 12.453125 15.921875 16.640625 10.984375 
Q 20.84375 6.0625 26.5625 6.0625 
Q 32.328125 6.0625 36.34375 10.765625 
Q 40.375 15.484375 40.375 25.140625 
Q 40.375 35.796875 36.265625 40.765625 
Q 32.171875 45.75 26.171875 45.75 
Q 20.3125 45.75 16.375 40.96875 
Q 12.453125 36.1875 12.453125 25.875 
z
" id="ArialMT-100"/>
       <path d="M 40.578125 0 
L 40.578125 7.625 
Q 34.515625 -1.171875 24.125 -1.171875 
Q 19.53125 -1.171875 15.546875 0.578125 
Q 11.578125 2.34375 9.640625 5 
Q 7.71875 7.671875 6.9375 11.53125 
Q 6.390625 14.109375 6.390625 19.734375 
L 6.390625 51.859375 
L 15.1875 51.859375 
L 15.1875 23.09375 
Q 15.1875 16.21875 15.71875 13.8125 
Q 16.546875 10.359375 19.234375 8.375 
Q 21.921875 6.390625 25.875 6.390625 
Q 29.828125 6.390625 33.296875 8.421875 
Q 36.765625 10.453125 38.203125 13.9375 
Q 39.65625 17.4375 39.65625 24.078125 
L 39.65625 51.859375 
L 48.4375 51.859375 
L 48.4375 0 
z
" id="ArialMT-117"/>
       <path d="M 21 0 
L 1.265625 51.859375 
L 10.546875 51.859375 
L 21.6875 20.796875 
Q 23.484375 15.765625 25 10.359375 
Q 26.171875 14.453125 28.265625 20.21875 
L 39.796875 51.859375 
L 48.828125 51.859375 
L 29.203125 0 
z
" id="ArialMT-118"/>
       <path d="M 6.203125 -19.96875 
L 5.21875 -11.71875 
Q 8.109375 -12.5 10.25 -12.5 
Q 13.1875 -12.5 14.9375 -11.515625 
Q 16.703125 -10.546875 17.828125 -8.796875 
Q 18.65625 -7.46875 20.515625 -2.25 
Q 20.75 -1.515625 21.296875 -0.09375 
L 1.609375 51.859375 
L 11.078125 51.859375 
L 21.875 21.828125 
Q 23.96875 16.109375 25.640625 9.8125 
Q 27.15625 15.875 29.25 21.625 
L 40.328125 51.859375 
L 49.125 51.859375 
L 29.390625 -0.875 
Q 26.21875 -9.421875 24.46875 -12.640625 
Q 22.125 -17 19.09375 -19.015625 
Q 16.0625 -21.046875 11.859375 -21.046875 
Q 9.328125 -21.046875 6.203125 -19.96875 
z
" id="ArialMT-121"/>
       <path d="M 25.390625 72.90625 
L 33.6875 72.90625 
L 8.296875 -9.28125 
L 0 -9.28125 
z
" id="DejaVuSans-8725"/>
       <path d="M 4.5 23 
L 13.421875 23.78125 
Q 14.0625 18.40625 16.375 14.96875 
Q 18.703125 11.53125 23.578125 9.40625 
Q 28.46875 7.28125 34.578125 7.28125 
Q 39.984375 7.28125 44.140625 8.890625 
Q 48.296875 10.5 50.3125 13.296875 
Q 52.34375 16.109375 52.34375 19.4375 
Q 52.34375 22.796875 50.390625 25.3125 
Q 48.4375 27.828125 43.953125 29.546875 
Q 41.0625 30.671875 31.203125 33.03125 
Q 21.34375 35.40625 17.390625 37.5 
Q 12.25 40.1875 9.734375 44.15625 
Q 7.234375 48.140625 7.234375 53.078125 
Q 7.234375 58.5 10.296875 63.203125 
Q 13.375 67.921875 19.28125 70.359375 
Q 25.203125 72.796875 32.421875 72.796875 
Q 40.375 72.796875 46.453125 70.234375 
Q 52.546875 67.671875 55.8125 62.6875 
Q 59.078125 57.71875 59.328125 51.421875 
L 50.25 50.734375 
Q 49.515625 57.515625 45.28125 60.984375 
Q 41.0625 64.453125 32.8125 64.453125 
Q 24.21875 64.453125 20.28125 61.296875 
Q 16.359375 58.15625 16.359375 53.71875 
Q 16.359375 49.859375 19.140625 47.359375 
Q 21.875 44.875 33.421875 42.265625 
Q 44.96875 39.65625 49.265625 37.703125 
Q 55.515625 34.8125 58.484375 30.390625 
Q 61.46875 25.984375 61.46875 20.21875 
Q 61.46875 14.5 58.203125 9.4375 
Q 54.9375 4.390625 48.796875 1.578125 
Q 42.671875 -1.21875 35.015625 -1.21875 
Q 25.296875 -1.21875 18.71875 1.609375 
Q 12.15625 4.4375 8.421875 10.125 
Q 4.6875 15.828125 4.5 23 
z
" id="ArialMT-83"/>
       <path d="M 6.59375 0 
L 6.59375 51.859375 
L 14.453125 51.859375 
L 14.453125 44.578125 
Q 16.890625 48.390625 20.9375 50.703125 
Q 25 53.03125 30.171875 53.03125 
Q 35.9375 53.03125 39.625 50.640625 
Q 43.3125 48.25 44.828125 43.953125 
Q 50.984375 53.03125 60.84375 53.03125 
Q 68.5625 53.03125 72.703125 48.75 
Q 76.859375 44.484375 76.859375 35.59375 
L 76.859375 0 
L 68.109375 0 
L 68.109375 32.671875 
Q 68.109375 37.9375 67.25 40.25 
Q 66.40625 42.578125 64.15625 43.984375 
Q 61.921875 45.40625 58.890625 45.40625 
Q 53.421875 45.40625 49.796875 41.765625 
Q 46.1875 38.140625 46.1875 30.125 
L 46.1875 0 
L 37.40625 0 
L 37.40625 33.6875 
Q 37.40625 39.546875 35.25 42.46875 
Q 33.109375 45.40625 28.21875 45.40625 
Q 24.515625 45.40625 21.359375 43.453125 
Q 18.21875 41.5 16.796875 37.734375 
Q 15.375 33.984375 15.375 26.90625 
L 15.375 0 
z
" id="ArialMT-109"/>
       <path d="M 10.59375 35.5 
L 73.1875 35.5 
L 73.1875 27.203125 
L 10.59375 27.203125 
z
" id="DejaVuSans-8722"/>
       <path d="M 12.40625 8.296875 
L 28.515625 8.296875 
L 28.515625 63.921875 
L 10.984375 60.40625 
L 10.984375 69.390625 
L 28.421875 72.90625 
L 38.28125 72.90625 
L 38.28125 8.296875 
L 54.390625 8.296875 
L 54.390625 0 
L 12.40625 0 
z
" id="DejaVuSans-49"/>
      </defs>
      <use transform="translate(0 0.684375)" xlink:href="#ArialMT-73"/>
      <use transform="translate(27.783203 0.684375)" xlink:href="#ArialMT-111"/>
      <use transform="translate(83.398438 0.684375)" xlink:href="#ArialMT-110"/>
      <use transform="translate(139.013672 0.684375)" xlink:href="#ArialMT-105"/>
      <use transform="translate(161.230469 0.684375)" xlink:href="#ArialMT-99"/>
      <use transform="translate(211.230469 0.684375)" xlink:href="#ArialMT-32"/>
      <use transform="translate(239.013672 0.684375)" xlink:href="#ArialMT-99"/>
      <use transform="translate(289.013672 0.684375)" xlink:href="#ArialMT-111"/>
      <use transform="translate(344.628906 0.684375)" xlink:href="#ArialMT-110"/>
      <use transform="translate(400.244141 0.684375)" xlink:href="#ArialMT-100"/>
      <use transform="translate(455.859375 0.684375)" xlink:href="#ArialMT-117"/>
      <use transform="translate(511.474609 0.684375)" xlink:href="#ArialMT-99"/>
      <use transform="translate(561.474609 0.684375)" xlink:href="#ArialMT-116"/>
      <use transform="translate(589.257812 0.684375)" xlink:href="#ArialMT-105"/>
      <use transform="translate(611.474609 0.684375)" xlink:href="#ArialMT-118"/>
      <use transform="translate(661.474609 0.684375)" xlink:href="#ArialMT-105"/>
      <use transform="translate(683.691406 0.684375)" xlink:href="#ArialMT-116"/>
      <use transform="translate(711.474609 0.684375)" xlink:href="#ArialMT-121"/>
      <use transform="translate(761.474609 0.684375)" xlink:href="#ArialMT-32"/>
      <use transform="translate(789.257812 0.684375)" xlink:href="#DejaVuSans-8725"/>
      <use transform="translate(822.949219 0.684375)" xlink:href="#ArialMT-32"/>
      <use transform="translate(850.732422 0.684375)" xlink:href="#ArialMT-83"/>
      <use transform="translate(917.431641 0.684375)" xlink:href="#ArialMT-32"/>
      <use transform="translate(945.214844 0.684375)" xlink:href="#ArialMT-99"/>
      <use transform="translate(995.214844 0.684375)" xlink:href="#ArialMT-109"/>
      <use transform="translate(1079.472656 38.965625)scale(0.7)" xlink:href="#DejaVuSans-8722"/>
      <use transform="translate(1138.125 38.965625)scale(0.7)" xlink:href="#DejaVuSans-49"/>
     </g>
    </g>
   </g>
   <g id="PolyCollection_1">
    <defs>
     <path d="M 282.054502 -216.806218 
L 282.054502 -210.235732 
L 282.054502 -216.806218 
L 282.054502 -216.806218 
z
" id="m61ebf77022" style="stroke:#4c72b0;stroke-opacity:0.2;stroke-width:1.5;"/>
    </defs>
    <g clip-path="url(#p717bee7939)">
     <use style="fill:#4c72b0;fill-opacity:0.2;stroke:#4c72b0;stroke-opacity:0.2;stroke-width:1.5;" x="0" xlink:href="#m61ebf77022" y="360"/>
    </g>
   </g>
   <g id="PolyCollection_2">
    <defs>
     <path d="M 282.054502 -285.112465 
L 282.054502 -269.395883 
L 282.054502 -285.112465 
L 282.054502 -285.112465 
z
" id="m369a568d1e" style="stroke:#dd8452;stroke-opacity:0.2;stroke-width:1.5;"/>
    </defs>
    <g clip-path="url(#p717bee7939)">
     <use style="fill:#dd8452;fill-opacity:0.2;stroke:#dd8452;stroke-opacity:0.2;stroke-width:1.5;" x="0" xlink:href="#m369a568d1e" y="360"/>
    </g>
   </g>
   <g id="line2d_52">
    <path clip-path="url(#p717bee7939)" d="M 175.671307 159.024848 
L 228.862905 151.177465 
L 282.054502 146.243559 
L 388.437697 148.577539 
" style="fill:none;stroke:#4c72b0;stroke-linecap:round;stroke-width:2.25;"/>
    <defs>
     <path d="M 0 4.5 
C 1.193414 4.5 2.338109 4.025852 3.181981 3.181981 
C 4.025852 2.338109 4.5 1.193414 4.5 0 
C 4.5 -1.193414 4.025852 -2.338109 3.181981 -3.181981 
C 2.338109 -4.025852 1.193414 -4.5 0 -4.5 
C -1.193414 -4.5 -2.338109 -4.025852 -3.181981 -3.181981 
C -4.025852 -2.338109 -4.5 -1.193414 -4.5 0 
C -4.5 1.193414 -4.025852 2.338109 -3.181981 3.181981 
C -2.338109 4.025852 -1.193414 4.5 0 4.5 
z
" id="m83acfb14e2" style="stroke:#ffffff;stroke-width:0.75;"/>
    </defs>
    <g clip-path="url(#p717bee7939)">
     <use style="fill:#4c72b0;stroke:#ffffff;stroke-width:0.75;" x="175.671307" xlink:href="#m83acfb14e2" y="159.024848"/>
     <use style="fill:#4c72b0;stroke:#ffffff;stroke-width:0.75;" x="228.862905" xlink:href="#m83acfb14e2" y="151.177465"/>
     <use style="fill:#4c72b0;stroke:#ffffff;stroke-width:0.75;" x="282.054502" xlink:href="#m83acfb14e2" y="146.243559"/>
     <use style="fill:#4c72b0;stroke:#ffffff;stroke-width:0.75;" x="388.437697" xlink:href="#m83acfb14e2" y="148.577539"/>
    </g>
   </g>
   <g id="line2d_53">
    <path clip-path="url(#p717bee7939)" d="M 111.84139 300.622727 
L 154.394668 232.145811 
L 196.947946 232.145811 
L 239.501224 232.145811 
" style="fill:none;stroke:#4c72b0;stroke-dasharray:9,3.375;stroke-dashoffset:0;stroke-width:2.25;"/>
    <defs>
     <path d="M -2.25 4.5 
L 0 2.25 
L 2.25 4.5 
L 4.5 2.25 
L 2.25 0 
L 4.5 -2.25 
L 2.25 -4.5 
L 0 -2.25 
L -2.25 -4.5 
L -4.5 -2.25 
L -2.25 0 
L -4.5 2.25 
z
" id="m3060faadb8" style="stroke:#ffffff;stroke-linejoin:miter;stroke-width:0.75;"/>
    </defs>
    <g clip-path="url(#p717bee7939)">
     <use style="fill:#4c72b0;stroke:#ffffff;stroke-linejoin:miter;stroke-width:0.75;" x="111.84139" xlink:href="#m3060faadb8" y="300.622727"/>
     <use style="fill:#4c72b0;stroke:#ffffff;stroke-linejoin:miter;stroke-width:0.75;" x="154.394668" xlink:href="#m3060faadb8" y="232.145811"/>
     <use style="fill:#4c72b0;stroke:#ffffff;stroke-linejoin:miter;stroke-width:0.75;" x="196.947946" xlink:href="#m3060faadb8" y="232.145811"/>
     <use style="fill:#4c72b0;stroke:#ffffff;stroke-linejoin:miter;stroke-width:0.75;" x="239.501224" xlink:href="#m3060faadb8" y="232.145811"/>
    </g>
   </g>
   <g id="line2d_54">
    <path clip-path="url(#p717bee7939)" d="M 175.671307 103.846825 
L 228.862905 95.987874 
L 282.054502 81.419796 
L 388.437697 90.604117 
" style="fill:none;stroke:#dd8452;stroke-linecap:round;stroke-width:2.25;"/>
    <defs>
     <path d="M 0 4.5 
C 1.193414 4.5 2.338109 4.025852 3.181981 3.181981 
C 4.025852 2.338109 4.5 1.193414 4.5 0 
C 4.5 -1.193414 4.025852 -2.338109 3.181981 -3.181981 
C 2.338109 -4.025852 1.193414 -4.5 0 -4.5 
C -1.193414 -4.5 -2.338109 -4.025852 -3.181981 -3.181981 
C -4.025852 -2.338109 -4.5 -1.193414 -4.5 0 
C -4.5 1.193414 -4.025852 2.338109 -3.181981 3.181981 
C -2.338109 4.025852 -1.193414 4.5 0 4.5 
z
" id="m46d0976329" style="stroke:#ffffff;stroke-width:0.75;"/>
    </defs>
    <g clip-path="url(#p717bee7939)">
     <use style="fill:#dd8452;stroke:#ffffff;stroke-width:0.75;" x="175.671307" xlink:href="#m46d0976329" y="103.846825"/>
     <use style="fill:#dd8452;stroke:#ffffff;stroke-width:0.75;" x="228.862905" xlink:href="#m46d0976329" y="95.987874"/>
     <use style="fill:#dd8452;stroke:#ffffff;stroke-width:0.75;" x="282.054502" xlink:href="#m46d0976329" y="81.419796"/>
     <use style="fill:#dd8452;stroke:#ffffff;stroke-width:0.75;" x="388.437697" xlink:href="#m46d0976329" y="90.604117"/>
    </g>
   </g>
   <g id="line2d_55">
    <path clip-path="url(#p717bee7939)" d="M 111.84139 189.96757 
L 154.394668 98.581323 
L 196.947946 63.684343 
L 239.501224 75.741949 
" style="fill:none;stroke:#dd8452;stroke-dasharray:9,3.375;stroke-dashoffset:0;stroke-width:2.25;"/>
    <defs>
     <path d="M -2.25 4.5 
L 0 2.25 
L 2.25 4.5 
L 4.5 2.25 
L 2.25 0 
L 4.5 -2.25 
L 2.25 -4.5 
L 0 -2.25 
L -2.25 -4.5 
L -4.5 -2.25 
L -2.25 0 
L -4.5 2.25 
z
" id="ma3a69c2a97" style="stroke:#ffffff;stroke-linejoin:miter;stroke-width:0.75;"/>
    </defs>
    <g clip-path="url(#p717bee7939)">
     <use style="fill:#dd8452;stroke:#ffffff;stroke-linejoin:miter;stroke-width:0.75;" x="111.84139" xlink:href="#ma3a69c2a97" y="189.96757"/>
     <use style="fill:#dd8452;stroke:#ffffff;stroke-linejoin:miter;stroke-width:0.75;" x="154.394668" xlink:href="#ma3a69c2a97" y="98.581323"/>
     <use style="fill:#dd8452;stroke:#ffffff;stroke-linejoin:miter;stroke-width:0.75;" x="196.947946" xlink:href="#ma3a69c2a97" y="63.684343"/>
     <use style="fill:#dd8452;stroke:#ffffff;stroke-linejoin:miter;stroke-width:0.75;" x="239.501224" xlink:href="#ma3a69c2a97" y="75.741949"/>
    </g>
   </g>
   <g id="line2d_56"/>
   <g id="line2d_57"/>
   <g id="line2d_58"/>
   <g id="line2d_59"/>
   <g id="line2d_60"/>
   <g id="line2d_61"/>
   <g id="patch_3">
    <path d="M 98.011575 313.06 
L 98.011575 39.44 
" style="fill:none;stroke:#262626;stroke-linecap:square;stroke-linejoin:miter;stroke-width:1.875;"/>
   </g>
   <g id="patch_4">
    <path d="M 98.011575 313.06 
L 402.267512 313.06 
" style="fill:none;stroke:#262626;stroke-linecap:square;stroke-linejoin:miter;stroke-width:1.875;"/>
   </g>
   <g id="text_14">
    <!-- Salt = NaClO$_4$ -->
    <g style="fill:#262626;" transform="translate(192.989544 33.44)scale(0.18 -0.18)">
     <defs>
      <path d="M 6.390625 0 
L 6.390625 71.578125 
L 15.1875 71.578125 
L 15.1875 0 
z
" id="ArialMT-108"/>
      <path d="M 52.828125 42.09375 
L 5.5625 42.09375 
L 5.5625 50.296875 
L 52.828125 50.296875 
z
M 52.828125 20.359375 
L 5.5625 20.359375 
L 5.5625 28.5625 
L 52.828125 28.5625 
z
" id="ArialMT-61"/>
      <path d="M 58.796875 25.09375 
L 68.265625 22.703125 
Q 65.28125 11.03125 57.546875 4.90625 
Q 49.8125 -1.21875 38.625 -1.21875 
Q 27.046875 -1.21875 19.796875 3.484375 
Q 12.546875 8.203125 8.765625 17.140625 
Q 4.984375 26.078125 4.984375 36.328125 
Q 4.984375 47.515625 9.25 55.828125 
Q 13.53125 64.15625 21.40625 68.46875 
Q 29.296875 72.796875 38.765625 72.796875 
Q 49.515625 72.796875 56.828125 67.328125 
Q 64.15625 61.859375 67.046875 51.953125 
L 57.71875 49.75 
Q 55.21875 57.5625 50.484375 61.125 
Q 45.75 64.703125 38.578125 64.703125 
Q 30.328125 64.703125 24.78125 60.734375 
Q 19.234375 56.78125 16.984375 50.109375 
Q 14.75 43.453125 14.75 36.375 
Q 14.75 27.25 17.40625 20.4375 
Q 20.0625 13.625 25.671875 10.25 
Q 31.296875 6.890625 37.84375 6.890625 
Q 45.796875 6.890625 51.3125 11.46875 
Q 56.84375 16.0625 58.796875 25.09375 
z
" id="ArialMT-67"/>
      <path d="M 37.796875 64.3125 
L 12.890625 25.390625 
L 37.796875 25.390625 
z
M 35.203125 72.90625 
L 47.609375 72.90625 
L 47.609375 25.390625 
L 58.015625 25.390625 
L 58.015625 17.1875 
L 47.609375 17.1875 
L 47.609375 0 
L 37.796875 0 
L 37.796875 17.1875 
L 4.890625 17.1875 
L 4.890625 26.703125 
z
" id="DejaVuSans-52"/>
     </defs>
     <use transform="translate(0 0.140625)" xlink:href="#ArialMT-83"/>
     <use transform="translate(66.699219 0.140625)" xlink:href="#ArialMT-97"/>
     <use transform="translate(122.314453 0.140625)" xlink:href="#ArialMT-108"/>
     <use transform="translate(144.53125 0.140625)" xlink:href="#ArialMT-116"/>
     <use transform="translate(172.314453 0.140625)" xlink:href="#ArialMT-32"/>
     <use transform="translate(200.097656 0.140625)" xlink:href="#ArialMT-61"/>
     <use transform="translate(258.496094 0.140625)" xlink:href="#ArialMT-32"/>
     <use transform="translate(286.279297 0.140625)" xlink:href="#ArialMT-78"/>
     <use transform="translate(358.496094 0.140625)" xlink:href="#ArialMT-97"/>
     <use transform="translate(414.111328 0.140625)" xlink:href="#ArialMT-67"/>
     <use transform="translate(486.328125 0.140625)" xlink:href="#ArialMT-108"/>
     <use transform="translate(508.544922 0.140625)" xlink:href="#ArialMT-79"/>
     <use transform="translate(587.285156 -16.265625)scale(0.7)" xlink:href="#DejaVuSans-52"/>
    </g>
   </g>
  </g>
  <g id="axes_2">
   <g id="patch_5">
    <path d="M 430.438319 313.06 
L 734.694256 313.06 
L 734.694256 39.44 
L 430.438319 39.44 
z
" style="fill:#ffffff;"/>
   </g>
   <g id="matplotlib.axis_3">
    <g id="xtick_7">
     <g id="line2d_62">
      <g>
       <use style="fill:#262626;stroke:#262626;stroke-width:1.875;" x="454.906454" xlink:href="#m01158dd818" y="313.06"/>
      </g>
     </g>
     <g id="text_15">
      <!-- 5 -->
      <g style="fill:#262626;" transform="translate(450.31868 337.370391)scale(0.165 -0.165)">
       <use xlink:href="#ArialMT-53"/>
      </g>
     </g>
    </g>
    <g id="xtick_8">
     <g id="line2d_63">
      <g>
       <use style="fill:#262626;stroke:#262626;stroke-width:1.875;" x="508.098051" xlink:href="#m01158dd818" y="313.06"/>
      </g>
     </g>
     <g id="text_16">
      <!-- 10 -->
      <g style="fill:#262626;" transform="translate(498.922504 337.370391)scale(0.165 -0.165)">
       <use xlink:href="#ArialMT-49"/>
       <use x="55.615234" xlink:href="#ArialMT-48"/>
      </g>
     </g>
    </g>
    <g id="xtick_9">
     <g id="line2d_64">
      <g>
       <use style="fill:#262626;stroke:#262626;stroke-width:1.875;" x="561.289649" xlink:href="#m01158dd818" y="313.06"/>
      </g>
     </g>
     <g id="text_17">
      <!-- 15 -->
      <g style="fill:#262626;" transform="translate(552.114102 337.370391)scale(0.165 -0.165)">
       <use xlink:href="#ArialMT-49"/>
       <use x="55.615234" xlink:href="#ArialMT-53"/>
      </g>
     </g>
    </g>
    <g id="xtick_10">
     <g id="line2d_65">
      <g>
       <use style="fill:#262626;stroke:#262626;stroke-width:1.875;" x="614.481246" xlink:href="#m01158dd818" y="313.06"/>
      </g>
     </g>
     <g id="text_18">
      <!-- 20 -->
      <g style="fill:#262626;" transform="translate(605.305699 337.370391)scale(0.165 -0.165)">
       <use xlink:href="#ArialMT-50"/>
       <use x="55.615234" xlink:href="#ArialMT-48"/>
      </g>
     </g>
    </g>
    <g id="xtick_11">
     <g id="line2d_66">
      <g>
       <use style="fill:#262626;stroke:#262626;stroke-width:1.875;" x="667.672843" xlink:href="#m01158dd818" y="313.06"/>
      </g>
     </g>
     <g id="text_19">
      <!-- 25 -->
      <g style="fill:#262626;" transform="translate(658.497297 337.370391)scale(0.165 -0.165)">
       <use xlink:href="#ArialMT-50"/>
       <use x="55.615234" xlink:href="#ArialMT-53"/>
      </g>
     </g>
    </g>
    <g id="xtick_12">
     <g id="line2d_67">
      <g>
       <use style="fill:#262626;stroke:#262626;stroke-width:1.875;" x="720.864441" xlink:href="#m01158dd818" y="313.06"/>
      </g>
     </g>
     <g id="text_20">
      <!-- 30 -->
      <g style="fill:#262626;" transform="translate(711.688894 337.370391)scale(0.165 -0.165)">
       <use xlink:href="#ArialMT-51"/>
       <use x="55.615234" xlink:href="#ArialMT-48"/>
      </g>
     </g>
    </g>
    <g id="text_21">
     <!-- EO : Na ratio -->
     <g style="fill:#262626;" transform="translate(530.550506 357.533828)scale(0.18 -0.18)">
      <use xlink:href="#ArialMT-69"/>
      <use x="66.699219" xlink:href="#ArialMT-79"/>
      <use x="144.482422" xlink:href="#ArialMT-32"/>
      <use x="172.265625" xlink:href="#ArialMT-58"/>
      <use x="200.048828" xlink:href="#ArialMT-32"/>
      <use x="227.832031" xlink:href="#ArialMT-78"/>
      <use x="300.048828" xlink:href="#ArialMT-97"/>
      <use x="355.664062" xlink:href="#ArialMT-32"/>
      <use x="383.447266" xlink:href="#ArialMT-114"/>
      <use x="416.748047" xlink:href="#ArialMT-97"/>
      <use x="472.363281" xlink:href="#ArialMT-116"/>
      <use x="500.146484" xlink:href="#ArialMT-105"/>
      <use x="522.363281" xlink:href="#ArialMT-111"/>
     </g>
    </g>
   </g>
   <g id="matplotlib.axis_4">
    <g id="ytick_46">
     <g id="line2d_68">
      <g>
       <use style="fill:#262626;stroke:#262626;stroke-width:1.875;" x="430.438319" xlink:href="#m2726e64844" y="264.204176"/>
      </g>
     </g>
    </g>
    <g id="ytick_47">
     <g id="line2d_69">
      <g>
       <use style="fill:#262626;stroke:#262626;stroke-width:1.875;" x="430.438319" xlink:href="#m2726e64844" y="211.614512"/>
      </g>
     </g>
    </g>
    <g id="ytick_48">
     <g id="line2d_70">
      <g>
       <use style="fill:#262626;stroke:#262626;stroke-width:1.875;" x="430.438319" xlink:href="#m2726e64844" y="159.024848"/>
      </g>
     </g>
    </g>
    <g id="ytick_49">
     <g id="line2d_71">
      <g>
       <use style="fill:#262626;stroke:#262626;stroke-width:1.875;" x="430.438319" xlink:href="#m2726e64844" y="106.435184"/>
      </g>
     </g>
    </g>
    <g id="ytick_50">
     <g id="line2d_72">
      <g>
       <use style="fill:#262626;stroke:#262626;stroke-width:1.875;" x="430.438319" xlink:href="#m2726e64844" y="53.84552"/>
      </g>
     </g>
    </g>
    <g id="ytick_51">
     <g id="line2d_73">
      <g>
       <use style="fill:#262626;stroke:#262626;stroke-width:1.5;" x="430.438319" xlink:href="#m27bc148700" y="300.962774"/>
      </g>
     </g>
    </g>
    <g id="ytick_52">
     <g id="line2d_74">
      <g>
       <use style="fill:#262626;stroke:#262626;stroke-width:1.5;" x="430.438319" xlink:href="#m27bc148700" y="291.702194"/>
      </g>
     </g>
    </g>
    <g id="ytick_53">
     <g id="line2d_75">
      <g>
       <use style="fill:#262626;stroke:#262626;stroke-width:1.5;" x="430.438319" xlink:href="#m27bc148700" y="285.131708"/>
      </g>
     </g>
    </g>
    <g id="ytick_54">
     <g id="line2d_76">
      <g>
       <use style="fill:#262626;stroke:#262626;stroke-width:1.5;" x="430.438319" xlink:href="#m27bc148700" y="280.035243"/>
      </g>
     </g>
    </g>
    <g id="ytick_55">
     <g id="line2d_77">
      <g>
       <use style="fill:#262626;stroke:#262626;stroke-width:1.5;" x="430.438319" xlink:href="#m27bc148700" y="275.871128"/>
      </g>
     </g>
    </g>
    <g id="ytick_56">
     <g id="line2d_78">
      <g>
       <use style="fill:#262626;stroke:#262626;stroke-width:1.5;" x="430.438319" xlink:href="#m27bc148700" y="272.350419"/>
      </g>
     </g>
    </g>
    <g id="ytick_57">
     <g id="line2d_79">
      <g>
       <use style="fill:#262626;stroke:#262626;stroke-width:1.5;" x="430.438319" xlink:href="#m27bc148700" y="269.300641"/>
      </g>
     </g>
    </g>
    <g id="ytick_58">
     <g id="line2d_80">
      <g>
       <use style="fill:#262626;stroke:#262626;stroke-width:1.5;" x="430.438319" xlink:href="#m27bc148700" y="266.610548"/>
      </g>
     </g>
    </g>
    <g id="ytick_59">
     <g id="line2d_81">
      <g>
       <use style="fill:#262626;stroke:#262626;stroke-width:1.5;" x="430.438319" xlink:href="#m27bc148700" y="248.37311"/>
      </g>
     </g>
    </g>
    <g id="ytick_60">
     <g id="line2d_82">
      <g>
       <use style="fill:#262626;stroke:#262626;stroke-width:1.5;" x="430.438319" xlink:href="#m27bc148700" y="239.11253"/>
      </g>
     </g>
    </g>
    <g id="ytick_61">
     <g id="line2d_83">
      <g>
       <use style="fill:#262626;stroke:#262626;stroke-width:1.5;" x="430.438319" xlink:href="#m27bc148700" y="232.542044"/>
      </g>
     </g>
    </g>
    <g id="ytick_62">
     <g id="line2d_84">
      <g>
       <use style="fill:#262626;stroke:#262626;stroke-width:1.5;" x="430.438319" xlink:href="#m27bc148700" y="227.445579"/>
      </g>
     </g>
    </g>
    <g id="ytick_63">
     <g id="line2d_85">
      <g>
       <use style="fill:#262626;stroke:#262626;stroke-width:1.5;" x="430.438319" xlink:href="#m27bc148700" y="223.281464"/>
      </g>
     </g>
    </g>
    <g id="ytick_64">
     <g id="line2d_86">
      <g>
       <use style="fill:#262626;stroke:#262626;stroke-width:1.5;" x="430.438319" xlink:href="#m27bc148700" y="219.760754"/>
      </g>
     </g>
    </g>
    <g id="ytick_65">
     <g id="line2d_87">
      <g>
       <use style="fill:#262626;stroke:#262626;stroke-width:1.5;" x="430.438319" xlink:href="#m27bc148700" y="216.710977"/>
      </g>
     </g>
    </g>
    <g id="ytick_66">
     <g id="line2d_88">
      <g>
       <use style="fill:#262626;stroke:#262626;stroke-width:1.5;" x="430.438319" xlink:href="#m27bc148700" y="214.020883"/>
      </g>
     </g>
    </g>
    <g id="ytick_67">
     <g id="line2d_89">
      <g>
       <use style="fill:#262626;stroke:#262626;stroke-width:1.5;" x="430.438319" xlink:href="#m27bc148700" y="195.783446"/>
      </g>
     </g>
    </g>
    <g id="ytick_68">
     <g id="line2d_90">
      <g>
       <use style="fill:#262626;stroke:#262626;stroke-width:1.5;" x="430.438319" xlink:href="#m27bc148700" y="186.522866"/>
      </g>
     </g>
    </g>
    <g id="ytick_69">
     <g id="line2d_91">
      <g>
       <use style="fill:#262626;stroke:#262626;stroke-width:1.5;" x="430.438319" xlink:href="#m27bc148700" y="179.952379"/>
      </g>
     </g>
    </g>
    <g id="ytick_70">
     <g id="line2d_92">
      <g>
       <use style="fill:#262626;stroke:#262626;stroke-width:1.5;" x="430.438319" xlink:href="#m27bc148700" y="174.855914"/>
      </g>
     </g>
    </g>
    <g id="ytick_71">
     <g id="line2d_93">
      <g>
       <use style="fill:#262626;stroke:#262626;stroke-width:1.5;" x="430.438319" xlink:href="#m27bc148700" y="170.691799"/>
      </g>
     </g>
    </g>
    <g id="ytick_72">
     <g id="line2d_94">
      <g>
       <use style="fill:#262626;stroke:#262626;stroke-width:1.5;" x="430.438319" xlink:href="#m27bc148700" y="167.17109"/>
      </g>
     </g>
    </g>
    <g id="ytick_73">
     <g id="line2d_95">
      <g>
       <use style="fill:#262626;stroke:#262626;stroke-width:1.5;" x="430.438319" xlink:href="#m27bc148700" y="164.121313"/>
      </g>
     </g>
    </g>
    <g id="ytick_74">
     <g id="line2d_96">
      <g>
       <use style="fill:#262626;stroke:#262626;stroke-width:1.5;" x="430.438319" xlink:href="#m27bc148700" y="161.431219"/>
      </g>
     </g>
    </g>
    <g id="ytick_75">
     <g id="line2d_97">
      <g>
       <use style="fill:#262626;stroke:#262626;stroke-width:1.5;" x="430.438319" xlink:href="#m27bc148700" y="143.193782"/>
      </g>
     </g>
    </g>
    <g id="ytick_76">
     <g id="line2d_98">
      <g>
       <use style="fill:#262626;stroke:#262626;stroke-width:1.5;" x="430.438319" xlink:href="#m27bc148700" y="133.933202"/>
      </g>
     </g>
    </g>
    <g id="ytick_77">
     <g id="line2d_99">
      <g>
       <use style="fill:#262626;stroke:#262626;stroke-width:1.5;" x="430.438319" xlink:href="#m27bc148700" y="127.362715"/>
      </g>
     </g>
    </g>
    <g id="ytick_78">
     <g id="line2d_100">
      <g>
       <use style="fill:#262626;stroke:#262626;stroke-width:1.5;" x="430.438319" xlink:href="#m27bc148700" y="122.26625"/>
      </g>
     </g>
    </g>
    <g id="ytick_79">
     <g id="line2d_101">
      <g>
       <use style="fill:#262626;stroke:#262626;stroke-width:1.5;" x="430.438319" xlink:href="#m27bc148700" y="118.102135"/>
      </g>
     </g>
    </g>
    <g id="ytick_80">
     <g id="line2d_102">
      <g>
       <use style="fill:#262626;stroke:#262626;stroke-width:1.5;" x="430.438319" xlink:href="#m27bc148700" y="114.581426"/>
      </g>
     </g>
    </g>
    <g id="ytick_81">
     <g id="line2d_103">
      <g>
       <use style="fill:#262626;stroke:#262626;stroke-width:1.5;" x="430.438319" xlink:href="#m27bc148700" y="111.531649"/>
      </g>
     </g>
    </g>
    <g id="ytick_82">
     <g id="line2d_104">
      <g>
       <use style="fill:#262626;stroke:#262626;stroke-width:1.5;" x="430.438319" xlink:href="#m27bc148700" y="108.841555"/>
      </g>
     </g>
    </g>
    <g id="ytick_83">
     <g id="line2d_105">
      <g>
       <use style="fill:#262626;stroke:#262626;stroke-width:1.5;" x="430.438319" xlink:href="#m27bc148700" y="90.604117"/>
      </g>
     </g>
    </g>
    <g id="ytick_84">
     <g id="line2d_106">
      <g>
       <use style="fill:#262626;stroke:#262626;stroke-width:1.5;" x="430.438319" xlink:href="#m27bc148700" y="81.343537"/>
      </g>
     </g>
    </g>
    <g id="ytick_85">
     <g id="line2d_107">
      <g>
       <use style="fill:#262626;stroke:#262626;stroke-width:1.5;" x="430.438319" xlink:href="#m27bc148700" y="74.773051"/>
      </g>
     </g>
    </g>
    <g id="ytick_86">
     <g id="line2d_108">
      <g>
       <use style="fill:#262626;stroke:#262626;stroke-width:1.5;" x="430.438319" xlink:href="#m27bc148700" y="69.676586"/>
      </g>
     </g>
    </g>
    <g id="ytick_87">
     <g id="line2d_109">
      <g>
       <use style="fill:#262626;stroke:#262626;stroke-width:1.5;" x="430.438319" xlink:href="#m27bc148700" y="65.512471"/>
      </g>
     </g>
    </g>
    <g id="ytick_88">
     <g id="line2d_110">
      <g>
       <use style="fill:#262626;stroke:#262626;stroke-width:1.5;" x="430.438319" xlink:href="#m27bc148700" y="61.991762"/>
      </g>
     </g>
    </g>
    <g id="ytick_89">
     <g id="line2d_111">
      <g>
       <use style="fill:#262626;stroke:#262626;stroke-width:1.5;" x="430.438319" xlink:href="#m27bc148700" y="58.941985"/>
      </g>
     </g>
    </g>
    <g id="ytick_90">
     <g id="line2d_112">
      <g>
       <use style="fill:#262626;stroke:#262626;stroke-width:1.5;" x="430.438319" xlink:href="#m27bc148700" y="56.251891"/>
      </g>
     </g>
    </g>
   </g>
   <g id="line2d_113">
    <path clip-path="url(#pdd948a656d)" d="M 465.544773 190.686981 
L 497.459732 149.764268 
L 614.481246 186.522866 
" style="fill:none;stroke:#4c72b0;stroke-dasharray:2.25,2.25;stroke-dashoffset:0;stroke-width:2.25;"/>
    <defs>
     <path d="M -3.181981 -3.181981 
L -3.181981 3.181981 
L 3.181981 3.181981 
L 3.181981 -3.181981 
z
" id="m75ef345d60" style="stroke:#ffffff;stroke-linejoin:miter;stroke-width:0.75;"/>
    </defs>
    <g clip-path="url(#pdd948a656d)">
     <use style="fill:#4c72b0;stroke:#ffffff;stroke-linejoin:miter;stroke-width:0.75;" x="465.544773" xlink:href="#m75ef345d60" y="190.686981"/>
     <use style="fill:#4c72b0;stroke:#ffffff;stroke-linejoin:miter;stroke-width:0.75;" x="497.459732" xlink:href="#m75ef345d60" y="149.764268"/>
     <use style="fill:#4c72b0;stroke:#ffffff;stroke-linejoin:miter;stroke-width:0.75;" x="614.481246" xlink:href="#m75ef345d60" y="186.522866"/>
    </g>
   </g>
   <g id="line2d_114">
    <path clip-path="url(#pdd948a656d)" d="M 465.544773 108.841555 
L 497.459732 81.343537 
L 614.481246 85.507652 
" style="fill:none;stroke:#dd8452;stroke-dasharray:2.25,2.25;stroke-dashoffset:0;stroke-width:2.25;"/>
    <defs>
     <path d="M -3.181981 -3.181981 
L -3.181981 3.181981 
L 3.181981 3.181981 
L 3.181981 -3.181981 
z
" id="mbdb22904f6" style="stroke:#ffffff;stroke-linejoin:miter;stroke-width:0.75;"/>
    </defs>
    <g clip-path="url(#pdd948a656d)">
     <use style="fill:#dd8452;stroke:#ffffff;stroke-linejoin:miter;stroke-width:0.75;" x="465.544773" xlink:href="#mbdb22904f6" y="108.841555"/>
     <use style="fill:#dd8452;stroke:#ffffff;stroke-linejoin:miter;stroke-width:0.75;" x="497.459732" xlink:href="#mbdb22904f6" y="81.343537"/>
     <use style="fill:#dd8452;stroke:#ffffff;stroke-linejoin:miter;stroke-width:0.75;" x="614.481246" xlink:href="#mbdb22904f6" y="85.507652"/>
    </g>
   </g>
   <g id="line2d_115">
    <path clip-path="url(#pdd948a656d)" d="M 486.821412 63.335644 
L 508.098051 64.109935 
L 614.481246 51.877273 
" style="fill:none;stroke:#dd8452;stroke-dasharray:6.75,2.8125,3.375,2.8125;stroke-dashoffset:0;stroke-width:2.25;"/>
    <defs>
     <path d="M -1.5 4.5 
L 1.5 4.5 
L 1.5 1.5 
L 4.5 1.5 
L 4.5 -1.5 
L 1.5 -1.5 
L 1.5 -4.5 
L -1.5 -4.5 
L -1.5 -1.5 
L -4.5 -1.5 
L -4.5 1.5 
L -1.5 1.5 
z
" id="m0f2ffedbd2" style="stroke:#ffffff;stroke-linejoin:miter;stroke-width:0.75;"/>
    </defs>
    <g clip-path="url(#pdd948a656d)">
     <use style="fill:#dd8452;stroke:#ffffff;stroke-linejoin:miter;stroke-width:0.75;" x="486.821412" xlink:href="#m0f2ffedbd2" y="63.335644"/>
     <use style="fill:#dd8452;stroke:#ffffff;stroke-linejoin:miter;stroke-width:0.75;" x="508.098051" xlink:href="#m0f2ffedbd2" y="64.109935"/>
     <use style="fill:#dd8452;stroke:#ffffff;stroke-linejoin:miter;stroke-width:0.75;" x="614.481246" xlink:href="#m0f2ffedbd2" y="51.877273"/>
    </g>
   </g>
   <g id="patch_6">
    <path d="M 430.438319 313.06 
L 430.438319 39.44 
" style="fill:none;stroke:#262626;stroke-linecap:square;stroke-linejoin:miter;stroke-width:1.875;"/>
   </g>
   <g id="patch_7">
    <path d="M 430.438319 313.06 
L 734.694256 313.06 
" style="fill:none;stroke:#262626;stroke-linecap:square;stroke-linejoin:miter;stroke-width:1.875;"/>
   </g>
   <g id="text_22">
    <!-- Salt = NaTFSI -->
    <g style="fill:#262626;" transform="translate(525.798787 33.44)scale(0.18 -0.18)">
     <defs>
      <path d="M 25.921875 0 
L 25.921875 63.140625 
L 2.34375 63.140625 
L 2.34375 71.578125 
L 59.078125 71.578125 
L 59.078125 63.140625 
L 35.40625 63.140625 
L 35.40625 0 
z
" id="ArialMT-84"/>
      <path d="M 8.203125 0 
L 8.203125 71.578125 
L 56.5 71.578125 
L 56.5 63.140625 
L 17.671875 63.140625 
L 17.671875 40.96875 
L 51.265625 40.96875 
L 51.265625 32.515625 
L 17.671875 32.515625 
L 17.671875 0 
z
" id="ArialMT-70"/>
     </defs>
     <use xlink:href="#ArialMT-83"/>
     <use x="66.699219" xlink:href="#ArialMT-97"/>
     <use x="122.314453" xlink:href="#ArialMT-108"/>
     <use x="144.53125" xlink:href="#ArialMT-116"/>
     <use x="172.314453" xlink:href="#ArialMT-32"/>
     <use x="200.097656" xlink:href="#ArialMT-61"/>
     <use x="258.496094" xlink:href="#ArialMT-32"/>
     <use x="286.279297" xlink:href="#ArialMT-78"/>
     <use x="358.496094" xlink:href="#ArialMT-97"/>
     <use x="414.111328" xlink:href="#ArialMT-84"/>
     <use x="475.195312" xlink:href="#ArialMT-70"/>
     <use x="536.279297" xlink:href="#ArialMT-83"/>
     <use x="602.978516" xlink:href="#ArialMT-73"/>
    </g>
   </g>
  </g>
  <g id="axes_3">
   <g id="patch_8">
    <path d="M 762.865063 313.06 
L 1067.121 313.06 
L 1067.121 39.44 
L 762.865063 39.44 
z
" style="fill:#ffffff;"/>
   </g>
   <g id="matplotlib.axis_5">
    <g id="xtick_13">
     <g id="line2d_116">
      <g>
       <use style="fill:#262626;stroke:#262626;stroke-width:1.875;" x="787.333198" xlink:href="#m01158dd818" y="313.06"/>
      </g>
     </g>
     <g id="text_23">
      <!-- 5 -->
      <g style="fill:#262626;" transform="translate(782.745424 337.370391)scale(0.165 -0.165)">
       <use xlink:href="#ArialMT-53"/>
      </g>
     </g>
    </g>
    <g id="xtick_14">
     <g id="line2d_117">
      <g>
       <use style="fill:#262626;stroke:#262626;stroke-width:1.875;" x="840.524795" xlink:href="#m01158dd818" y="313.06"/>
      </g>
     </g>
     <g id="text_24">
      <!-- 10 -->
      <g style="fill:#262626;" transform="translate(831.349248 337.370391)scale(0.165 -0.165)">
       <use xlink:href="#ArialMT-49"/>
       <use x="55.615234" xlink:href="#ArialMT-48"/>
      </g>
     </g>
    </g>
    <g id="xtick_15">
     <g id="line2d_118">
      <g>
       <use style="fill:#262626;stroke:#262626;stroke-width:1.875;" x="893.716392" xlink:href="#m01158dd818" y="313.06"/>
      </g>
     </g>
     <g id="text_25">
      <!-- 15 -->
      <g style="fill:#262626;" transform="translate(884.540846 337.370391)scale(0.165 -0.165)">
       <use xlink:href="#ArialMT-49"/>
       <use x="55.615234" xlink:href="#ArialMT-53"/>
      </g>
     </g>
    </g>
    <g id="xtick_16">
     <g id="line2d_119">
      <g>
       <use style="fill:#262626;stroke:#262626;stroke-width:1.875;" x="946.90799" xlink:href="#m01158dd818" y="313.06"/>
      </g>
     </g>
     <g id="text_26">
      <!-- 20 -->
      <g style="fill:#262626;" transform="translate(937.732443 337.370391)scale(0.165 -0.165)">
       <use xlink:href="#ArialMT-50"/>
       <use x="55.615234" xlink:href="#ArialMT-48"/>
      </g>
     </g>
    </g>
    <g id="xtick_17">
     <g id="line2d_120">
      <g>
       <use style="fill:#262626;stroke:#262626;stroke-width:1.875;" x="1000.099587" xlink:href="#m01158dd818" y="313.06"/>
      </g>
     </g>
     <g id="text_27">
      <!-- 25 -->
      <g style="fill:#262626;" transform="translate(990.92404 337.370391)scale(0.165 -0.165)">
       <use xlink:href="#ArialMT-50"/>
       <use x="55.615234" xlink:href="#ArialMT-53"/>
      </g>
     </g>
    </g>
    <g id="xtick_18">
     <g id="line2d_121">
      <g>
       <use style="fill:#262626;stroke:#262626;stroke-width:1.875;" x="1053.291185" xlink:href="#m01158dd818" y="313.06"/>
      </g>
     </g>
     <g id="text_28">
      <!-- 30 -->
      <g style="fill:#262626;" transform="translate(1044.115638 337.370391)scale(0.165 -0.165)">
       <use xlink:href="#ArialMT-51"/>
       <use x="55.615234" xlink:href="#ArialMT-48"/>
      </g>
     </g>
    </g>
    <g id="text_29">
     <!-- EO : Na ratio -->
     <g style="fill:#262626;" transform="translate(862.97725 357.533828)scale(0.18 -0.18)">
      <use xlink:href="#ArialMT-69"/>
      <use x="66.699219" xlink:href="#ArialMT-79"/>
      <use x="144.482422" xlink:href="#ArialMT-32"/>
      <use x="172.265625" xlink:href="#ArialMT-58"/>
      <use x="200.048828" xlink:href="#ArialMT-32"/>
      <use x="227.832031" xlink:href="#ArialMT-78"/>
      <use x="300.048828" xlink:href="#ArialMT-97"/>
      <use x="355.664062" xlink:href="#ArialMT-32"/>
      <use x="383.447266" xlink:href="#ArialMT-114"/>
      <use x="416.748047" xlink:href="#ArialMT-97"/>
      <use x="472.363281" xlink:href="#ArialMT-116"/>
      <use x="500.146484" xlink:href="#ArialMT-105"/>
      <use x="522.363281" xlink:href="#ArialMT-111"/>
     </g>
    </g>
   </g>
   <g id="matplotlib.axis_6">
    <g id="ytick_91">
     <g id="line2d_122">
      <g>
       <use style="fill:#262626;stroke:#262626;stroke-width:1.875;" x="762.865063" xlink:href="#m2726e64844" y="264.204176"/>
      </g>
     </g>
    </g>
    <g id="ytick_92">
     <g id="line2d_123">
      <g>
       <use style="fill:#262626;stroke:#262626;stroke-width:1.875;" x="762.865063" xlink:href="#m2726e64844" y="211.614512"/>
      </g>
     </g>
    </g>
    <g id="ytick_93">
     <g id="line2d_124">
      <g>
       <use style="fill:#262626;stroke:#262626;stroke-width:1.875;" x="762.865063" xlink:href="#m2726e64844" y="159.024848"/>
      </g>
     </g>
    </g>
    <g id="ytick_94">
     <g id="line2d_125">
      <g>
       <use style="fill:#262626;stroke:#262626;stroke-width:1.875;" x="762.865063" xlink:href="#m2726e64844" y="106.435184"/>
      </g>
     </g>
    </g>
    <g id="ytick_95">
     <g id="line2d_126">
      <g>
       <use style="fill:#262626;stroke:#262626;stroke-width:1.875;" x="762.865063" xlink:href="#m2726e64844" y="53.84552"/>
      </g>
     </g>
    </g>
    <g id="ytick_96">
     <g id="line2d_127">
      <g>
       <use style="fill:#262626;stroke:#262626;stroke-width:1.5;" x="762.865063" xlink:href="#m27bc148700" y="300.962774"/>
      </g>
     </g>
    </g>
    <g id="ytick_97">
     <g id="line2d_128">
      <g>
       <use style="fill:#262626;stroke:#262626;stroke-width:1.5;" x="762.865063" xlink:href="#m27bc148700" y="291.702194"/>
      </g>
     </g>
    </g>
    <g id="ytick_98">
     <g id="line2d_129">
      <g>
       <use style="fill:#262626;stroke:#262626;stroke-width:1.5;" x="762.865063" xlink:href="#m27bc148700" y="285.131708"/>
      </g>
     </g>
    </g>
    <g id="ytick_99">
     <g id="line2d_130">
      <g>
       <use style="fill:#262626;stroke:#262626;stroke-width:1.5;" x="762.865063" xlink:href="#m27bc148700" y="280.035243"/>
      </g>
     </g>
    </g>
    <g id="ytick_100">
     <g id="line2d_131">
      <g>
       <use style="fill:#262626;stroke:#262626;stroke-width:1.5;" x="762.865063" xlink:href="#m27bc148700" y="275.871128"/>
      </g>
     </g>
    </g>
    <g id="ytick_101">
     <g id="line2d_132">
      <g>
       <use style="fill:#262626;stroke:#262626;stroke-width:1.5;" x="762.865063" xlink:href="#m27bc148700" y="272.350419"/>
      </g>
     </g>
    </g>
    <g id="ytick_102">
     <g id="line2d_133">
      <g>
       <use style="fill:#262626;stroke:#262626;stroke-width:1.5;" x="762.865063" xlink:href="#m27bc148700" y="269.300641"/>
      </g>
     </g>
    </g>
    <g id="ytick_103">
     <g id="line2d_134">
      <g>
       <use style="fill:#262626;stroke:#262626;stroke-width:1.5;" x="762.865063" xlink:href="#m27bc148700" y="266.610548"/>
      </g>
     </g>
    </g>
    <g id="ytick_104">
     <g id="line2d_135">
      <g>
       <use style="fill:#262626;stroke:#262626;stroke-width:1.5;" x="762.865063" xlink:href="#m27bc148700" y="248.37311"/>
      </g>
     </g>
    </g>
    <g id="ytick_105">
     <g id="line2d_136">
      <g>
       <use style="fill:#262626;stroke:#262626;stroke-width:1.5;" x="762.865063" xlink:href="#m27bc148700" y="239.11253"/>
      </g>
     </g>
    </g>
    <g id="ytick_106">
     <g id="line2d_137">
      <g>
       <use style="fill:#262626;stroke:#262626;stroke-width:1.5;" x="762.865063" xlink:href="#m27bc148700" y="232.542044"/>
      </g>
     </g>
    </g>
    <g id="ytick_107">
     <g id="line2d_138">
      <g>
       <use style="fill:#262626;stroke:#262626;stroke-width:1.5;" x="762.865063" xlink:href="#m27bc148700" y="227.445579"/>
      </g>
     </g>
    </g>
    <g id="ytick_108">
     <g id="line2d_139">
      <g>
       <use style="fill:#262626;stroke:#262626;stroke-width:1.5;" x="762.865063" xlink:href="#m27bc148700" y="223.281464"/>
      </g>
     </g>
    </g>
    <g id="ytick_109">
     <g id="line2d_140">
      <g>
       <use style="fill:#262626;stroke:#262626;stroke-width:1.5;" x="762.865063" xlink:href="#m27bc148700" y="219.760754"/>
      </g>
     </g>
    </g>
    <g id="ytick_110">
     <g id="line2d_141">
      <g>
       <use style="fill:#262626;stroke:#262626;stroke-width:1.5;" x="762.865063" xlink:href="#m27bc148700" y="216.710977"/>
      </g>
     </g>
    </g>
    <g id="ytick_111">
     <g id="line2d_142">
      <g>
       <use style="fill:#262626;stroke:#262626;stroke-width:1.5;" x="762.865063" xlink:href="#m27bc148700" y="214.020883"/>
      </g>
     </g>
    </g>
    <g id="ytick_112">
     <g id="line2d_143">
      <g>
       <use style="fill:#262626;stroke:#262626;stroke-width:1.5;" x="762.865063" xlink:href="#m27bc148700" y="195.783446"/>
      </g>
     </g>
    </g>
    <g id="ytick_113">
     <g id="line2d_144">
      <g>
       <use style="fill:#262626;stroke:#262626;stroke-width:1.5;" x="762.865063" xlink:href="#m27bc148700" y="186.522866"/>
      </g>
     </g>
    </g>
    <g id="ytick_114">
     <g id="line2d_145">
      <g>
       <use style="fill:#262626;stroke:#262626;stroke-width:1.5;" x="762.865063" xlink:href="#m27bc148700" y="179.952379"/>
      </g>
     </g>
    </g>
    <g id="ytick_115">
     <g id="line2d_146">
      <g>
       <use style="fill:#262626;stroke:#262626;stroke-width:1.5;" x="762.865063" xlink:href="#m27bc148700" y="174.855914"/>
      </g>
     </g>
    </g>
    <g id="ytick_116">
     <g id="line2d_147">
      <g>
       <use style="fill:#262626;stroke:#262626;stroke-width:1.5;" x="762.865063" xlink:href="#m27bc148700" y="170.691799"/>
      </g>
     </g>
    </g>
    <g id="ytick_117">
     <g id="line2d_148">
      <g>
       <use style="fill:#262626;stroke:#262626;stroke-width:1.5;" x="762.865063" xlink:href="#m27bc148700" y="167.17109"/>
      </g>
     </g>
    </g>
    <g id="ytick_118">
     <g id="line2d_149">
      <g>
       <use style="fill:#262626;stroke:#262626;stroke-width:1.5;" x="762.865063" xlink:href="#m27bc148700" y="164.121313"/>
      </g>
     </g>
    </g>
    <g id="ytick_119">
     <g id="line2d_150">
      <g>
       <use style="fill:#262626;stroke:#262626;stroke-width:1.5;" x="762.865063" xlink:href="#m27bc148700" y="161.431219"/>
      </g>
     </g>
    </g>
    <g id="ytick_120">
     <g id="line2d_151">
      <g>
       <use style="fill:#262626;stroke:#262626;stroke-width:1.5;" x="762.865063" xlink:href="#m27bc148700" y="143.193782"/>
      </g>
     </g>
    </g>
    <g id="ytick_121">
     <g id="line2d_152">
      <g>
       <use style="fill:#262626;stroke:#262626;stroke-width:1.5;" x="762.865063" xlink:href="#m27bc148700" y="133.933202"/>
      </g>
     </g>
    </g>
    <g id="ytick_122">
     <g id="line2d_153">
      <g>
       <use style="fill:#262626;stroke:#262626;stroke-width:1.5;" x="762.865063" xlink:href="#m27bc148700" y="127.362715"/>
      </g>
     </g>
    </g>
    <g id="ytick_123">
     <g id="line2d_154">
      <g>
       <use style="fill:#262626;stroke:#262626;stroke-width:1.5;" x="762.865063" xlink:href="#m27bc148700" y="122.26625"/>
      </g>
     </g>
    </g>
    <g id="ytick_124">
     <g id="line2d_155">
      <g>
       <use style="fill:#262626;stroke:#262626;stroke-width:1.5;" x="762.865063" xlink:href="#m27bc148700" y="118.102135"/>
      </g>
     </g>
    </g>
    <g id="ytick_125">
     <g id="line2d_156">
      <g>
       <use style="fill:#262626;stroke:#262626;stroke-width:1.5;" x="762.865063" xlink:href="#m27bc148700" y="114.581426"/>
      </g>
     </g>
    </g>
    <g id="ytick_126">
     <g id="line2d_157">
      <g>
       <use style="fill:#262626;stroke:#262626;stroke-width:1.5;" x="762.865063" xlink:href="#m27bc148700" y="111.531649"/>
      </g>
     </g>
    </g>
    <g id="ytick_127">
     <g id="line2d_158">
      <g>
       <use style="fill:#262626;stroke:#262626;stroke-width:1.5;" x="762.865063" xlink:href="#m27bc148700" y="108.841555"/>
      </g>
     </g>
    </g>
    <g id="ytick_128">
     <g id="line2d_159">
      <g>
       <use style="fill:#262626;stroke:#262626;stroke-width:1.5;" x="762.865063" xlink:href="#m27bc148700" y="90.604117"/>
      </g>
     </g>
    </g>
    <g id="ytick_129">
     <g id="line2d_160">
      <g>
       <use style="fill:#262626;stroke:#262626;stroke-width:1.5;" x="762.865063" xlink:href="#m27bc148700" y="81.343537"/>
      </g>
     </g>
    </g>
    <g id="ytick_130">
     <g id="line2d_161">
      <g>
       <use style="fill:#262626;stroke:#262626;stroke-width:1.5;" x="762.865063" xlink:href="#m27bc148700" y="74.773051"/>
      </g>
     </g>
    </g>
    <g id="ytick_131">
     <g id="line2d_162">
      <g>
       <use style="fill:#262626;stroke:#262626;stroke-width:1.5;" x="762.865063" xlink:href="#m27bc148700" y="69.676586"/>
      </g>
     </g>
    </g>
    <g id="ytick_132">
     <g id="line2d_163">
      <g>
       <use style="fill:#262626;stroke:#262626;stroke-width:1.5;" x="762.865063" xlink:href="#m27bc148700" y="65.512471"/>
      </g>
     </g>
    </g>
    <g id="ytick_133">
     <g id="line2d_164">
      <g>
       <use style="fill:#262626;stroke:#262626;stroke-width:1.5;" x="762.865063" xlink:href="#m27bc148700" y="61.991762"/>
      </g>
     </g>
    </g>
    <g id="ytick_134">
     <g id="line2d_165">
      <g>
       <use style="fill:#262626;stroke:#262626;stroke-width:1.5;" x="762.865063" xlink:href="#m27bc148700" y="58.941985"/>
      </g>
     </g>
    </g>
    <g id="ytick_135">
     <g id="line2d_166">
      <g>
       <use style="fill:#262626;stroke:#262626;stroke-width:1.5;" x="762.865063" xlink:href="#m27bc148700" y="56.251891"/>
      </g>
     </g>
    </g>
   </g>
   <g id="line2d_167">
    <path clip-path="url(#p5f597cc284)" d="M 797.971517 243.276645 
L 829.886475 161.431219 
L 946.90799 195.783446 
" style="fill:none;stroke:#4c72b0;stroke-dasharray:2.25,2.25;stroke-dashoffset:0;stroke-width:2.25;"/>
    <g clip-path="url(#p5f597cc284)">
     <use style="fill:#4c72b0;stroke:#ffffff;stroke-linejoin:miter;stroke-width:0.75;" x="797.971517" xlink:href="#m75ef345d60" y="243.276645"/>
     <use style="fill:#4c72b0;stroke:#ffffff;stroke-linejoin:miter;stroke-width:0.75;" x="829.886475" xlink:href="#m75ef345d60" y="161.431219"/>
     <use style="fill:#4c72b0;stroke:#ffffff;stroke-linejoin:miter;stroke-width:0.75;" x="946.90799" xlink:href="#m75ef345d60" y="195.783446"/>
    </g>
   </g>
   <g id="line2d_168">
    <path clip-path="url(#p5f597cc284)" d="M 797.971517 106.435184 
L 829.886475 93.653895 
L 946.90799 81.343537 
" style="fill:none;stroke:#dd8452;stroke-dasharray:2.25,2.25;stroke-dashoffset:0;stroke-width:2.25;"/>
    <g clip-path="url(#p5f597cc284)">
     <use style="fill:#dd8452;stroke:#ffffff;stroke-linejoin:miter;stroke-width:0.75;" x="797.971517" xlink:href="#mbdb22904f6" y="106.435184"/>
     <use style="fill:#dd8452;stroke:#ffffff;stroke-linejoin:miter;stroke-width:0.75;" x="829.886475" xlink:href="#mbdb22904f6" y="93.653895"/>
     <use style="fill:#dd8452;stroke:#ffffff;stroke-linejoin:miter;stroke-width:0.75;" x="946.90799" xlink:href="#mbdb22904f6" y="81.343537"/>
    </g>
   </g>
   <g id="patch_9">
    <path d="M 762.865063 313.06 
L 762.865063 39.44 
" style="fill:none;stroke:#262626;stroke-linecap:square;stroke-linejoin:miter;stroke-width:1.875;"/>
   </g>
   <g id="patch_10">
    <path d="M 762.865063 313.06 
L 1067.121 313.06 
" style="fill:none;stroke:#262626;stroke-linecap:square;stroke-linejoin:miter;stroke-width:1.875;"/>
   </g>
   <g id="text_30">
    <!-- Salt = NaFSI -->
    <g style="fill:#262626;" transform="translate(863.722563 33.44)scale(0.18 -0.18)">
     <use xlink:href="#ArialMT-83"/>
     <use x="66.699219" xlink:href="#ArialMT-97"/>
     <use x="122.314453" xlink:href="#ArialMT-108"/>
     <use x="144.53125" xlink:href="#ArialMT-116"/>
     <use x="172.314453" xlink:href="#ArialMT-32"/>
     <use x="200.097656" xlink:href="#ArialMT-61"/>
     <use x="258.496094" xlink:href="#ArialMT-32"/>
     <use x="286.279297" xlink:href="#ArialMT-78"/>
     <use x="358.496094" xlink:href="#ArialMT-97"/>
     <use x="414.111328" xlink:href="#ArialMT-70"/>
     <use x="475.195312" xlink:href="#ArialMT-83"/>
     <use x="541.894531" xlink:href="#ArialMT-73"/>
    </g>
   </g>
  </g>
  <g id="legend_1">
   <g id="text_31">
    <!-- Operating temperature -->
    <g style="fill:#262626;" transform="translate(1091.967187 102.288047)scale(0.18 -0.18)">
     <defs>
      <path d="M 6.59375 -19.875 
L 6.59375 51.859375 
L 14.59375 51.859375 
L 14.59375 45.125 
Q 17.4375 49.078125 21 51.046875 
Q 24.5625 53.03125 29.640625 53.03125 
Q 36.28125 53.03125 41.359375 49.609375 
Q 46.4375 46.1875 49.015625 39.953125 
Q 51.609375 33.734375 51.609375 26.3125 
Q 51.609375 18.359375 48.75 11.984375 
Q 45.90625 5.609375 40.453125 2.21875 
Q 35.015625 -1.171875 29 -1.171875 
Q 24.609375 -1.171875 21.109375 0.6875 
Q 17.625 2.546875 15.375 5.375 
L 15.375 -19.875 
z
M 14.546875 25.640625 
Q 14.546875 15.625 18.59375 10.84375 
Q 22.65625 6.0625 28.421875 6.0625 
Q 34.28125 6.0625 38.453125 11.015625 
Q 42.625 15.96875 42.625 26.375 
Q 42.625 36.28125 38.546875 41.203125 
Q 34.46875 46.140625 28.8125 46.140625 
Q 23.1875 46.140625 18.859375 40.890625 
Q 14.546875 35.640625 14.546875 25.640625 
z
" id="ArialMT-112"/>
      <path d="M 42.09375 16.703125 
L 51.171875 15.578125 
Q 49.03125 7.625 43.21875 3.21875 
Q 37.40625 -1.171875 28.375 -1.171875 
Q 17 -1.171875 10.328125 5.828125 
Q 3.65625 12.84375 3.65625 25.484375 
Q 3.65625 38.578125 10.390625 45.796875 
Q 17.140625 53.03125 27.875 53.03125 
Q 38.28125 53.03125 44.875 45.953125 
Q 51.46875 38.875 51.46875 26.03125 
Q 51.46875 25.25 51.421875 23.6875 
L 12.75 23.6875 
Q 13.234375 15.140625 17.578125 10.59375 
Q 21.921875 6.0625 28.421875 6.0625 
Q 33.25 6.0625 36.671875 8.59375 
Q 40.09375 11.140625 42.09375 16.703125 
z
M 13.234375 30.90625 
L 42.1875 30.90625 
Q 41.609375 37.453125 38.875 40.71875 
Q 34.671875 45.796875 27.984375 45.796875 
Q 21.921875 45.796875 17.796875 41.75 
Q 13.671875 37.703125 13.234375 30.90625 
z
" id="ArialMT-101"/>
      <path d="M 4.984375 -4.296875 
L 13.53125 -5.5625 
Q 14.0625 -9.515625 16.5 -11.328125 
Q 19.78125 -13.765625 25.4375 -13.765625 
Q 31.546875 -13.765625 34.859375 -11.328125 
Q 38.1875 -8.890625 39.359375 -4.5 
Q 40.046875 -1.8125 39.984375 6.78125 
Q 34.234375 0 25.640625 0 
Q 14.9375 0 9.078125 7.71875 
Q 3.21875 15.4375 3.21875 26.21875 
Q 3.21875 33.640625 5.90625 39.90625 
Q 8.59375 46.1875 13.6875 49.609375 
Q 18.796875 53.03125 25.6875 53.03125 
Q 34.859375 53.03125 40.828125 45.609375 
L 40.828125 51.859375 
L 48.921875 51.859375 
L 48.921875 7.03125 
Q 48.921875 -5.078125 46.453125 -10.125 
Q 44 -15.1875 38.640625 -18.109375 
Q 33.296875 -21.046875 25.484375 -21.046875 
Q 16.21875 -21.046875 10.5 -16.875 
Q 4.78125 -12.703125 4.984375 -4.296875 
z
M 12.25 26.859375 
Q 12.25 16.65625 16.296875 11.96875 
Q 20.359375 7.28125 26.46875 7.28125 
Q 32.515625 7.28125 36.609375 11.9375 
Q 40.71875 16.609375 40.71875 26.5625 
Q 40.71875 36.078125 36.5 40.90625 
Q 32.28125 45.75 26.3125 45.75 
Q 20.453125 45.75 16.34375 40.984375 
Q 12.25 36.234375 12.25 26.859375 
z
" id="ArialMT-103"/>
     </defs>
     <use xlink:href="#ArialMT-79"/>
     <use x="77.783203" xlink:href="#ArialMT-112"/>
     <use x="133.398438" xlink:href="#ArialMT-101"/>
     <use x="189.013672" xlink:href="#ArialMT-114"/>
     <use x="222.314453" xlink:href="#ArialMT-97"/>
     <use x="277.929688" xlink:href="#ArialMT-116"/>
     <use x="305.712891" xlink:href="#ArialMT-105"/>
     <use x="327.929688" xlink:href="#ArialMT-110"/>
     <use x="383.544922" xlink:href="#ArialMT-103"/>
     <use x="439.160156" xlink:href="#ArialMT-32"/>
     <use x="466.943359" xlink:href="#ArialMT-116"/>
     <use x="494.726562" xlink:href="#ArialMT-101"/>
     <use x="550.341797" xlink:href="#ArialMT-109"/>
     <use x="633.642578" xlink:href="#ArialMT-112"/>
     <use x="689.257812" xlink:href="#ArialMT-101"/>
     <use x="744.873047" xlink:href="#ArialMT-114"/>
     <use x="778.173828" xlink:href="#ArialMT-97"/>
     <use x="833.789062" xlink:href="#ArialMT-116"/>
     <use x="861.572266" xlink:href="#ArialMT-117"/>
     <use x="917.1875" xlink:href="#ArialMT-114"/>
     <use x="950.488281" xlink:href="#ArialMT-101"/>
    </g>
   </g>
   <g id="line2d_169">
    <path d="M 1078.767187 120.361875 
L 1111.767187 120.361875 
" style="fill:none;stroke:#4c72b0;stroke-linecap:round;stroke-width:2.25;"/>
   </g>
   <g id="line2d_170"/>
   <g id="text_32">
    <!-- 20-30$\degree$C -->
    <g style="fill:#262626;" transform="translate(1124.967187 126.136875)scale(0.165 -0.165)">
     <defs>
      <path d="M 3.171875 21.484375 
L 3.171875 30.328125 
L 30.171875 30.328125 
L 30.171875 21.484375 
z
" id="ArialMT-45"/>
      <path d="M 25 67.921875 
Q 21.09375 67.921875 18.40625 65.203125 
Q 15.71875 62.5 15.71875 58.59375 
Q 15.71875 54.734375 18.40625 52.078125 
Q 21.09375 49.421875 25 49.421875 
Q 28.90625 49.421875 31.59375 52.078125 
Q 34.28125 54.734375 34.28125 58.59375 
Q 34.28125 62.453125 31.5625 65.1875 
Q 28.859375 67.921875 25 67.921875 
z
M 25 74.21875 
Q 28.125 74.21875 31 73.015625 
Q 33.890625 71.828125 35.984375 69.578125 
Q 38.234375 67.390625 39.359375 64.59375 
Q 40.484375 61.8125 40.484375 58.59375 
Q 40.484375 52.15625 35.96875 47.6875 
Q 31.453125 43.21875 24.90625 43.21875 
Q 18.3125 43.21875 13.90625 47.609375 
Q 9.515625 52 9.515625 58.59375 
Q 9.515625 65.140625 14 69.671875 
Q 18.5 74.21875 25 74.21875 
z
" id="DejaVuSans-176"/>
     </defs>
     <use transform="translate(0 0.78125)" xlink:href="#ArialMT-50"/>
     <use transform="translate(55.615234 0.78125)" xlink:href="#ArialMT-48"/>
     <use transform="translate(111.230469 0.78125)" xlink:href="#ArialMT-45"/>
     <use transform="translate(144.53125 0.78125)" xlink:href="#ArialMT-51"/>
     <use transform="translate(200.146484 0.78125)" xlink:href="#ArialMT-48"/>
     <use transform="translate(255.761719 0.78125)" xlink:href="#DejaVuSans-176"/>
     <use transform="translate(305.761719 0.78125)" xlink:href="#ArialMT-67"/>
    </g>
   </g>
   <g id="line2d_171">
    <path d="M 1078.767187 143.701641 
L 1111.767187 143.701641 
" style="fill:none;stroke:#dd8452;stroke-linecap:round;stroke-width:2.25;"/>
   </g>
   <g id="line2d_172"/>
   <g id="text_33">
    <!-- 75-85$\degree$C -->
    <g style="fill:#262626;" transform="translate(1124.967187 149.476641)scale(0.165 -0.165)">
     <defs>
      <path d="M 17.671875 38.8125 
Q 12.203125 40.828125 9.5625 44.53125 
Q 6.9375 48.25 6.9375 53.421875 
Q 6.9375 61.234375 12.546875 66.546875 
Q 18.171875 71.875 27.484375 71.875 
Q 36.859375 71.875 42.578125 66.421875 
Q 48.296875 60.984375 48.296875 53.171875 
Q 48.296875 48.1875 45.671875 44.5 
Q 43.0625 40.828125 37.75 38.8125 
Q 44.34375 36.671875 47.78125 31.875 
Q 51.21875 27.09375 51.21875 20.453125 
Q 51.21875 11.28125 44.71875 5.03125 
Q 38.234375 -1.21875 27.640625 -1.21875 
Q 17.046875 -1.21875 10.546875 5.046875 
Q 4.046875 11.328125 4.046875 20.703125 
Q 4.046875 27.6875 7.59375 32.390625 
Q 11.140625 37.109375 17.671875 38.8125 
z
M 15.921875 53.71875 
Q 15.921875 48.640625 19.1875 45.40625 
Q 22.46875 42.1875 27.6875 42.1875 
Q 32.765625 42.1875 36.015625 45.375 
Q 39.265625 48.578125 39.265625 53.21875 
Q 39.265625 58.0625 35.90625 61.359375 
Q 32.5625 64.65625 27.59375 64.65625 
Q 22.5625 64.65625 19.234375 61.421875 
Q 15.921875 58.203125 15.921875 53.71875 
z
M 13.09375 20.65625 
Q 13.09375 16.890625 14.875 13.375 
Q 16.65625 9.859375 20.171875 7.921875 
Q 23.6875 6 27.734375 6 
Q 34.03125 6 38.125 10.046875 
Q 42.234375 14.109375 42.234375 20.359375 
Q 42.234375 26.703125 38.015625 30.859375 
Q 33.796875 35.015625 27.4375 35.015625 
Q 21.234375 35.015625 17.15625 30.90625 
Q 13.09375 26.8125 13.09375 20.65625 
z
" id="ArialMT-56"/>
     </defs>
     <use transform="translate(0 0.78125)" xlink:href="#ArialMT-55"/>
     <use transform="translate(55.615234 0.78125)" xlink:href="#ArialMT-53"/>
     <use transform="translate(111.230469 0.78125)" xlink:href="#ArialMT-45"/>
     <use transform="translate(144.53125 0.78125)" xlink:href="#ArialMT-56"/>
     <use transform="translate(200.146484 0.78125)" xlink:href="#ArialMT-53"/>
     <use transform="translate(255.761719 0.78125)" xlink:href="#DejaVuSans-176"/>
     <use transform="translate(305.761719 0.78125)" xlink:href="#ArialMT-67"/>
    </g>
   </g>
   <g id="text_34">
    <!-- Reference -->
    <g style="fill:#262626;" transform="translate(1091.967187 173.890078)scale(0.18 -0.18)">
     <defs>
      <path d="M 7.859375 0 
L 7.859375 71.578125 
L 39.59375 71.578125 
Q 49.171875 71.578125 54.140625 69.640625 
Q 59.125 67.71875 62.109375 62.828125 
Q 65.09375 57.953125 65.09375 52.046875 
Q 65.09375 44.4375 60.15625 39.203125 
Q 55.21875 33.984375 44.921875 32.5625 
Q 48.6875 30.765625 50.640625 29 
Q 54.78125 25.203125 58.5 19.484375 
L 70.953125 0 
L 59.03125 0 
L 49.5625 14.890625 
Q 45.40625 21.34375 42.71875 24.75 
Q 40.046875 28.171875 37.921875 29.53125 
Q 35.796875 30.90625 33.59375 31.453125 
Q 31.984375 31.78125 28.328125 31.78125 
L 17.328125 31.78125 
L 17.328125 0 
z
M 17.328125 39.984375 
L 37.703125 39.984375 
Q 44.1875 39.984375 47.84375 41.328125 
Q 51.515625 42.671875 53.421875 45.625 
Q 55.328125 48.578125 55.328125 52.046875 
Q 55.328125 57.125 51.640625 60.390625 
Q 47.953125 63.671875 39.984375 63.671875 
L 17.328125 63.671875 
z
" id="ArialMT-82"/>
      <path d="M 8.6875 0 
L 8.6875 45.015625 
L 0.921875 45.015625 
L 0.921875 51.859375 
L 8.6875 51.859375 
L 8.6875 57.375 
Q 8.6875 62.59375 9.625 65.140625 
Q 10.890625 68.5625 14.078125 70.671875 
Q 17.28125 72.796875 23.046875 72.796875 
Q 26.765625 72.796875 31.25 71.921875 
L 29.9375 64.265625 
Q 27.203125 64.75 24.75 64.75 
Q 20.75 64.75 19.09375 63.03125 
Q 17.4375 61.328125 17.4375 56.640625 
L 17.4375 51.859375 
L 27.546875 51.859375 
L 27.546875 45.015625 
L 17.4375 45.015625 
L 17.4375 0 
z
" id="ArialMT-102"/>
     </defs>
     <use xlink:href="#ArialMT-82"/>
     <use x="72.216797" xlink:href="#ArialMT-101"/>
     <use x="127.832031" xlink:href="#ArialMT-102"/>
     <use x="155.615234" xlink:href="#ArialMT-101"/>
     <use x="211.230469" xlink:href="#ArialMT-114"/>
     <use x="244.53125" xlink:href="#ArialMT-101"/>
     <use x="300.146484" xlink:href="#ArialMT-110"/>
     <use x="355.761719" xlink:href="#ArialMT-99"/>
     <use x="405.761719" xlink:href="#ArialMT-101"/>
    </g>
   </g>
   <g id="line2d_173">
    <path d="M 1078.767187 191.752969 
L 1111.767187 191.752969 
" style="fill:none;stroke:#333333;stroke-linecap:round;stroke-width:2.25;"/>
   </g>
   <g id="line2d_174">
    <defs>
     <path d="M 0 4.5 
C 1.193414 4.5 2.338109 4.025852 3.181981 3.181981 
C 4.025852 2.338109 4.5 1.193414 4.5 0 
C 4.5 -1.193414 4.025852 -2.338109 3.181981 -3.181981 
C 2.338109 -4.025852 1.193414 -4.5 0 -4.5 
C -1.193414 -4.5 -2.338109 -4.025852 -3.181981 -3.181981 
C -4.025852 -2.338109 -4.5 -1.193414 -4.5 0 
C -4.5 1.193414 -4.025852 2.338109 -3.181981 3.181981 
C -2.338109 4.025852 -1.193414 4.5 0 4.5 
z
" id="m27082bb932" style="stroke:#333333;"/>
    </defs>
    <g>
     <use style="fill:#333333;stroke:#333333;" x="1095.267187" xlink:href="#m27082bb932" y="191.752969"/>
    </g>
   </g>
   <g id="text_35">
    <!-- 35d -->
    <g style="fill:#262626;" transform="translate(1124.967187 197.527969)scale(0.165 -0.165)">
     <use xlink:href="#ArialMT-51"/>
     <use x="55.615234" xlink:href="#ArialMT-53"/>
     <use x="111.230469" xlink:href="#ArialMT-100"/>
    </g>
   </g>
   <g id="line2d_175">
    <path d="M 1078.767187 215.092734 
L 1111.767187 215.092734 
" style="fill:none;stroke:#333333;stroke-dasharray:9,3.375;stroke-dashoffset:0;stroke-width:2.25;"/>
   </g>
   <g id="line2d_176">
    <defs>
     <path d="M -2.25 4.5 
L 0 2.25 
L 2.25 4.5 
L 4.5 2.25 
L 2.25 0 
L 4.5 -2.25 
L 2.25 -4.5 
L 0 -2.25 
L -2.25 -4.5 
L -4.5 -2.25 
L -2.25 0 
L -4.5 2.25 
z
" id="m6627509fd0" style="stroke:#333333;stroke-linejoin:miter;"/>
    </defs>
    <g>
     <use style="fill:#333333;stroke:#333333;stroke-linejoin:miter;" x="1095.267187" xlink:href="#m6627509fd0" y="215.092734"/>
    </g>
   </g>
   <g id="text_36">
    <!-- 49b -->
    <g style="fill:#262626;" transform="translate(1124.967187 220.867734)scale(0.165 -0.165)">
     <defs>
      <path d="M 5.46875 16.546875 
L 13.921875 17.328125 
Q 14.984375 11.375 18.015625 8.6875 
Q 21.046875 6 25.78125 6 
Q 29.828125 6 32.875 7.859375 
Q 35.9375 9.71875 37.890625 12.8125 
Q 39.84375 15.921875 41.15625 21.1875 
Q 42.484375 26.46875 42.484375 31.9375 
Q 42.484375 32.515625 42.4375 33.6875 
Q 39.796875 29.5 35.234375 26.875 
Q 30.671875 24.265625 25.34375 24.265625 
Q 16.453125 24.265625 10.296875 30.703125 
Q 4.15625 37.15625 4.15625 47.703125 
Q 4.15625 58.59375 10.578125 65.234375 
Q 17 71.875 26.65625 71.875 
Q 33.640625 71.875 39.421875 68.109375 
Q 45.21875 64.359375 48.21875 57.390625 
Q 51.21875 50.4375 51.21875 37.25 
Q 51.21875 23.53125 48.234375 15.40625 
Q 45.265625 7.28125 39.375 3.03125 
Q 33.5 -1.21875 25.59375 -1.21875 
Q 17.1875 -1.21875 11.859375 3.4375 
Q 6.546875 8.109375 5.46875 16.546875 
z
M 41.453125 48.140625 
Q 41.453125 55.71875 37.421875 60.15625 
Q 33.40625 64.59375 27.734375 64.59375 
Q 21.875 64.59375 17.53125 59.8125 
Q 13.1875 55.03125 13.1875 47.40625 
Q 13.1875 40.578125 17.3125 36.296875 
Q 21.4375 32.03125 27.484375 32.03125 
Q 33.59375 32.03125 37.515625 36.296875 
Q 41.453125 40.578125 41.453125 48.140625 
z
" id="ArialMT-57"/>
      <path d="M 14.703125 0 
L 6.546875 0 
L 6.546875 71.578125 
L 15.328125 71.578125 
L 15.328125 46.046875 
Q 20.90625 53.03125 29.546875 53.03125 
Q 34.328125 53.03125 38.59375 51.09375 
Q 42.875 49.171875 45.625 45.671875 
Q 48.390625 42.1875 49.953125 37.25 
Q 51.515625 32.328125 51.515625 26.703125 
Q 51.515625 13.375 44.921875 6.09375 
Q 38.328125 -1.171875 29.109375 -1.171875 
Q 19.921875 -1.171875 14.703125 6.5 
z
M 14.59375 26.3125 
Q 14.59375 17 17.140625 12.84375 
Q 21.296875 6.0625 28.375 6.0625 
Q 34.125 6.0625 38.328125 11.0625 
Q 42.53125 16.0625 42.53125 25.984375 
Q 42.53125 36.140625 38.5 40.96875 
Q 34.46875 45.796875 28.765625 45.796875 
Q 23 45.796875 18.796875 40.796875 
Q 14.59375 35.796875 14.59375 26.3125 
z
" id="ArialMT-98"/>
     </defs>
     <use xlink:href="#ArialMT-52"/>
     <use x="55.615234" xlink:href="#ArialMT-57"/>
     <use x="111.230469" xlink:href="#ArialMT-98"/>
    </g>
   </g>
   <g id="line2d_177">
    <path d="M 1078.767187 238.4325 
L 1111.767187 238.4325 
" style="fill:none;stroke:#333333;stroke-dasharray:2.25,2.25;stroke-dashoffset:0;stroke-width:2.25;"/>
   </g>
   <g id="line2d_178">
    <defs>
     <path d="M -3.181981 -3.181981 
L -3.181981 3.181981 
L 3.181981 3.181981 
L 3.181981 -3.181981 
z
" id="m9caa63f3e1" style="stroke:#333333;stroke-linejoin:miter;"/>
    </defs>
    <g>
     <use style="fill:#333333;stroke:#333333;stroke-linejoin:miter;" x="1095.267187" xlink:href="#m9caa63f3e1" y="238.4325"/>
    </g>
   </g>
   <g id="text_37">
    <!-- 49a -->
    <g style="fill:#262626;" transform="translate(1124.967187 244.2075)scale(0.165 -0.165)">
     <use xlink:href="#ArialMT-52"/>
     <use x="55.615234" xlink:href="#ArialMT-57"/>
     <use x="111.230469" xlink:href="#ArialMT-97"/>
    </g>
   </g>
   <g id="line2d_179">
    <path d="M 1078.767187 261.772266 
L 1111.767187 261.772266 
" style="fill:none;stroke:#333333;stroke-dasharray:6.75,2.8125,3.375,2.8125;stroke-dashoffset:0;stroke-width:2.25;"/>
   </g>
   <g id="line2d_180">
    <defs>
     <path d="M -1.5 4.5 
L 1.5 4.5 
L 1.5 1.5 
L 4.5 1.5 
L 4.5 -1.5 
L 1.5 -1.5 
L 1.5 -4.5 
L -1.5 -4.5 
L -1.5 -1.5 
L -4.5 -1.5 
L -4.5 1.5 
L -1.5 1.5 
z
" id="m4059253c7d" style="stroke:#333333;stroke-linejoin:miter;"/>
    </defs>
    <g>
     <use style="fill:#333333;stroke:#333333;stroke-linejoin:miter;" x="1095.267187" xlink:href="#m4059253c7d" y="261.772266"/>
    </g>
   </g>
   <g id="text_38">
    <!-- 49e -->
    <g style="fill:#262626;" transform="translate(1124.967187 267.547266)scale(0.165 -0.165)">
     <use xlink:href="#ArialMT-52"/>
     <use x="55.615234" xlink:href="#ArialMT-57"/>
     <use x="111.230469" xlink:href="#ArialMT-101"/>
    </g>
   </g>
  </g>
 </g>
 <defs>
  <clipPath id="p717bee7939">
   <rect height="273.62" width="304.255937" x="98.011575" y="39.44"/>
  </clipPath>
  <clipPath id="pdd948a656d">
   <rect height="273.62" width="304.255937" x="430.438319" y="39.44"/>
  </clipPath>
  <clipPath id="p5f597cc284">
   <rect height="273.62" width="304.255937" x="762.865063" y="39.44"/>
  </clipPath>
 </defs>
</svg>
