<?xml version="1.0" encoding="utf-8" standalone="no"?>
<!DOCTYPE svg PUBLIC "-//W3C//DTD SVG 1.1//EN"
  "http://www.w3.org/Graphics/SVG/1.1/DTD/svg11.dtd">
<!-- Created with matplotlib (https://matplotlib.org/) -->
<svg height="360pt" version="1.1" viewBox="0 0 921.9 360" width="921.9pt" xmlns="http://www.w3.org/2000/svg" xmlns:xlink="http://www.w3.org/1999/xlink">
 <defs>
  <style type="text/css">
*{stroke-linecap:butt;stroke-linejoin:round;}
  </style>
 </defs>
 <g id="figure_1">
  <g id="patch_1">
   <path d="M 0 360 
L 921.9 360 
L 921.9 0 
L 0 0 
z
" style="fill:#ffffff;"/>
  </g>
  <g id="axes_1">
   <g id="patch_2">
    <path d="M 144.930363 290.794375 
L 414.156657 290.794375 
L 414.156657 41.44 
L 144.930363 41.44 
z
" style="fill:#ffffff;"/>
   </g>
   <g id="matplotlib.axis_1">
    <g id="xtick_1">
     <g id="line2d_1">
      <defs>
       <path d="M 0 0 
L 0 9 
" id="m413175d372" style="stroke:#262626;stroke-width:1.875;"/>
      </defs>
      <g>
       <use style="fill:#262626;stroke:#262626;stroke-width:1.875;" x="205.759693" xlink:href="#m413175d372" y="290.794375"/>
      </g>
     </g>
     <g id="text_1">
      <!-- −40 -->
      <defs>
       <path d="M 52.828125 31.203125 
L 5.5625 31.203125 
L 5.5625 39.40625 
L 52.828125 39.40625 
z
" id="ArialMT-8722"/>
       <path d="M 32.328125 0 
L 32.328125 17.140625 
L 1.265625 17.140625 
L 1.265625 25.203125 
L 33.9375 71.578125 
L 41.109375 71.578125 
L 41.109375 25.203125 
L 50.78125 25.203125 
L 50.78125 17.140625 
L 41.109375 17.140625 
L 41.109375 0 
z
M 32.328125 25.203125 
L 32.328125 57.46875 
L 9.90625 25.203125 
z
" id="ArialMT-52"/>
       <path d="M 4.15625 35.296875 
Q 4.15625 48 6.765625 55.734375 
Q 9.375 63.484375 14.515625 67.671875 
Q 19.671875 71.875 27.484375 71.875 
Q 33.25 71.875 37.59375 69.546875 
Q 41.9375 67.234375 44.765625 62.859375 
Q 47.609375 58.5 49.21875 52.21875 
Q 50.828125 45.953125 50.828125 35.296875 
Q 50.828125 22.703125 48.234375 14.96875 
Q 45.65625 7.234375 40.5 3 
Q 35.359375 -1.21875 27.484375 -1.21875 
Q 17.140625 -1.21875 11.234375 6.203125 
Q 4.15625 15.140625 4.15625 35.296875 
z
M 13.1875 35.296875 
Q 13.1875 17.671875 17.3125 11.828125 
Q 21.4375 6 27.484375 6 
Q 33.546875 6 37.671875 11.859375 
Q 41.796875 17.71875 41.796875 35.296875 
Q 41.796875 52.984375 37.671875 58.78125 
Q 33.546875 64.59375 27.390625 64.59375 
Q 21.34375 64.59375 17.71875 59.46875 
Q 13.1875 52.9375 13.1875 35.296875 
z
" id="ArialMT-48"/>
      </defs>
      <g style="fill:#262626;" transform="translate(191.76563 315.104766)scale(0.165 -0.165)">
       <use xlink:href="#ArialMT-8722"/>
       <use x="58.398438" xlink:href="#ArialMT-52"/>
       <use x="114.013672" xlink:href="#ArialMT-48"/>
      </g>
     </g>
    </g>
    <g id="xtick_2">
     <g id="line2d_2">
      <g>
       <use style="fill:#262626;stroke:#262626;stroke-width:1.875;" x="285.418334" xlink:href="#m413175d372" y="290.794375"/>
      </g>
     </g>
     <g id="text_2">
      <!-- −20 -->
      <defs>
       <path d="M 50.34375 8.453125 
L 50.34375 0 
L 3.03125 0 
Q 2.9375 3.171875 4.046875 6.109375 
Q 5.859375 10.9375 9.828125 15.625 
Q 13.8125 20.3125 21.34375 26.46875 
Q 33.015625 36.03125 37.109375 41.625 
Q 41.21875 47.21875 41.21875 52.203125 
Q 41.21875 57.421875 37.46875 61 
Q 33.734375 64.59375 27.734375 64.59375 
Q 21.390625 64.59375 17.578125 60.78125 
Q 13.765625 56.984375 13.71875 50.25 
L 4.6875 51.171875 
Q 5.609375 61.28125 11.65625 66.578125 
Q 17.71875 71.875 27.9375 71.875 
Q 38.234375 71.875 44.234375 66.15625 
Q 50.25 60.453125 50.25 52 
Q 50.25 47.703125 48.484375 43.546875 
Q 46.734375 39.40625 42.65625 34.8125 
Q 38.578125 30.21875 29.109375 22.21875 
Q 21.1875 15.578125 18.9375 13.203125 
Q 16.703125 10.84375 15.234375 8.453125 
z
" id="ArialMT-50"/>
      </defs>
      <g style="fill:#262626;" transform="translate(271.424272 315.104766)scale(0.165 -0.165)">
       <use xlink:href="#ArialMT-8722"/>
       <use x="58.398438" xlink:href="#ArialMT-50"/>
       <use x="114.013672" xlink:href="#ArialMT-48"/>
      </g>
     </g>
    </g>
    <g id="xtick_3">
     <g id="line2d_3">
      <g>
       <use style="fill:#262626;stroke:#262626;stroke-width:1.875;" x="365.076976" xlink:href="#m413175d372" y="290.794375"/>
      </g>
     </g>
     <g id="text_3">
      <!-- 0 -->
      <g style="fill:#262626;" transform="translate(360.489203 315.104766)scale(0.165 -0.165)">
       <use xlink:href="#ArialMT-48"/>
      </g>
     </g>
    </g>
    <g id="text_4">
     <!-- Glass transition temperature ($\degree$C) -->
     <defs>
      <path d="M 41.21875 28.078125 
L 41.21875 36.46875 
L 71.53125 36.53125 
L 71.53125 9.96875 
Q 64.546875 4.390625 57.125 1.578125 
Q 49.703125 -1.21875 41.890625 -1.21875 
Q 31.34375 -1.21875 22.71875 3.296875 
Q 14.109375 7.8125 9.71875 16.359375 
Q 5.328125 24.90625 5.328125 35.453125 
Q 5.328125 45.90625 9.6875 54.953125 
Q 14.0625 64.015625 22.265625 68.40625 
Q 30.46875 72.796875 41.15625 72.796875 
Q 48.921875 72.796875 55.1875 70.28125 
Q 61.46875 67.78125 65.03125 63.28125 
Q 68.609375 58.796875 70.453125 51.5625 
L 61.921875 49.21875 
Q 60.296875 54.6875 57.90625 57.8125 
Q 55.515625 60.9375 51.0625 62.8125 
Q 46.625 64.703125 41.21875 64.703125 
Q 34.71875 64.703125 29.984375 62.71875 
Q 25.25 60.75 22.34375 57.515625 
Q 19.4375 54.296875 17.828125 50.4375 
Q 15.09375 43.796875 15.09375 36.03125 
Q 15.09375 26.46875 18.390625 20.015625 
Q 21.6875 13.578125 27.984375 10.453125 
Q 34.28125 7.328125 41.359375 7.328125 
Q 47.515625 7.328125 53.375 9.6875 
Q 59.234375 12.0625 62.25 14.75 
L 62.25 28.078125 
z
" id="ArialMT-71"/>
      <path d="M 6.390625 0 
L 6.390625 71.578125 
L 15.1875 71.578125 
L 15.1875 0 
z
" id="ArialMT-108"/>
      <path d="M 40.4375 6.390625 
Q 35.546875 2.25 31.03125 0.53125 
Q 26.515625 -1.171875 21.34375 -1.171875 
Q 12.796875 -1.171875 8.203125 3 
Q 3.609375 7.171875 3.609375 13.671875 
Q 3.609375 17.484375 5.34375 20.625 
Q 7.078125 23.78125 9.890625 25.6875 
Q 12.703125 27.59375 16.21875 28.5625 
Q 18.796875 29.25 24.03125 29.890625 
Q 34.671875 31.15625 39.703125 32.90625 
Q 39.75 34.71875 39.75 35.203125 
Q 39.75 40.578125 37.25 42.78125 
Q 33.890625 45.75 27.25 45.75 
Q 21.046875 45.75 18.09375 43.578125 
Q 15.140625 41.40625 13.71875 35.890625 
L 5.125 37.0625 
Q 6.296875 42.578125 8.984375 45.96875 
Q 11.671875 49.359375 16.75 51.1875 
Q 21.828125 53.03125 28.515625 53.03125 
Q 35.15625 53.03125 39.296875 51.46875 
Q 43.453125 49.90625 45.40625 47.53125 
Q 47.359375 45.171875 48.140625 41.546875 
Q 48.578125 39.3125 48.578125 33.453125 
L 48.578125 21.734375 
Q 48.578125 9.46875 49.140625 6.21875 
Q 49.703125 2.984375 51.375 0 
L 42.1875 0 
Q 40.828125 2.734375 40.4375 6.390625 
z
M 39.703125 26.03125 
Q 34.90625 24.078125 25.34375 22.703125 
Q 19.921875 21.921875 17.671875 20.9375 
Q 15.4375 19.96875 14.203125 18.09375 
Q 12.984375 16.21875 12.984375 13.921875 
Q 12.984375 10.40625 15.640625 8.0625 
Q 18.3125 5.71875 23.4375 5.71875 
Q 28.515625 5.71875 32.46875 7.9375 
Q 36.421875 10.15625 38.28125 14.015625 
Q 39.703125 17 39.703125 22.796875 
z
" id="ArialMT-97"/>
      <path d="M 3.078125 15.484375 
L 11.765625 16.84375 
Q 12.5 11.625 15.84375 8.84375 
Q 19.1875 6.0625 25.203125 6.0625 
Q 31.25 6.0625 34.171875 8.515625 
Q 37.109375 10.984375 37.109375 14.3125 
Q 37.109375 17.28125 34.515625 19 
Q 32.71875 20.171875 25.53125 21.96875 
Q 15.875 24.421875 12.140625 26.203125 
Q 8.40625 27.984375 6.46875 31.125 
Q 4.546875 34.28125 4.546875 38.09375 
Q 4.546875 41.546875 6.125 44.5 
Q 7.71875 47.46875 10.453125 49.421875 
Q 12.5 50.921875 16.03125 51.96875 
Q 19.578125 53.03125 23.640625 53.03125 
Q 29.734375 53.03125 34.34375 51.265625 
Q 38.96875 49.515625 41.15625 46.5 
Q 43.359375 43.5 44.1875 38.484375 
L 35.59375 37.3125 
Q 35.015625 41.3125 32.203125 43.546875 
Q 29.390625 45.796875 24.265625 45.796875 
Q 18.21875 45.796875 15.625 43.796875 
Q 13.03125 41.796875 13.03125 39.109375 
Q 13.03125 37.40625 14.109375 36.03125 
Q 15.1875 34.625 17.484375 33.6875 
Q 18.796875 33.203125 25.25 31.453125 
Q 34.578125 28.953125 38.25 27.359375 
Q 41.9375 25.78125 44.03125 22.75 
Q 46.140625 19.734375 46.140625 15.234375 
Q 46.140625 10.84375 43.578125 6.953125 
Q 41.015625 3.078125 36.171875 0.953125 
Q 31.34375 -1.171875 25.25 -1.171875 
Q 15.140625 -1.171875 9.84375 3.03125 
Q 4.546875 7.234375 3.078125 15.484375 
z
" id="ArialMT-115"/>
      <path id="ArialMT-32"/>
      <path d="M 25.78125 7.859375 
L 27.046875 0.09375 
Q 23.34375 -0.6875 20.40625 -0.6875 
Q 15.625 -0.6875 12.984375 0.828125 
Q 10.359375 2.34375 9.28125 4.8125 
Q 8.203125 7.28125 8.203125 15.1875 
L 8.203125 45.015625 
L 1.765625 45.015625 
L 1.765625 51.859375 
L 8.203125 51.859375 
L 8.203125 64.703125 
L 16.9375 69.96875 
L 16.9375 51.859375 
L 25.78125 51.859375 
L 25.78125 45.015625 
L 16.9375 45.015625 
L 16.9375 14.703125 
Q 16.9375 10.9375 17.40625 9.859375 
Q 17.875 8.796875 18.921875 8.15625 
Q 19.96875 7.515625 21.921875 7.515625 
Q 23.390625 7.515625 25.78125 7.859375 
z
" id="ArialMT-116"/>
      <path d="M 6.5 0 
L 6.5 51.859375 
L 14.40625 51.859375 
L 14.40625 44 
Q 17.4375 49.515625 20 51.265625 
Q 22.5625 53.03125 25.640625 53.03125 
Q 30.078125 53.03125 34.671875 50.203125 
L 31.640625 42.046875 
Q 28.421875 43.953125 25.203125 43.953125 
Q 22.3125 43.953125 20.015625 42.21875 
Q 17.71875 40.484375 16.75 37.40625 
Q 15.28125 32.71875 15.28125 27.15625 
L 15.28125 0 
z
" id="ArialMT-114"/>
      <path d="M 6.59375 0 
L 6.59375 51.859375 
L 14.5 51.859375 
L 14.5 44.484375 
Q 20.21875 53.03125 31 53.03125 
Q 35.6875 53.03125 39.625 51.34375 
Q 43.5625 49.65625 45.515625 46.921875 
Q 47.46875 44.1875 48.25 40.4375 
Q 48.734375 37.984375 48.734375 31.890625 
L 48.734375 0 
L 39.9375 0 
L 39.9375 31.546875 
Q 39.9375 36.921875 38.90625 39.578125 
Q 37.890625 42.234375 35.28125 43.8125 
Q 32.671875 45.40625 29.15625 45.40625 
Q 23.53125 45.40625 19.453125 41.84375 
Q 15.375 38.28125 15.375 28.328125 
L 15.375 0 
z
" id="ArialMT-110"/>
      <path d="M 6.640625 61.46875 
L 6.640625 71.578125 
L 15.4375 71.578125 
L 15.4375 61.46875 
z
M 6.640625 0 
L 6.640625 51.859375 
L 15.4375 51.859375 
L 15.4375 0 
z
" id="ArialMT-105"/>
      <path d="M 3.328125 25.921875 
Q 3.328125 40.328125 11.328125 47.265625 
Q 18.015625 53.03125 27.640625 53.03125 
Q 38.328125 53.03125 45.109375 46.015625 
Q 51.90625 39.015625 51.90625 26.65625 
Q 51.90625 16.65625 48.90625 10.90625 
Q 45.90625 5.171875 40.15625 2 
Q 34.421875 -1.171875 27.640625 -1.171875 
Q 16.75 -1.171875 10.03125 5.8125 
Q 3.328125 12.796875 3.328125 25.921875 
z
M 12.359375 25.921875 
Q 12.359375 15.96875 16.703125 11.015625 
Q 21.046875 6.0625 27.640625 6.0625 
Q 34.1875 6.0625 38.53125 11.03125 
Q 42.875 16.015625 42.875 26.21875 
Q 42.875 35.84375 38.5 40.796875 
Q 34.125 45.75 27.640625 45.75 
Q 21.046875 45.75 16.703125 40.8125 
Q 12.359375 35.890625 12.359375 25.921875 
z
" id="ArialMT-111"/>
      <path d="M 42.09375 16.703125 
L 51.171875 15.578125 
Q 49.03125 7.625 43.21875 3.21875 
Q 37.40625 -1.171875 28.375 -1.171875 
Q 17 -1.171875 10.328125 5.828125 
Q 3.65625 12.84375 3.65625 25.484375 
Q 3.65625 38.578125 10.390625 45.796875 
Q 17.140625 53.03125 27.875 53.03125 
Q 38.28125 53.03125 44.875 45.953125 
Q 51.46875 38.875 51.46875 26.03125 
Q 51.46875 25.25 51.421875 23.6875 
L 12.75 23.6875 
Q 13.234375 15.140625 17.578125 10.59375 
Q 21.921875 6.0625 28.421875 6.0625 
Q 33.25 6.0625 36.671875 8.59375 
Q 40.09375 11.140625 42.09375 16.703125 
z
M 13.234375 30.90625 
L 42.1875 30.90625 
Q 41.609375 37.453125 38.875 40.71875 
Q 34.671875 45.796875 27.984375 45.796875 
Q 21.921875 45.796875 17.796875 41.75 
Q 13.671875 37.703125 13.234375 30.90625 
z
" id="ArialMT-101"/>
      <path d="M 6.59375 0 
L 6.59375 51.859375 
L 14.453125 51.859375 
L 14.453125 44.578125 
Q 16.890625 48.390625 20.9375 50.703125 
Q 25 53.03125 30.171875 53.03125 
Q 35.9375 53.03125 39.625 50.640625 
Q 43.3125 48.25 44.828125 43.953125 
Q 50.984375 53.03125 60.84375 53.03125 
Q 68.5625 53.03125 72.703125 48.75 
Q 76.859375 44.484375 76.859375 35.59375 
L 76.859375 0 
L 68.109375 0 
L 68.109375 32.671875 
Q 68.109375 37.9375 67.25 40.25 
Q 66.40625 42.578125 64.15625 43.984375 
Q 61.921875 45.40625 58.890625 45.40625 
Q 53.421875 45.40625 49.796875 41.765625 
Q 46.1875 38.140625 46.1875 30.125 
L 46.1875 0 
L 37.40625 0 
L 37.40625 33.6875 
Q 37.40625 39.546875 35.25 42.46875 
Q 33.109375 45.40625 28.21875 45.40625 
Q 24.515625 45.40625 21.359375 43.453125 
Q 18.21875 41.5 16.796875 37.734375 
Q 15.375 33.984375 15.375 26.90625 
L 15.375 0 
z
" id="ArialMT-109"/>
      <path d="M 6.59375 -19.875 
L 6.59375 51.859375 
L 14.59375 51.859375 
L 14.59375 45.125 
Q 17.4375 49.078125 21 51.046875 
Q 24.5625 53.03125 29.640625 53.03125 
Q 36.28125 53.03125 41.359375 49.609375 
Q 46.4375 46.1875 49.015625 39.953125 
Q 51.609375 33.734375 51.609375 26.3125 
Q 51.609375 18.359375 48.75 11.984375 
Q 45.90625 5.609375 40.453125 2.21875 
Q 35.015625 -1.171875 29 -1.171875 
Q 24.609375 -1.171875 21.109375 0.6875 
Q 17.625 2.546875 15.375 5.375 
L 15.375 -19.875 
z
M 14.546875 25.640625 
Q 14.546875 15.625 18.59375 10.84375 
Q 22.65625 6.0625 28.421875 6.0625 
Q 34.28125 6.0625 38.453125 11.015625 
Q 42.625 15.96875 42.625 26.375 
Q 42.625 36.28125 38.546875 41.203125 
Q 34.46875 46.140625 28.8125 46.140625 
Q 23.1875 46.140625 18.859375 40.890625 
Q 14.546875 35.640625 14.546875 25.640625 
z
" id="ArialMT-112"/>
      <path d="M 40.578125 0 
L 40.578125 7.625 
Q 34.515625 -1.171875 24.125 -1.171875 
Q 19.53125 -1.171875 15.546875 0.578125 
Q 11.578125 2.34375 9.640625 5 
Q 7.71875 7.671875 6.9375 11.53125 
Q 6.390625 14.109375 6.390625 19.734375 
L 6.390625 51.859375 
L 15.1875 51.859375 
L 15.1875 23.09375 
Q 15.1875 16.21875 15.71875 13.8125 
Q 16.546875 10.359375 19.234375 8.375 
Q 21.921875 6.390625 25.875 6.390625 
Q 29.828125 6.390625 33.296875 8.421875 
Q 36.765625 10.453125 38.203125 13.9375 
Q 39.65625 17.4375 39.65625 24.078125 
L 39.65625 51.859375 
L 48.4375 51.859375 
L 48.4375 0 
z
" id="ArialMT-117"/>
      <path d="M 23.390625 -21.046875 
Q 16.109375 -11.859375 11.078125 0.4375 
Q 6.0625 12.75 6.0625 25.921875 
Q 6.0625 37.546875 9.8125 48.1875 
Q 14.203125 60.546875 23.390625 72.796875 
L 29.6875 72.796875 
Q 23.78125 62.640625 21.875 58.296875 
Q 18.890625 51.5625 17.1875 44.234375 
Q 15.09375 35.109375 15.09375 25.875 
Q 15.09375 2.390625 29.6875 -21.046875 
z
" id="ArialMT-40"/>
      <path d="M 25 67.921875 
Q 21.09375 67.921875 18.40625 65.203125 
Q 15.71875 62.5 15.71875 58.59375 
Q 15.71875 54.734375 18.40625 52.078125 
Q 21.09375 49.421875 25 49.421875 
Q 28.90625 49.421875 31.59375 52.078125 
Q 34.28125 54.734375 34.28125 58.59375 
Q 34.28125 62.453125 31.5625 65.1875 
Q 28.859375 67.921875 25 67.921875 
z
M 25 74.21875 
Q 28.125 74.21875 31 73.015625 
Q 33.890625 71.828125 35.984375 69.578125 
Q 38.234375 67.390625 39.359375 64.59375 
Q 40.484375 61.8125 40.484375 58.59375 
Q 40.484375 52.15625 35.96875 47.6875 
Q 31.453125 43.21875 24.90625 43.21875 
Q 18.3125 43.21875 13.90625 47.609375 
Q 9.515625 52 9.515625 58.59375 
Q 9.515625 65.140625 14 69.671875 
Q 18.5 74.21875 25 74.21875 
z
" id="DejaVuSans-176"/>
      <path d="M 58.796875 25.09375 
L 68.265625 22.703125 
Q 65.28125 11.03125 57.546875 4.90625 
Q 49.8125 -1.21875 38.625 -1.21875 
Q 27.046875 -1.21875 19.796875 3.484375 
Q 12.546875 8.203125 8.765625 17.140625 
Q 4.984375 26.078125 4.984375 36.328125 
Q 4.984375 47.515625 9.25 55.828125 
Q 13.53125 64.15625 21.40625 68.46875 
Q 29.296875 72.796875 38.765625 72.796875 
Q 49.515625 72.796875 56.828125 67.328125 
Q 64.15625 61.859375 67.046875 51.953125 
L 57.71875 49.75 
Q 55.21875 57.5625 50.484375 61.125 
Q 45.75 64.703125 38.578125 64.703125 
Q 30.328125 64.703125 24.78125 60.734375 
Q 19.234375 56.78125 16.984375 50.109375 
Q 14.75 43.453125 14.75 36.375 
Q 14.75 27.25 17.40625 20.4375 
Q 20.0625 13.625 25.671875 10.25 
Q 31.296875 6.890625 37.84375 6.890625 
Q 45.796875 6.890625 51.3125 11.46875 
Q 56.84375 16.0625 58.796875 25.09375 
z
" id="ArialMT-67"/>
      <path d="M 12.359375 -21.046875 
L 6.0625 -21.046875 
Q 20.65625 2.390625 20.65625 25.875 
Q 20.65625 35.0625 18.5625 44.09375 
Q 16.890625 51.421875 13.921875 58.15625 
Q 12.015625 62.546875 6.0625 72.796875 
L 12.359375 72.796875 
Q 21.53125 60.546875 25.921875 48.1875 
Q 29.6875 37.546875 29.6875 25.921875 
Q 29.6875 12.75 24.625 0.4375 
Q 19.578125 -11.859375 12.359375 -21.046875 
z
" id="ArialMT-41"/>
     </defs>
     <g style="fill:#262626;" transform="translate(146.97351 335.884141)scale(0.18 -0.18)">
      <use transform="translate(0 0.78125)" xlink:href="#ArialMT-71"/>
      <use transform="translate(77.783203 0.78125)" xlink:href="#ArialMT-108"/>
      <use transform="translate(100 0.78125)" xlink:href="#ArialMT-97"/>
      <use transform="translate(155.615234 0.78125)" xlink:href="#ArialMT-115"/>
      <use transform="translate(205.615234 0.78125)" xlink:href="#ArialMT-115"/>
      <use transform="translate(255.615234 0.78125)" xlink:href="#ArialMT-32"/>
      <use transform="translate(283.398438 0.78125)" xlink:href="#ArialMT-116"/>
      <use transform="translate(311.181641 0.78125)" xlink:href="#ArialMT-114"/>
      <use transform="translate(344.482422 0.78125)" xlink:href="#ArialMT-97"/>
      <use transform="translate(400.097656 0.78125)" xlink:href="#ArialMT-110"/>
      <use transform="translate(455.712891 0.78125)" xlink:href="#ArialMT-115"/>
      <use transform="translate(505.712891 0.78125)" xlink:href="#ArialMT-105"/>
      <use transform="translate(527.929688 0.78125)" xlink:href="#ArialMT-116"/>
      <use transform="translate(555.712891 0.78125)" xlink:href="#ArialMT-105"/>
      <use transform="translate(577.929688 0.78125)" xlink:href="#ArialMT-111"/>
      <use transform="translate(633.544922 0.78125)" xlink:href="#ArialMT-110"/>
      <use transform="translate(689.160156 0.78125)" xlink:href="#ArialMT-32"/>
      <use transform="translate(716.943359 0.78125)" xlink:href="#ArialMT-116"/>
      <use transform="translate(744.726562 0.78125)" xlink:href="#ArialMT-101"/>
      <use transform="translate(800.341797 0.78125)" xlink:href="#ArialMT-109"/>
      <use transform="translate(883.642578 0.78125)" xlink:href="#ArialMT-112"/>
      <use transform="translate(939.257812 0.78125)" xlink:href="#ArialMT-101"/>
      <use transform="translate(994.873047 0.78125)" xlink:href="#ArialMT-114"/>
      <use transform="translate(1028.173828 0.78125)" xlink:href="#ArialMT-97"/>
      <use transform="translate(1083.789062 0.78125)" xlink:href="#ArialMT-116"/>
      <use transform="translate(1111.572266 0.78125)" xlink:href="#ArialMT-117"/>
      <use transform="translate(1167.1875 0.78125)" xlink:href="#ArialMT-114"/>
      <use transform="translate(1200.488281 0.78125)" xlink:href="#ArialMT-101"/>
      <use transform="translate(1256.103516 0.78125)" xlink:href="#ArialMT-32"/>
      <use transform="translate(1283.886719 0.78125)" xlink:href="#ArialMT-40"/>
      <use transform="translate(1317.1875 0.78125)" xlink:href="#DejaVuSans-176"/>
      <use transform="translate(1367.1875 0.78125)" xlink:href="#ArialMT-67"/>
      <use transform="translate(1439.404297 0.78125)" xlink:href="#ArialMT-41"/>
     </g>
    </g>
   </g>
   <g id="matplotlib.axis_2">
    <g id="ytick_1">
     <g id="line2d_4">
      <defs>
       <path d="M 0 0 
L -9 0 
" id="m23ac48c90c" style="stroke:#262626;stroke-width:1.875;"/>
      </defs>
      <g>
       <use style="fill:#262626;stroke:#262626;stroke-width:1.875;" x="144.930363" xlink:href="#m23ac48c90c" y="238.236963"/>
      </g>
     </g>
     <g id="text_5">
      <!-- $\mathdefault{10^{-8}}$ -->
      <defs>
       <path d="M 37.25 0 
L 28.46875 0 
L 28.46875 56 
Q 25.296875 52.984375 20.140625 49.953125 
Q 14.984375 46.921875 10.890625 45.40625 
L 10.890625 53.90625 
Q 18.265625 57.375 23.78125 62.296875 
Q 29.296875 67.234375 31.59375 71.875 
L 37.25 71.875 
z
" id="ArialMT-49"/>
       <path d="M 17.671875 38.8125 
Q 12.203125 40.828125 9.5625 44.53125 
Q 6.9375 48.25 6.9375 53.421875 
Q 6.9375 61.234375 12.546875 66.546875 
Q 18.171875 71.875 27.484375 71.875 
Q 36.859375 71.875 42.578125 66.421875 
Q 48.296875 60.984375 48.296875 53.171875 
Q 48.296875 48.1875 45.671875 44.5 
Q 43.0625 40.828125 37.75 38.8125 
Q 44.34375 36.671875 47.78125 31.875 
Q 51.21875 27.09375 51.21875 20.453125 
Q 51.21875 11.28125 44.71875 5.03125 
Q 38.234375 -1.21875 27.640625 -1.21875 
Q 17.046875 -1.21875 10.546875 5.046875 
Q 4.046875 11.328125 4.046875 20.703125 
Q 4.046875 27.6875 7.59375 32.390625 
Q 11.140625 37.109375 17.671875 38.8125 
z
M 15.921875 53.71875 
Q 15.921875 48.640625 19.1875 45.40625 
Q 22.46875 42.1875 27.6875 42.1875 
Q 32.765625 42.1875 36.015625 45.375 
Q 39.265625 48.578125 39.265625 53.21875 
Q 39.265625 58.0625 35.90625 61.359375 
Q 32.5625 64.65625 27.59375 64.65625 
Q 22.5625 64.65625 19.234375 61.421875 
Q 15.921875 58.203125 15.921875 53.71875 
z
M 13.09375 20.65625 
Q 13.09375 16.890625 14.875 13.375 
Q 16.65625 9.859375 20.171875 7.921875 
Q 23.6875 6 27.734375 6 
Q 34.03125 6 38.125 10.046875 
Q 42.234375 14.109375 42.234375 20.359375 
Q 42.234375 26.703125 38.015625 30.859375 
Q 33.796875 35.015625 27.4375 35.015625 
Q 21.234375 35.015625 17.15625 30.90625 
Q 13.09375 26.8125 13.09375 20.65625 
z
" id="ArialMT-56"/>
      </defs>
      <g style="fill:#262626;" transform="translate(99.760363 246.744776)scale(0.165 -0.165)">
       <use transform="translate(0 0.99375)" xlink:href="#ArialMT-49"/>
       <use transform="translate(55.615234 0.99375)" xlink:href="#ArialMT-48"/>
       <use transform="translate(112.972813 70.6875)scale(0.7)" xlink:href="#ArialMT-8722"/>
       <use transform="translate(153.851719 70.6875)scale(0.7)" xlink:href="#ArialMT-56"/>
      </g>
     </g>
    </g>
    <g id="ytick_2">
     <g id="line2d_5">
      <g>
       <use style="fill:#262626;stroke:#262626;stroke-width:1.875;" x="144.930363" xlink:href="#m23ac48c90c" y="166.848874"/>
      </g>
     </g>
     <g id="text_6">
      <!-- $\mathdefault{10^{-6}}$ -->
      <defs>
       <path d="M 49.75 54.046875 
L 41.015625 53.375 
Q 39.84375 58.546875 37.703125 60.890625 
Q 34.125 64.65625 28.90625 64.65625 
Q 24.703125 64.65625 21.53125 62.3125 
Q 17.390625 59.28125 14.984375 53.46875 
Q 12.59375 47.65625 12.5 36.921875 
Q 15.671875 41.75 20.265625 44.09375 
Q 24.859375 46.4375 29.890625 46.4375 
Q 38.671875 46.4375 44.84375 39.96875 
Q 51.03125 33.5 51.03125 23.25 
Q 51.03125 16.5 48.125 10.71875 
Q 45.21875 4.9375 40.140625 1.859375 
Q 35.0625 -1.21875 28.609375 -1.21875 
Q 17.625 -1.21875 10.6875 6.859375 
Q 3.765625 14.9375 3.765625 33.5 
Q 3.765625 54.25 11.421875 63.671875 
Q 18.109375 71.875 29.4375 71.875 
Q 37.890625 71.875 43.28125 67.140625 
Q 48.6875 62.40625 49.75 54.046875 
z
M 13.875 23.1875 
Q 13.875 18.65625 15.796875 14.5 
Q 17.71875 10.359375 21.1875 8.171875 
Q 24.65625 6 28.46875 6 
Q 34.03125 6 38.03125 10.484375 
Q 42.046875 14.984375 42.046875 22.703125 
Q 42.046875 30.125 38.078125 34.390625 
Q 34.125 38.671875 28.125 38.671875 
Q 22.171875 38.671875 18.015625 34.390625 
Q 13.875 30.125 13.875 23.1875 
z
" id="ArialMT-54"/>
      </defs>
      <g style="fill:#262626;" transform="translate(99.760363 175.356687)scale(0.165 -0.165)">
       <use transform="translate(0 0.99375)" xlink:href="#ArialMT-49"/>
       <use transform="translate(55.615234 0.99375)" xlink:href="#ArialMT-48"/>
       <use transform="translate(112.972813 70.6875)scale(0.7)" xlink:href="#ArialMT-8722"/>
       <use transform="translate(153.851719 70.6875)scale(0.7)" xlink:href="#ArialMT-54"/>
      </g>
     </g>
    </g>
    <g id="ytick_3">
     <g id="line2d_6">
      <g>
       <use style="fill:#262626;stroke:#262626;stroke-width:1.875;" x="144.930363" xlink:href="#m23ac48c90c" y="95.460785"/>
      </g>
     </g>
     <g id="text_7">
      <!-- $\mathdefault{10^{-4}}$ -->
      <g style="fill:#262626;" transform="translate(99.760363 103.886098)scale(0.165 -0.165)">
       <use transform="translate(0 0.201563)" xlink:href="#ArialMT-49"/>
       <use transform="translate(55.615234 0.201563)" xlink:href="#ArialMT-48"/>
       <use transform="translate(112.972813 69.895313)scale(0.7)" xlink:href="#ArialMT-8722"/>
       <use transform="translate(153.851719 69.895313)scale(0.7)" xlink:href="#ArialMT-52"/>
      </g>
     </g>
    </g>
    <g id="text_8">
     <!-- Ionic conductivity (S cm$^{-1}$) -->
     <defs>
      <path d="M 9.328125 0 
L 9.328125 71.578125 
L 18.796875 71.578125 
L 18.796875 0 
z
" id="ArialMT-73"/>
      <path d="M 40.4375 19 
L 49.078125 17.875 
Q 47.65625 8.9375 41.8125 3.875 
Q 35.984375 -1.171875 27.484375 -1.171875 
Q 16.84375 -1.171875 10.375 5.78125 
Q 3.90625 12.75 3.90625 25.734375 
Q 3.90625 34.125 6.6875 40.421875 
Q 9.46875 46.734375 15.15625 49.875 
Q 20.84375 53.03125 27.546875 53.03125 
Q 35.984375 53.03125 41.359375 48.75 
Q 46.734375 44.484375 48.25 36.625 
L 39.703125 35.296875 
Q 38.484375 40.53125 35.375 43.15625 
Q 32.28125 45.796875 27.875 45.796875 
Q 21.234375 45.796875 17.078125 41.03125 
Q 12.9375 36.28125 12.9375 25.984375 
Q 12.9375 15.53125 16.9375 10.796875 
Q 20.953125 6.0625 27.390625 6.0625 
Q 32.5625 6.0625 36.03125 9.234375 
Q 39.5 12.40625 40.4375 19 
z
" id="ArialMT-99"/>
      <path d="M 40.234375 0 
L 40.234375 6.546875 
Q 35.296875 -1.171875 25.734375 -1.171875 
Q 19.53125 -1.171875 14.328125 2.25 
Q 9.125 5.671875 6.265625 11.796875 
Q 3.421875 17.921875 3.421875 25.875 
Q 3.421875 33.640625 6 39.96875 
Q 8.59375 46.296875 13.765625 49.65625 
Q 18.953125 53.03125 25.34375 53.03125 
Q 30.03125 53.03125 33.6875 51.046875 
Q 37.359375 49.078125 39.65625 45.90625 
L 39.65625 71.578125 
L 48.390625 71.578125 
L 48.390625 0 
z
M 12.453125 25.875 
Q 12.453125 15.921875 16.640625 10.984375 
Q 20.84375 6.0625 26.5625 6.0625 
Q 32.328125 6.0625 36.34375 10.765625 
Q 40.375 15.484375 40.375 25.140625 
Q 40.375 35.796875 36.265625 40.765625 
Q 32.171875 45.75 26.171875 45.75 
Q 20.3125 45.75 16.375 40.96875 
Q 12.453125 36.1875 12.453125 25.875 
z
" id="ArialMT-100"/>
      <path d="M 21 0 
L 1.265625 51.859375 
L 10.546875 51.859375 
L 21.6875 20.796875 
Q 23.484375 15.765625 25 10.359375 
Q 26.171875 14.453125 28.265625 20.21875 
L 39.796875 51.859375 
L 48.828125 51.859375 
L 29.203125 0 
z
" id="ArialMT-118"/>
      <path d="M 6.203125 -19.96875 
L 5.21875 -11.71875 
Q 8.109375 -12.5 10.25 -12.5 
Q 13.1875 -12.5 14.9375 -11.515625 
Q 16.703125 -10.546875 17.828125 -8.796875 
Q 18.65625 -7.46875 20.515625 -2.25 
Q 20.75 -1.515625 21.296875 -0.09375 
L 1.609375 51.859375 
L 11.078125 51.859375 
L 21.875 21.828125 
Q 23.96875 16.109375 25.640625 9.8125 
Q 27.15625 15.875 29.25 21.625 
L 40.328125 51.859375 
L 49.125 51.859375 
L 29.390625 -0.875 
Q 26.21875 -9.421875 24.46875 -12.640625 
Q 22.125 -17 19.09375 -19.015625 
Q 16.0625 -21.046875 11.859375 -21.046875 
Q 9.328125 -21.046875 6.203125 -19.96875 
z
" id="ArialMT-121"/>
      <path d="M 4.5 23 
L 13.421875 23.78125 
Q 14.0625 18.40625 16.375 14.96875 
Q 18.703125 11.53125 23.578125 9.40625 
Q 28.46875 7.28125 34.578125 7.28125 
Q 39.984375 7.28125 44.140625 8.890625 
Q 48.296875 10.5 50.3125 13.296875 
Q 52.34375 16.109375 52.34375 19.4375 
Q 52.34375 22.796875 50.390625 25.3125 
Q 48.4375 27.828125 43.953125 29.546875 
Q 41.0625 30.671875 31.203125 33.03125 
Q 21.34375 35.40625 17.390625 37.5 
Q 12.25 40.1875 9.734375 44.15625 
Q 7.234375 48.140625 7.234375 53.078125 
Q 7.234375 58.5 10.296875 63.203125 
Q 13.375 67.921875 19.28125 70.359375 
Q 25.203125 72.796875 32.421875 72.796875 
Q 40.375 72.796875 46.453125 70.234375 
Q 52.546875 67.671875 55.8125 62.6875 
Q 59.078125 57.71875 59.328125 51.421875 
L 50.25 50.734375 
Q 49.515625 57.515625 45.28125 60.984375 
Q 41.0625 64.453125 32.8125 64.453125 
Q 24.21875 64.453125 20.28125 61.296875 
Q 16.359375 58.15625 16.359375 53.71875 
Q 16.359375 49.859375 19.140625 47.359375 
Q 21.875 44.875 33.421875 42.265625 
Q 44.96875 39.65625 49.265625 37.703125 
Q 55.515625 34.8125 58.484375 30.390625 
Q 61.46875 25.984375 61.46875 20.21875 
Q 61.46875 14.5 58.203125 9.4375 
Q 54.9375 4.390625 48.796875 1.578125 
Q 42.671875 -1.21875 35.015625 -1.21875 
Q 25.296875 -1.21875 18.71875 1.609375 
Q 12.15625 4.4375 8.421875 10.125 
Q 4.6875 15.828125 4.5 23 
z
" id="ArialMT-83"/>
      <path d="M 10.59375 35.5 
L 73.1875 35.5 
L 73.1875 27.203125 
L 10.59375 27.203125 
z
" id="DejaVuSans-8722"/>
      <path d="M 12.40625 8.296875 
L 28.515625 8.296875 
L 28.515625 63.921875 
L 10.984375 60.40625 
L 10.984375 69.390625 
L 28.421875 72.90625 
L 38.28125 72.90625 
L 38.28125 8.296875 
L 54.390625 8.296875 
L 54.390625 0 
L 12.40625 0 
z
" id="DejaVuSans-49"/>
     </defs>
     <g style="fill:#262626;" transform="translate(91.800363 273.307187)rotate(-90)scale(0.18 -0.18)">
      <use transform="translate(0 0.684375)" xlink:href="#ArialMT-73"/>
      <use transform="translate(27.783203 0.684375)" xlink:href="#ArialMT-111"/>
      <use transform="translate(83.398438 0.684375)" xlink:href="#ArialMT-110"/>
      <use transform="translate(139.013672 0.684375)" xlink:href="#ArialMT-105"/>
      <use transform="translate(161.230469 0.684375)" xlink:href="#ArialMT-99"/>
      <use transform="translate(211.230469 0.684375)" xlink:href="#ArialMT-32"/>
      <use transform="translate(239.013672 0.684375)" xlink:href="#ArialMT-99"/>
      <use transform="translate(289.013672 0.684375)" xlink:href="#ArialMT-111"/>
      <use transform="translate(344.628906 0.684375)" xlink:href="#ArialMT-110"/>
      <use transform="translate(400.244141 0.684375)" xlink:href="#ArialMT-100"/>
      <use transform="translate(455.859375 0.684375)" xlink:href="#ArialMT-117"/>
      <use transform="translate(511.474609 0.684375)" xlink:href="#ArialMT-99"/>
      <use transform="translate(561.474609 0.684375)" xlink:href="#ArialMT-116"/>
      <use transform="translate(589.257812 0.684375)" xlink:href="#ArialMT-105"/>
      <use transform="translate(611.474609 0.684375)" xlink:href="#ArialMT-118"/>
      <use transform="translate(661.474609 0.684375)" xlink:href="#ArialMT-105"/>
      <use transform="translate(683.691406 0.684375)" xlink:href="#ArialMT-116"/>
      <use transform="translate(711.474609 0.684375)" xlink:href="#ArialMT-121"/>
      <use transform="translate(761.474609 0.684375)" xlink:href="#ArialMT-32"/>
      <use transform="translate(789.257812 0.684375)" xlink:href="#ArialMT-40"/>
      <use transform="translate(822.558594 0.684375)" xlink:href="#ArialMT-83"/>
      <use transform="translate(889.257812 0.684375)" xlink:href="#ArialMT-32"/>
      <use transform="translate(917.041016 0.684375)" xlink:href="#ArialMT-99"/>
      <use transform="translate(967.041016 0.684375)" xlink:href="#ArialMT-109"/>
      <use transform="translate(1051.298828 38.965625)scale(0.7)" xlink:href="#DejaVuSans-8722"/>
      <use transform="translate(1109.951172 38.965625)scale(0.7)" xlink:href="#DejaVuSans-49"/>
      <use transform="translate(1157.22168 0.684375)" xlink:href="#ArialMT-41"/>
     </g>
    </g>
   </g>
   <g id="PathCollection_1">
    <path clip-path="url(#pe0290cf0b8)" d="M 157.167921 120.729622 
C 158.679812 120.729622 160.129982 120.128941 161.19905 119.059873 
C 162.268118 117.990806 162.868798 116.540635 162.868798 115.028745 
C 162.868798 113.516854 162.268118 112.066684 161.19905 110.997616 
C 160.129982 109.928548 158.679812 109.327867 157.167921 109.327867 
C 155.656031 109.327867 154.20586 109.928548 153.136792 110.997616 
C 152.067725 112.066684 151.467044 113.516854 151.467044 115.028745 
C 151.467044 116.540635 152.067725 117.990806 153.136792 119.059873 
C 154.20586 120.128941 155.656031 120.729622 157.167921 120.729622 
z
" style="fill:#1f77b4;stroke:#ffffff;stroke-width:0.75;"/>
    <path clip-path="url(#pe0290cf0b8)" d="M 401.361487 257.385597 
C 402.873378 257.385597 404.323548 256.784917 405.392616 255.715849 
C 406.461684 254.646781 407.062364 253.19661 407.062364 251.68472 
C 407.062364 250.17283 406.461684 248.722659 405.392616 247.653591 
C 404.323548 246.584523 402.873378 245.983843 401.361487 245.983843 
C 399.849597 245.983843 398.399426 246.584523 397.330358 247.653591 
C 396.261291 248.722659 395.66061 250.17283 395.66061 251.68472 
C 395.66061 253.19661 396.261291 254.646781 397.330358 255.715849 
C 398.399426 256.784917 399.849597 257.385597 401.361487 257.385597 
z
" style="fill:#1f77b4;stroke:#ffffff;stroke-width:0.75;"/>
    <path clip-path="url(#pe0290cf0b8)" d="M 165.611737 165.263884 
C 167.123628 165.263884 168.573798 164.663203 169.642866 163.594135 
C 170.711934 162.525067 171.312614 161.074897 171.312614 159.563006 
C 171.312614 158.051116 170.711934 156.600945 169.642866 155.531878 
C 168.573798 154.46281 167.123628 153.862129 165.611737 153.862129 
C 164.099847 153.862129 162.649676 154.46281 161.580608 155.531878 
C 160.511541 156.600945 159.91086 158.051116 159.91086 159.563006 
C 159.91086 161.074897 160.511541 162.525067 161.580608 163.594135 
C 162.649676 164.663203 164.099847 165.263884 165.611737 165.263884 
z
" style="fill:#1f77b4;stroke:#ffffff;stroke-width:0.75;"/>
    <path clip-path="url(#pe0290cf0b8)" d="M 185.645886 161.048442 
C 187.157776 161.048442 188.607947 160.447761 189.677015 159.378693 
C 190.746082 158.309625 191.346763 156.859455 191.346763 155.347564 
C 191.346763 153.835674 190.746082 152.385503 189.677015 151.316436 
C 188.607947 150.247368 187.157776 149.646687 185.645886 149.646687 
C 184.133995 149.646687 182.683825 150.247368 181.614757 151.316436 
C 180.545689 152.385503 179.945009 153.835674 179.945009 155.347564 
C 179.945009 156.859455 180.545689 158.309625 181.614757 159.378693 
C 182.683825 160.447761 184.133995 161.048442 185.645886 161.048442 
z
" style="fill:#1f77b4;stroke:#ffffff;stroke-width:0.75;"/>
    <path clip-path="url(#pe0290cf0b8)" d="M 251.483753 149.233955 
C 252.995643 149.233955 254.445814 148.633274 255.514882 147.564207 
C 256.58395 146.495139 257.18463 145.044968 257.18463 143.533078 
C 257.18463 142.021187 256.58395 140.571017 255.514882 139.501949 
C 254.445814 138.432881 252.995643 137.832201 251.483753 137.832201 
C 249.971863 137.832201 248.521692 138.432881 247.452624 139.501949 
C 246.383556 140.571017 245.782876 142.021187 245.782876 143.533078 
C 245.782876 145.044968 246.383556 146.495139 247.452624 147.564207 
C 248.521692 148.633274 249.971863 149.233955 251.483753 149.233955 
z
" style="fill:#1f77b4;stroke:#ffffff;stroke-width:0.75;"/>
    <path clip-path="url(#pe0290cf0b8)" d="M 274.226295 164.324097 
C 275.738186 164.324097 277.188356 163.723417 278.257424 162.654349 
C 279.326492 161.585281 279.927172 160.13511 279.927172 158.62322 
C 279.927172 157.11133 279.326492 155.661159 278.257424 154.592091 
C 277.188356 153.523023 275.738186 152.922343 274.226295 152.922343 
C 272.714405 152.922343 271.264234 153.523023 270.195166 154.592091 
C 269.126099 155.661159 268.525418 157.11133 268.525418 158.62322 
C 268.525418 160.13511 269.126099 161.585281 270.195166 162.654349 
C 271.264234 163.723417 272.714405 164.324097 274.226295 164.324097 
z
" style="fill:#1f77b4;stroke:#ffffff;stroke-width:0.75;"/>
    <path clip-path="url(#pe0290cf0b8)" d="M 179.011662 171.356722 
L 181.8621 168.506284 
L 184.712539 171.356722 
L 187.562977 168.506284 
L 184.712539 165.655845 
L 187.562977 162.805407 
L 184.712539 159.954968 
L 181.8621 162.805407 
L 179.011662 159.954968 
L 176.161223 162.805407 
L 179.011662 165.655845 
L 176.161223 168.506284 
z
" style="fill:#ff7f0e;stroke:#ffffff;stroke-width:0.75;"/>
    <path clip-path="url(#pe0290cf0b8)" d="M 171.045798 115.365751 
L 173.896236 112.515312 
L 176.746675 115.365751 
L 179.597113 112.515312 
L 176.746675 109.664874 
L 179.597113 106.814435 
L 176.746675 103.963996 
L 173.896236 106.814435 
L 171.045798 103.963996 
L 168.195359 106.814435 
L 171.045798 109.664874 
L 168.195359 112.515312 
z
" style="fill:#ff7f0e;stroke:#ffffff;stroke-width:0.75;"/>
    <path clip-path="url(#pe0290cf0b8)" d="M 214.85805 128.630053 
L 217.708489 125.779614 
L 220.558928 128.630053 
L 223.409366 125.779614 
L 220.558928 122.929176 
L 223.409366 120.078737 
L 220.558928 117.228299 
L 217.708489 120.078737 
L 214.85805 117.228299 
L 212.007612 120.078737 
L 214.85805 122.929176 
L 212.007612 125.779614 
z
" style="fill:#ff7f0e;stroke:#ffffff;stroke-width:0.75;"/>
    <path clip-path="url(#pe0290cf0b8)" d="M 306.465488 193.966156 
L 309.315927 191.115717 
L 312.166365 193.966156 
L 315.016804 191.115717 
L 312.166365 188.265279 
L 315.016804 185.41484 
L 312.166365 182.564402 
L 309.315927 185.41484 
L 306.465488 182.564402 
L 303.61505 185.41484 
L 306.465488 188.265279 
L 303.61505 191.115717 
z
" style="fill:#ff7f0e;stroke:#ffffff;stroke-width:0.75;"/>
    <path clip-path="url(#pe0290cf0b8)" d="M 274.602032 147.563927 
L 277.45247 144.713489 
L 280.302909 147.563927 
L 283.153347 144.713489 
L 280.302909 141.86305 
L 283.153347 139.012612 
L 280.302909 136.162173 
L 277.45247 139.012612 
L 274.602032 136.162173 
L 271.751593 139.012612 
L 274.602032 141.86305 
L 271.751593 144.713489 
z
" style="fill:#ff7f0e;stroke:#ffffff;stroke-width:0.75;"/>
    <path clip-path="url(#pe0290cf0b8)" d="M 171.045798 107.839541 
L 173.896236 104.989103 
L 176.746675 107.839541 
L 179.597113 104.989103 
L 176.746675 102.138664 
L 179.597113 99.288226 
L 176.746675 96.437787 
L 173.896236 99.288226 
L 171.045798 96.437787 
L 168.195359 99.288226 
L 171.045798 102.138664 
L 168.195359 104.989103 
z
" style="fill:#ff7f0e;stroke:#ffffff;stroke-width:0.75;"/>
    <path clip-path="url(#pe0290cf0b8)" d="M 217.646103 161.804773 
L 220.496541 158.954335 
L 223.34698 161.804773 
L 226.197419 158.954335 
L 223.34698 156.103896 
L 226.197419 153.253458 
L 223.34698 150.403019 
L 220.496541 153.253458 
L 217.646103 150.403019 
L 214.795664 153.253458 
L 217.646103 156.103896 
L 214.795664 158.954335 
z
" style="fill:#ff7f0e;stroke:#ffffff;stroke-width:0.75;"/>
    <path clip-path="url(#pe0290cf0b8)" d="M 245.128334 122.776131 
L 247.978773 119.925692 
L 250.829211 122.776131 
L 253.67965 119.925692 
L 250.829211 117.075254 
L 253.67965 114.224815 
L 250.829211 111.374377 
L 247.978773 114.224815 
L 245.128334 111.374377 
L 242.277896 114.224815 
L 245.128334 117.075254 
L 242.277896 119.925692 
z
" style="fill:#ff7f0e;stroke:#ffffff;stroke-width:0.75;"/>
    <path clip-path="url(#pe0290cf0b8)" d="M 218.442689 144.266087 
L 221.293128 141.415649 
L 224.143566 144.266087 
L 226.994005 141.415649 
L 224.143566 138.56521 
L 226.994005 135.714771 
L 224.143566 132.864333 
L 221.293128 135.714771 
L 218.442689 132.864333 
L 215.592251 135.714771 
L 218.442689 138.56521 
L 215.592251 141.415649 
z
" style="fill:#ff7f0e;stroke:#ffffff;stroke-width:0.75;"/>
    <path clip-path="url(#pe0290cf0b8)" d="M 239.950523 113.888278 
L 242.800961 111.03784 
L 245.6514 113.888278 
L 248.501838 111.03784 
L 245.6514 108.187401 
L 248.501838 105.336963 
L 245.6514 102.486524 
L 242.800961 105.336963 
L 239.950523 102.486524 
L 237.100084 105.336963 
L 239.950523 108.187401 
L 237.100084 111.03784 
z
" style="fill:#ff7f0e;stroke:#ffffff;stroke-width:0.75;"/>
    <path clip-path="url(#pe0290cf0b8)" d="M 211.671705 118.489416 
L 214.522143 115.638978 
L 217.372582 118.489416 
L 220.22302 115.638978 
L 217.372582 112.788539 
L 220.22302 109.938101 
L 217.372582 107.087662 
L 214.522143 109.938101 
L 211.671705 107.087662 
L 208.821266 109.938101 
L 211.671705 112.788539 
L 208.821266 115.638978 
z
" style="fill:#ff7f0e;stroke:#ffffff;stroke-width:0.75;"/>
    <path clip-path="url(#pe0290cf0b8)" d="M 314.431353 180.46843 
L 317.281791 177.617992 
L 320.13223 180.46843 
L 322.982668 177.617992 
L 320.13223 174.767553 
L 322.982668 171.917115 
L 320.13223 169.066676 
L 317.281791 171.917115 
L 314.431353 169.066676 
L 311.580914 171.917115 
L 314.431353 174.767553 
L 311.580914 177.617992 
z
" style="fill:#ff7f0e;stroke:#ffffff;stroke-width:0.75;"/>
    <path clip-path="url(#pe0290cf0b8)" d="M 226.806847 126.110729 
L 229.657285 123.26029 
L 232.507724 126.110729 
L 235.358162 123.26029 
L 232.507724 120.409852 
L 235.358162 117.559413 
L 232.507724 114.708975 
L 229.657285 117.559413 
L 226.806847 114.708975 
L 223.956408 117.559413 
L 226.806847 120.409852 
L 223.956408 123.26029 
z
" style="fill:#ff7f0e;stroke:#ffffff;stroke-width:0.75;"/>
    <path clip-path="url(#pe0290cf0b8)" d="M 310.44842 186.75384 
L 313.298859 183.903401 
L 316.149298 186.75384 
L 318.999736 183.903401 
L 316.149298 181.052963 
L 318.999736 178.202524 
L 316.149298 175.352085 
L 313.298859 178.202524 
L 310.44842 175.352085 
L 307.597982 178.202524 
L 310.44842 181.052963 
L 307.597982 183.903401 
z
" style="fill:#ff7f0e;stroke:#ffffff;stroke-width:0.75;"/>
    <path clip-path="url(#pe0290cf0b8)" d="M 246.721507 155.519364 
L 249.571946 152.668925 
L 252.422384 155.519364 
L 255.272823 152.668925 
L 252.422384 149.818487 
L 255.272823 146.968048 
L 252.422384 144.11761 
L 249.571946 146.968048 
L 246.721507 144.11761 
L 243.871069 146.968048 
L 246.721507 149.818487 
L 243.871069 152.668925 
z
" style="fill:#ff7f0e;stroke:#ffffff;stroke-width:0.75;"/>
    <path clip-path="url(#pe0290cf0b8)" d="M 238.755643 130.570298 
L 241.606081 127.719859 
L 244.45652 130.570298 
L 247.306959 127.719859 
L 244.45652 124.86942 
L 247.306959 122.018982 
L 244.45652 119.168543 
L 241.606081 122.018982 
L 238.755643 119.168543 
L 235.905204 122.018982 
L 238.755643 124.86942 
L 235.905204 127.719859 
z
" style="fill:#ff7f0e;stroke:#ffffff;stroke-width:0.75;"/>
    <path clip-path="url(#pe0290cf0b8)" d="M 234.772711 161.804773 
L 237.623149 158.954335 
L 240.473588 161.804773 
L 243.324027 158.954335 
L 240.473588 156.103896 
L 243.324027 153.253458 
L 240.473588 150.403019 
L 237.623149 153.253458 
L 234.772711 150.403019 
L 231.922272 153.253458 
L 234.772711 156.103896 
L 231.922272 158.954335 
z
" style="fill:#ff7f0e;stroke:#ffffff;stroke-width:0.75;"/>
    <path clip-path="url(#pe0290cf0b8)" d="M 238.755643 138.488977 
L 241.606081 135.638538 
L 244.45652 138.488977 
L 247.306959 135.638538 
L 244.45652 132.7881 
L 247.306959 129.937661 
L 244.45652 127.087222 
L 241.606081 129.937661 
L 238.755643 127.087222 
L 235.905204 129.937661 
L 238.755643 132.7881 
L 235.905204 135.638538 
z
" style="fill:#ff7f0e;stroke:#ffffff;stroke-width:0.75;"/>
    <path clip-path="url(#pe0290cf0b8)" d="M 294.516692 194.039707 
L 297.367131 191.189269 
L 300.217569 194.039707 
L 303.068008 191.189269 
L 300.217569 188.33883 
L 303.068008 185.488392 
L 300.217569 182.637953 
L 297.367131 185.488392 
L 294.516692 182.637953 
L 291.666254 185.488392 
L 294.516692 188.33883 
L 291.666254 191.189269 
z
" style="fill:#ff7f0e;stroke:#ffffff;stroke-width:0.75;"/>
    <path clip-path="url(#pe0290cf0b8)" d="M 326.380149 158.345663 
L 329.230587 155.495224 
L 332.081026 158.345663 
L 334.931464 155.495224 
L 332.081026 152.644786 
L 334.931464 149.794347 
L 332.081026 146.943909 
L 329.230587 149.794347 
L 326.380149 146.943909 
L 323.52971 149.794347 
L 326.380149 152.644786 
L 323.52971 155.495224 
z
" style="fill:#ff7f0e;stroke:#ffffff;stroke-width:0.75;"/>
    <path clip-path="url(#pe0290cf0b8)" d="M 366.34623 233.192862 
L 377.747984 233.192862 
L 377.747984 221.791108 
L 366.34623 221.791108 
z
" style="fill:#2ca02c;stroke:#ffffff;stroke-width:0.75;"/>
    <path clip-path="url(#pe0290cf0b8)" d="M 367.341963 243.93784 
L 378.743717 243.93784 
L 378.743717 232.536086 
L 367.341963 232.536086 
z
" style="fill:#2ca02c;stroke:#ffffff;stroke-width:0.75;"/>
    <path clip-path="url(#pe0290cf0b8)" d="M 341.452905 260.211896 
L 352.854659 260.211896 
L 352.854659 248.810142 
L 341.452905 248.810142 
z
" style="fill:#2ca02c;stroke:#ffffff;stroke-width:0.75;"/>
    <path clip-path="url(#pe0290cf0b8)" d="M 359.376099 233.192862 
L 370.777853 233.192862 
L 370.777853 221.791108 
L 359.376099 221.791108 
z
" style="fill:#2ca02c;stroke:#ffffff;stroke-width:0.75;"/>
    <path clip-path="url(#pe0290cf0b8)" d="M 357.384633 247.396951 
L 368.786387 247.396951 
L 368.786387 235.995196 
L 357.384633 235.995196 
z
" style="fill:#2ca02c;stroke:#ffffff;stroke-width:0.75;"/>
    <path clip-path="url(#pe0290cf0b8)" d="M 335.478506 262.601498 
L 346.880261 262.601498 
L 346.880261 251.199743 
L 335.478506 251.199743 
z
" style="fill:#2ca02c;stroke:#ffffff;stroke-width:0.75;"/>
    <path clip-path="url(#pe0290cf0b8)" d="M 335.478506 273.346476 
L 346.880261 273.346476 
L 346.880261 261.944721 
L 335.478506 261.944721 
z
" style="fill:#2ca02c;stroke:#ffffff;stroke-width:0.75;"/>
    <path clip-path="url(#pe0290cf0b8)" d="M 315.563846 285.160962 
L 326.9656 285.160962 
L 326.9656 273.759208 
L 315.563846 273.759208 
z
" style="fill:#2ca02c;stroke:#ffffff;stroke-width:0.75;"/>
    <path clip-path="url(#pe0290cf0b8)" d="M 341.452905 111.90664 
L 352.854659 111.90664 
L 352.854659 100.504886 
L 341.452905 100.504886 
z
" style="fill:#2ca02c;stroke:#ffffff;stroke-width:0.75;"/>
    <path clip-path="url(#pe0290cf0b8)" d="M 396.218221 233.192862 
L 407.619975 233.192862 
L 407.619975 221.791108 
L 396.218221 221.791108 
z
" style="fill:#2ca02c;stroke:#ffffff;stroke-width:0.75;"/>
    <path clip-path="url(#pe0290cf0b8)" d="M 353.401701 180.46843 
L 364.803455 180.46843 
L 364.803455 169.066676 
L 353.401701 169.066676 
z
" style="fill:#2ca02c;stroke:#ffffff;stroke-width:0.75;"/>
    <path clip-path="url(#pe0290cf0b8)" d="M 335.478506 254.682818 
L 346.880261 254.682818 
L 346.880261 243.281064 
L 335.478506 243.281064 
z
" style="fill:#2ca02c;stroke:#ffffff;stroke-width:0.75;"/>
    <path clip-path="url(#pe0290cf0b8)" d="M 339.461439 233.192862 
L 350.863193 233.192862 
L 350.863193 221.791108 
L 339.461439 221.791108 
z
" style="fill:#2ca02c;stroke:#ffffff;stroke-width:0.75;"/>
    <path clip-path="url(#pe0290cf0b8)" d="M 388.252357 237.652431 
L 399.654111 237.652431 
L 399.654111 226.250677 
L 388.252357 226.250677 
z
" style="fill:#2ca02c;stroke:#ffffff;stroke-width:0.75;"/>
    <path clip-path="url(#pe0290cf0b8)" d="M 327.512642 265.427797 
L 338.914397 265.427797 
L 338.914397 254.026042 
L 327.512642 254.026042 
z
" style="fill:#2ca02c;stroke:#ffffff;stroke-width:0.75;"/>
   </g>
   <g id="PathCollection_2"/>
   <g id="PathCollection_3"/>
   <g id="PathCollection_4"/>
   <g id="PathCollection_5"/>
   <g id="patch_3">
    <path d="M 144.930363 290.794375 
L 144.930363 41.44 
" style="fill:none;stroke:#262626;stroke-linecap:square;stroke-linejoin:miter;stroke-width:1.875;"/>
   </g>
   <g id="patch_4">
    <path d="M 144.930363 290.794375 
L 414.156657 290.794375 
" style="fill:none;stroke:#262626;stroke-linecap:square;stroke-linejoin:miter;stroke-width:1.875;"/>
   </g>
   <g id="text_9">
    <!-- Operating temperature = 20-30$\degree$C -->
    <defs>
     <path d="M 4.828125 34.859375 
Q 4.828125 52.6875 14.390625 62.765625 
Q 23.96875 72.859375 39.109375 72.859375 
Q 49.03125 72.859375 56.984375 68.109375 
Q 64.9375 63.375 69.109375 54.90625 
Q 73.296875 46.4375 73.296875 35.6875 
Q 73.296875 24.8125 68.890625 16.21875 
Q 64.5 7.625 56.4375 3.203125 
Q 48.390625 -1.21875 39.0625 -1.21875 
Q 28.953125 -1.21875 20.984375 3.65625 
Q 13.03125 8.546875 8.921875 16.984375 
Q 4.828125 25.4375 4.828125 34.859375 
z
M 14.59375 34.71875 
Q 14.59375 21.78125 21.546875 14.328125 
Q 28.515625 6.890625 39.015625 6.890625 
Q 49.703125 6.890625 56.609375 14.40625 
Q 63.53125 21.921875 63.53125 35.75 
Q 63.53125 44.484375 60.578125 51 
Q 57.625 57.515625 51.921875 61.109375 
Q 46.234375 64.703125 39.15625 64.703125 
Q 29.109375 64.703125 21.84375 57.78125 
Q 14.59375 50.875 14.59375 34.71875 
z
" id="ArialMT-79"/>
     <path d="M 4.984375 -4.296875 
L 13.53125 -5.5625 
Q 14.0625 -9.515625 16.5 -11.328125 
Q 19.78125 -13.765625 25.4375 -13.765625 
Q 31.546875 -13.765625 34.859375 -11.328125 
Q 38.1875 -8.890625 39.359375 -4.5 
Q 40.046875 -1.8125 39.984375 6.78125 
Q 34.234375 0 25.640625 0 
Q 14.9375 0 9.078125 7.71875 
Q 3.21875 15.4375 3.21875 26.21875 
Q 3.21875 33.640625 5.90625 39.90625 
Q 8.59375 46.1875 13.6875 49.609375 
Q 18.796875 53.03125 25.6875 53.03125 
Q 34.859375 53.03125 40.828125 45.609375 
L 40.828125 51.859375 
L 48.921875 51.859375 
L 48.921875 7.03125 
Q 48.921875 -5.078125 46.453125 -10.125 
Q 44 -15.1875 38.640625 -18.109375 
Q 33.296875 -21.046875 25.484375 -21.046875 
Q 16.21875 -21.046875 10.5 -16.875 
Q 4.78125 -12.703125 4.984375 -4.296875 
z
M 12.25 26.859375 
Q 12.25 16.65625 16.296875 11.96875 
Q 20.359375 7.28125 26.46875 7.28125 
Q 32.515625 7.28125 36.609375 11.9375 
Q 40.71875 16.609375 40.71875 26.5625 
Q 40.71875 36.078125 36.5 40.90625 
Q 32.28125 45.75 26.3125 45.75 
Q 20.453125 45.75 16.34375 40.984375 
Q 12.25 36.234375 12.25 26.859375 
z
" id="ArialMT-103"/>
     <path d="M 52.828125 42.09375 
L 5.5625 42.09375 
L 5.5625 50.296875 
L 52.828125 50.296875 
z
M 52.828125 20.359375 
L 5.5625 20.359375 
L 5.5625 28.5625 
L 52.828125 28.5625 
z
" id="ArialMT-61"/>
     <path d="M 3.171875 21.484375 
L 3.171875 30.328125 
L 30.171875 30.328125 
L 30.171875 21.484375 
z
" id="ArialMT-45"/>
     <path d="M 4.203125 18.890625 
L 12.984375 20.0625 
Q 14.5 12.59375 18.140625 9.296875 
Q 21.78125 6 27 6 
Q 33.203125 6 37.46875 10.296875 
Q 41.75 14.59375 41.75 20.953125 
Q 41.75 27 37.796875 30.921875 
Q 33.84375 34.859375 27.734375 34.859375 
Q 25.25 34.859375 21.53125 33.890625 
L 22.515625 41.609375 
Q 23.390625 41.5 23.921875 41.5 
Q 29.546875 41.5 34.03125 44.421875 
Q 38.53125 47.359375 38.53125 53.46875 
Q 38.53125 58.296875 35.25 61.46875 
Q 31.984375 64.65625 26.8125 64.65625 
Q 21.6875 64.65625 18.265625 61.421875 
Q 14.84375 58.203125 13.875 51.765625 
L 5.078125 53.328125 
Q 6.6875 62.15625 12.390625 67.015625 
Q 18.109375 71.875 26.609375 71.875 
Q 32.46875 71.875 37.390625 69.359375 
Q 42.328125 66.84375 44.9375 62.5 
Q 47.5625 58.15625 47.5625 53.265625 
Q 47.5625 48.640625 45.0625 44.828125 
Q 42.578125 41.015625 37.703125 38.765625 
Q 44.046875 37.3125 47.5625 32.6875 
Q 51.078125 28.078125 51.078125 21.140625 
Q 51.078125 11.765625 44.234375 5.25 
Q 37.40625 -1.265625 26.953125 -1.265625 
Q 17.53125 -1.265625 11.296875 4.34375 
Q 5.078125 9.96875 4.203125 18.890625 
z
" id="ArialMT-51"/>
    </defs>
    <g style="fill:#262626;" transform="translate(144.63351 35.44)scale(0.18 -0.18)">
     <use transform="translate(0 0.78125)" xlink:href="#ArialMT-79"/>
     <use transform="translate(77.783203 0.78125)" xlink:href="#ArialMT-112"/>
     <use transform="translate(133.398438 0.78125)" xlink:href="#ArialMT-101"/>
     <use transform="translate(189.013672 0.78125)" xlink:href="#ArialMT-114"/>
     <use transform="translate(222.314453 0.78125)" xlink:href="#ArialMT-97"/>
     <use transform="translate(277.929688 0.78125)" xlink:href="#ArialMT-116"/>
     <use transform="translate(305.712891 0.78125)" xlink:href="#ArialMT-105"/>
     <use transform="translate(327.929688 0.78125)" xlink:href="#ArialMT-110"/>
     <use transform="translate(383.544922 0.78125)" xlink:href="#ArialMT-103"/>
     <use transform="translate(439.160156 0.78125)" xlink:href="#ArialMT-32"/>
     <use transform="translate(466.943359 0.78125)" xlink:href="#ArialMT-116"/>
     <use transform="translate(494.726562 0.78125)" xlink:href="#ArialMT-101"/>
     <use transform="translate(550.341797 0.78125)" xlink:href="#ArialMT-109"/>
     <use transform="translate(633.642578 0.78125)" xlink:href="#ArialMT-112"/>
     <use transform="translate(689.257812 0.78125)" xlink:href="#ArialMT-101"/>
     <use transform="translate(744.873047 0.78125)" xlink:href="#ArialMT-114"/>
     <use transform="translate(778.173828 0.78125)" xlink:href="#ArialMT-97"/>
     <use transform="translate(833.789062 0.78125)" xlink:href="#ArialMT-116"/>
     <use transform="translate(861.572266 0.78125)" xlink:href="#ArialMT-117"/>
     <use transform="translate(917.1875 0.78125)" xlink:href="#ArialMT-114"/>
     <use transform="translate(950.488281 0.78125)" xlink:href="#ArialMT-101"/>
     <use transform="translate(1006.103516 0.78125)" xlink:href="#ArialMT-32"/>
     <use transform="translate(1033.886719 0.78125)" xlink:href="#ArialMT-61"/>
     <use transform="translate(1092.285156 0.78125)" xlink:href="#ArialMT-32"/>
     <use transform="translate(1120.068359 0.78125)" xlink:href="#ArialMT-50"/>
     <use transform="translate(1175.683594 0.78125)" xlink:href="#ArialMT-48"/>
     <use transform="translate(1231.298828 0.78125)" xlink:href="#ArialMT-45"/>
     <use transform="translate(1264.599609 0.78125)" xlink:href="#ArialMT-51"/>
     <use transform="translate(1320.214844 0.78125)" xlink:href="#ArialMT-48"/>
     <use transform="translate(1375.830078 0.78125)" xlink:href="#DejaVuSans-176"/>
     <use transform="translate(1425.830078 0.78125)" xlink:href="#ArialMT-67"/>
    </g>
   </g>
  </g>
  <g id="axes_2">
   <g id="patch_5">
    <path d="M 441.554706 290.794375 
L 710.781 290.794375 
L 710.781 41.44 
L 441.554706 41.44 
z
" style="fill:#ffffff;"/>
   </g>
   <g id="matplotlib.axis_3">
    <g id="xtick_4">
     <g id="line2d_7">
      <g>
       <use style="fill:#262626;stroke:#262626;stroke-width:1.875;" x="502.384036" xlink:href="#m413175d372" y="290.794375"/>
      </g>
     </g>
     <g id="text_10">
      <!-- −40 -->
      <g style="fill:#262626;" transform="translate(488.389974 315.104766)scale(0.165 -0.165)">
       <use xlink:href="#ArialMT-8722"/>
       <use x="58.398438" xlink:href="#ArialMT-52"/>
       <use x="114.013672" xlink:href="#ArialMT-48"/>
      </g>
     </g>
    </g>
    <g id="xtick_5">
     <g id="line2d_8">
      <g>
       <use style="fill:#262626;stroke:#262626;stroke-width:1.875;" x="582.042678" xlink:href="#m413175d372" y="290.794375"/>
      </g>
     </g>
     <g id="text_11">
      <!-- −20 -->
      <g style="fill:#262626;" transform="translate(568.048615 315.104766)scale(0.165 -0.165)">
       <use xlink:href="#ArialMT-8722"/>
       <use x="58.398438" xlink:href="#ArialMT-50"/>
       <use x="114.013672" xlink:href="#ArialMT-48"/>
      </g>
     </g>
    </g>
    <g id="xtick_6">
     <g id="line2d_9">
      <g>
       <use style="fill:#262626;stroke:#262626;stroke-width:1.875;" x="661.701319" xlink:href="#m413175d372" y="290.794375"/>
      </g>
     </g>
     <g id="text_12">
      <!-- 0 -->
      <g style="fill:#262626;" transform="translate(657.113546 315.104766)scale(0.165 -0.165)">
       <use xlink:href="#ArialMT-48"/>
      </g>
     </g>
    </g>
    <g id="text_13">
     <!-- Glass transition temperature ($\degree$C) -->
     <g style="fill:#262626;" transform="translate(443.597853 335.884141)scale(0.18 -0.18)">
      <use transform="translate(0 0.78125)" xlink:href="#ArialMT-71"/>
      <use transform="translate(77.783203 0.78125)" xlink:href="#ArialMT-108"/>
      <use transform="translate(100 0.78125)" xlink:href="#ArialMT-97"/>
      <use transform="translate(155.615234 0.78125)" xlink:href="#ArialMT-115"/>
      <use transform="translate(205.615234 0.78125)" xlink:href="#ArialMT-115"/>
      <use transform="translate(255.615234 0.78125)" xlink:href="#ArialMT-32"/>
      <use transform="translate(283.398438 0.78125)" xlink:href="#ArialMT-116"/>
      <use transform="translate(311.181641 0.78125)" xlink:href="#ArialMT-114"/>
      <use transform="translate(344.482422 0.78125)" xlink:href="#ArialMT-97"/>
      <use transform="translate(400.097656 0.78125)" xlink:href="#ArialMT-110"/>
      <use transform="translate(455.712891 0.78125)" xlink:href="#ArialMT-115"/>
      <use transform="translate(505.712891 0.78125)" xlink:href="#ArialMT-105"/>
      <use transform="translate(527.929688 0.78125)" xlink:href="#ArialMT-116"/>
      <use transform="translate(555.712891 0.78125)" xlink:href="#ArialMT-105"/>
      <use transform="translate(577.929688 0.78125)" xlink:href="#ArialMT-111"/>
      <use transform="translate(633.544922 0.78125)" xlink:href="#ArialMT-110"/>
      <use transform="translate(689.160156 0.78125)" xlink:href="#ArialMT-32"/>
      <use transform="translate(716.943359 0.78125)" xlink:href="#ArialMT-116"/>
      <use transform="translate(744.726562 0.78125)" xlink:href="#ArialMT-101"/>
      <use transform="translate(800.341797 0.78125)" xlink:href="#ArialMT-109"/>
      <use transform="translate(883.642578 0.78125)" xlink:href="#ArialMT-112"/>
      <use transform="translate(939.257812 0.78125)" xlink:href="#ArialMT-101"/>
      <use transform="translate(994.873047 0.78125)" xlink:href="#ArialMT-114"/>
      <use transform="translate(1028.173828 0.78125)" xlink:href="#ArialMT-97"/>
      <use transform="translate(1083.789062 0.78125)" xlink:href="#ArialMT-116"/>
      <use transform="translate(1111.572266 0.78125)" xlink:href="#ArialMT-117"/>
      <use transform="translate(1167.1875 0.78125)" xlink:href="#ArialMT-114"/>
      <use transform="translate(1200.488281 0.78125)" xlink:href="#ArialMT-101"/>
      <use transform="translate(1256.103516 0.78125)" xlink:href="#ArialMT-32"/>
      <use transform="translate(1283.886719 0.78125)" xlink:href="#ArialMT-40"/>
      <use transform="translate(1317.1875 0.78125)" xlink:href="#DejaVuSans-176"/>
      <use transform="translate(1367.1875 0.78125)" xlink:href="#ArialMT-67"/>
      <use transform="translate(1439.404297 0.78125)" xlink:href="#ArialMT-41"/>
     </g>
    </g>
   </g>
   <g id="matplotlib.axis_4">
    <g id="ytick_4">
     <g id="line2d_10">
      <g>
       <use style="fill:#262626;stroke:#262626;stroke-width:1.875;" x="441.554706" xlink:href="#m23ac48c90c" y="238.236963"/>
      </g>
     </g>
    </g>
    <g id="ytick_5">
     <g id="line2d_11">
      <g>
       <use style="fill:#262626;stroke:#262626;stroke-width:1.875;" x="441.554706" xlink:href="#m23ac48c90c" y="166.848874"/>
      </g>
     </g>
    </g>
    <g id="ytick_6">
     <g id="line2d_12">
      <g>
       <use style="fill:#262626;stroke:#262626;stroke-width:1.875;" x="441.554706" xlink:href="#m23ac48c90c" y="95.460785"/>
      </g>
     </g>
    </g>
   </g>
   <g id="PathCollection_6">
    <path clip-path="url(#p00f05f2436)" d="M 453.792265 92.22316 
C 455.304155 92.22316 456.754326 91.622479 457.823394 90.553411 
C 458.892461 89.484343 459.493142 88.034173 459.493142 86.522282 
C 459.493142 85.010392 458.892461 83.560221 457.823394 82.491154 
C 456.754326 81.422086 455.304155 80.821405 453.792265 80.821405 
C 452.280374 80.821405 450.830204 81.422086 449.761136 82.491154 
C 448.692068 83.560221 448.091388 85.010392 448.091388 86.522282 
C 448.091388 88.034173 448.692068 89.484343 449.761136 90.553411 
C 450.830204 91.622479 452.280374 92.22316 453.792265 92.22316 
z
" style="fill:#1f77b4;stroke:#ffffff;stroke-width:0.75;"/>
    <path clip-path="url(#p00f05f2436)" d="M 697.985831 132.788608 
C 699.497721 132.788608 700.947892 132.187927 702.01696 131.118859 
C 703.086027 130.049792 703.686708 128.599621 703.686708 127.087731 
C 703.686708 125.57584 703.086027 124.12567 702.01696 123.056602 
C 700.947892 121.987534 699.497721 121.386853 697.985831 121.386853 
C 696.47394 121.386853 695.02377 121.987534 693.954702 123.056602 
C 692.885634 124.12567 692.284954 125.57584 692.284954 127.087731 
C 692.284954 128.599621 692.885634 130.049792 693.954702 131.118859 
C 695.02377 132.187927 696.47394 132.788608 697.985831 132.788608 
z
" style="fill:#1f77b4;stroke:#ffffff;stroke-width:0.75;"/>
    <path clip-path="url(#p00f05f2436)" d="M 462.236081 129.569839 
C 463.747971 129.569839 465.198142 128.969159 466.26721 127.900091 
C 467.336277 126.831023 467.936958 125.380852 467.936958 123.868962 
C 467.936958 122.357072 467.336277 120.906901 466.26721 119.837833 
C 465.198142 118.768765 463.747971 118.168085 462.236081 118.168085 
C 460.72419 118.168085 459.27402 118.768765 458.204952 119.837833 
C 457.135884 120.906901 456.535204 122.357072 456.535204 123.868962 
C 456.535204 125.380852 457.135884 126.831023 458.204952 127.900091 
C 459.27402 128.969159 460.72419 129.569839 462.236081 129.569839 
z
" style="fill:#1f77b4;stroke:#ffffff;stroke-width:0.75;"/>
    <path clip-path="url(#p00f05f2436)" d="M 482.270229 116.574289 
C 483.782119 116.574289 485.23229 115.973609 486.301358 114.904541 
C 487.370426 113.835473 487.971106 112.385302 487.971106 110.873412 
C 487.971106 109.361522 487.370426 107.911351 486.301358 106.842283 
C 485.23229 105.773215 483.782119 105.172535 482.270229 105.172535 
C 480.758339 105.172535 479.308168 105.773215 478.2391 106.842283 
C 477.170032 107.911351 476.569352 109.361522 476.569352 110.873412 
C 476.569352 112.385302 477.170032 113.835473 478.2391 114.904541 
C 479.308168 115.973609 480.758339 116.574289 482.270229 116.574289 
z
" style="fill:#1f77b4;stroke:#ffffff;stroke-width:0.75;"/>
    <path clip-path="url(#p00f05f2436)" d="M 548.108096 86.349585 
C 549.619987 86.349585 551.070157 85.748905 552.139225 84.679837 
C 553.208293 83.610769 553.808974 82.160598 553.808974 80.648708 
C 553.808974 79.136818 553.208293 77.686647 552.139225 76.617579 
C 551.070157 75.548511 549.619987 74.947831 548.108096 74.947831 
C 546.596206 74.947831 545.146035 75.548511 544.076968 76.617579 
C 543.0079 77.686647 542.407219 79.136818 542.407219 80.648708 
C 542.407219 82.160598 543.0079 83.610769 544.076968 84.679837 
C 545.146035 85.748905 546.596206 86.349585 548.108096 86.349585 
z
" style="fill:#1f77b4;stroke:#ffffff;stroke-width:0.75;"/>
    <path clip-path="url(#p00f05f2436)" d="M 570.850639 92.049954 
C 572.362529 92.049954 573.8127 91.449274 574.881767 90.380206 
C 575.950835 89.311138 576.551516 87.860967 576.551516 86.349077 
C 576.551516 84.837187 575.950835 83.387016 574.881767 82.317948 
C 573.8127 81.24888 572.362529 80.6482 570.850639 80.6482 
C 569.338748 80.6482 567.888578 81.24888 566.81951 82.317948 
C 565.750442 83.387016 565.149761 84.837187 565.149761 86.349077 
C 565.149761 87.860967 565.750442 89.311138 566.81951 90.380206 
C 567.888578 91.449274 569.338748 92.049954 570.850639 92.049954 
z
" style="fill:#1f77b4;stroke:#ffffff;stroke-width:0.75;"/>
    <path clip-path="url(#p00f05f2436)" d="M 511.482394 59.182209 
L 514.332832 56.33177 
L 517.183271 59.182209 
L 520.033709 56.33177 
L 517.183271 53.481331 
L 520.033709 50.630893 
L 517.183271 47.780454 
L 514.332832 50.630893 
L 511.482394 47.780454 
L 508.631955 50.630893 
L 511.482394 53.481331 
L 508.631955 56.33177 
z
" style="fill:#ff7f0e;stroke:#ffffff;stroke-width:0.75;"/>
    <path clip-path="url(#p00f05f2436)" d="M 515.067033 76.212596 
L 517.917471 73.362157 
L 520.76791 76.212596 
L 523.618348 73.362157 
L 520.76791 70.511719 
L 523.618348 67.66128 
L 520.76791 64.810842 
L 517.917471 67.66128 
L 515.067033 64.810842 
L 512.216594 67.66128 
L 515.067033 70.511719 
L 512.216594 73.362157 
z
" style="fill:#ff7f0e;stroke:#ffffff;stroke-width:0.75;"/>
    <path clip-path="url(#p00f05f2436)" d="M 514.270446 82.374485 
L 517.120885 79.524046 
L 519.971323 82.374485 
L 522.821762 79.524046 
L 519.971323 76.673608 
L 522.821762 73.823169 
L 519.971323 70.97273 
L 517.120885 73.823169 
L 514.270446 70.97273 
L 511.420008 73.823169 
L 514.270446 76.673608 
L 511.420008 79.524046 
z
" style="fill:#ff7f0e;stroke:#ffffff;stroke-width:0.75;"/>
    <path clip-path="url(#p00f05f2436)" d="M 541.752678 83.622976 
L 544.603116 80.772538 
L 547.453555 83.622976 
L 550.303993 80.772538 
L 547.453555 77.922099 
L 550.303993 75.07166 
L 547.453555 72.221222 
L 544.603116 75.07166 
L 541.752678 72.221222 
L 538.902239 75.07166 
L 541.752678 77.922099 
L 538.902239 80.772538 
z
" style="fill:#ff7f0e;stroke:#ffffff;stroke-width:0.75;"/>
    <path clip-path="url(#p00f05f2436)" d="M 515.067033 75.309327 
L 517.917471 72.458889 
L 520.76791 75.309327 
L 523.618348 72.458889 
L 520.76791 69.60845 
L 523.618348 66.758012 
L 520.76791 63.907573 
L 517.917471 66.758012 
L 515.067033 63.907573 
L 512.216594 66.758012 
L 515.067033 69.60845 
L 512.216594 72.458889 
z
" style="fill:#ff7f0e;stroke:#ffffff;stroke-width:0.75;"/>
    <path clip-path="url(#p00f05f2436)" d="M 536.574866 58.475167 
L 539.425304 55.624728 
L 542.275743 58.475167 
L 545.126182 55.624728 
L 542.275743 52.77429 
L 545.126182 49.923851 
L 542.275743 47.073413 
L 539.425304 49.923851 
L 536.574866 47.073413 
L 533.724427 49.923851 
L 536.574866 52.77429 
L 533.724427 55.624728 
z
" style="fill:#ff7f0e;stroke:#ffffff;stroke-width:0.75;"/>
    <path clip-path="url(#p00f05f2436)" d="M 508.296048 69.519223 
L 511.146487 66.668784 
L 513.996925 69.519223 
L 516.847364 66.668784 
L 513.996925 63.818346 
L 516.847364 60.967907 
L 513.996925 58.117469 
L 511.146487 60.967907 
L 508.296048 58.117469 
L 505.44561 60.967907 
L 508.296048 63.818346 
L 505.44561 66.668784 
z
" style="fill:#ff7f0e;stroke:#ffffff;stroke-width:0.75;"/>
    <path clip-path="url(#p00f05f2436)" d="M 611.055696 65.467618 
L 613.906134 62.617179 
L 616.756573 65.467618 
L 619.607012 62.617179 
L 616.756573 59.766741 
L 619.607012 56.916302 
L 616.756573 54.065864 
L 613.906134 56.916302 
L 611.055696 54.065864 
L 608.205257 56.916302 
L 611.055696 59.766741 
L 608.205257 62.617179 
z
" style="fill:#ff7f0e;stroke:#ffffff;stroke-width:0.75;"/>
    <path clip-path="url(#p00f05f2436)" d="M 507.897755 79.288928 
L 510.748193 76.43849 
L 513.598632 79.288928 
L 516.449071 76.43849 
L 513.598632 73.588051 
L 516.449071 70.737612 
L 513.598632 67.887174 
L 510.748193 70.737612 
L 507.897755 67.887174 
L 505.047316 70.737612 
L 507.897755 73.588051 
L 505.047316 76.43849 
z
" style="fill:#ff7f0e;stroke:#ffffff;stroke-width:0.75;"/>
    <path clip-path="url(#p00f05f2436)" d="M 568.040029 70.996695 
L 570.890468 68.146257 
L 573.740906 70.996695 
L 576.591345 68.146257 
L 573.740906 65.295818 
L 576.591345 62.44538 
L 573.740906 59.594941 
L 570.890468 62.44538 
L 568.040029 59.594941 
L 565.189591 62.44538 
L 568.040029 65.295818 
L 565.189591 68.146257 
z
" style="fill:#ff7f0e;stroke:#ffffff;stroke-width:0.75;"/>
    <path clip-path="url(#p00f05f2436)" d="M 509.490928 70.996695 
L 512.341366 68.146257 
L 515.191805 70.996695 
L 518.042243 68.146257 
L 515.191805 65.295818 
L 518.042243 62.44538 
L 515.191805 59.594941 
L 512.341366 62.44538 
L 509.490928 59.594941 
L 506.640489 62.44538 
L 509.490928 65.295818 
L 506.640489 68.146257 
z
" style="fill:#ff7f0e;stroke:#ffffff;stroke-width:0.75;"/>
    <path clip-path="url(#p00f05f2436)" d="M 523.43119 59.182209 
L 526.281629 56.33177 
L 529.132067 59.182209 
L 531.982506 56.33177 
L 529.132067 53.481331 
L 531.982506 50.630893 
L 529.132067 47.780454 
L 526.281629 50.630893 
L 523.43119 47.780454 
L 520.580751 50.630893 
L 523.43119 53.481331 
L 520.580751 56.33177 
z
" style="fill:#ff7f0e;stroke:#ffffff;stroke-width:0.75;"/>
    <path clip-path="url(#p00f05f2436)" d="M 607.072764 76.212596 
L 609.923202 73.362157 
L 612.773641 76.212596 
L 615.624079 73.362157 
L 612.773641 70.511719 
L 615.624079 67.66128 
L 612.773641 64.810842 
L 609.923202 67.66128 
L 607.072764 64.810842 
L 604.222325 67.66128 
L 607.072764 70.511719 
L 604.222325 73.362157 
z
" style="fill:#ff7f0e;stroke:#ffffff;stroke-width:0.75;"/>
    <path clip-path="url(#p00f05f2436)" d="M 543.34585 86.957574 
L 546.196289 84.107135 
L 549.046728 86.957574 
L 551.897166 84.107135 
L 549.046728 81.256697 
L 551.897166 78.406258 
L 549.046728 75.55582 
L 546.196289 78.406258 
L 543.34585 75.55582 
L 540.495412 78.406258 
L 543.34585 81.256697 
L 540.495412 84.107135 
z
" style="fill:#ff7f0e;stroke:#ffffff;stroke-width:0.75;"/>
    <path clip-path="url(#p00f05f2436)" d="M 493.160906 70.996695 
L 496.011345 68.146257 
L 498.861783 70.996695 
L 501.712222 68.146257 
L 498.861783 65.295818 
L 501.712222 62.44538 
L 498.861783 59.594941 
L 496.011345 62.44538 
L 493.160906 59.594941 
L 490.310468 62.44538 
L 493.160906 65.295818 
L 490.310468 68.146257 
z
" style="fill:#ff7f0e;stroke:#ffffff;stroke-width:0.75;"/>
    <path clip-path="url(#p00f05f2436)" d="M 535.379986 84.131275 
L 538.230425 81.280836 
L 541.080863 84.131275 
L 543.931302 81.280836 
L 541.080863 78.430398 
L 543.931302 75.579959 
L 541.080863 72.729521 
L 538.230425 75.579959 
L 535.379986 72.729521 
L 532.529548 75.579959 
L 535.379986 78.430398 
L 532.529548 81.280836 
z
" style="fill:#ff7f0e;stroke:#ffffff;stroke-width:0.75;"/>
    <path clip-path="url(#p00f05f2436)" d="M 531.397054 84.131275 
L 534.247493 81.280836 
L 537.097931 84.131275 
L 539.94837 81.280836 
L 537.097931 78.430398 
L 539.94837 75.579959 
L 537.097931 72.729521 
L 534.247493 75.579959 
L 531.397054 72.729521 
L 528.546616 75.579959 
L 531.397054 78.430398 
L 528.546616 81.280836 
z
" style="fill:#ff7f0e;stroke:#ffffff;stroke-width:0.75;"/>
    <path clip-path="url(#p00f05f2436)" d="M 535.379986 92.486651 
L 538.230425 89.636213 
L 541.080863 92.486651 
L 543.931302 89.636213 
L 541.080863 86.785774 
L 543.931302 83.935336 
L 541.080863 81.084897 
L 538.230425 83.935336 
L 535.379986 81.084897 
L 532.529548 83.935336 
L 535.379986 86.785774 
L 532.529548 89.636213 
z
" style="fill:#ff7f0e;stroke:#ffffff;stroke-width:0.75;"/>
    <path clip-path="url(#p00f05f2436)" d="M 591.141035 101.161662 
L 593.991474 98.311224 
L 596.841913 101.161662 
L 599.692351 98.311224 
L 596.841913 95.460785 
L 599.692351 92.610347 
L 596.841913 89.759908 
L 593.991474 92.610347 
L 591.141035 89.759908 
L 588.290597 92.610347 
L 591.141035 95.460785 
L 588.290597 98.311224 
z
" style="fill:#ff7f0e;stroke:#ffffff;stroke-width:0.75;"/>
    <path clip-path="url(#p00f05f2436)" d="M 462.890622 86.957574 
L 465.741061 84.107135 
L 468.591499 86.957574 
L 471.441938 84.107135 
L 468.591499 81.256697 
L 471.441938 78.406258 
L 468.591499 75.55582 
L 465.741061 78.406258 
L 462.890622 75.55582 
L 460.040184 78.406258 
L 462.890622 81.256697 
L 460.040184 84.107135 
z
" style="fill:#ff7f0e;stroke:#ffffff;stroke-width:0.75;"/>
    <path clip-path="url(#p00f05f2436)" d="M 518.253378 65.467618 
L 521.103817 62.617179 
L 523.954255 65.467618 
L 526.804694 62.617179 
L 523.954255 59.766741 
L 526.804694 56.916302 
L 523.954255 54.065864 
L 521.103817 56.916302 
L 518.253378 54.065864 
L 515.40294 56.916302 
L 518.253378 59.766741 
L 515.40294 62.617179 
z
" style="fill:#ff7f0e;stroke:#ffffff;stroke-width:0.75;"/>
    <path clip-path="url(#p00f05f2436)" d="M 623.004492 102.794932 
L 625.854931 99.944494 
L 628.705369 102.794932 
L 631.555808 99.944494 
L 628.705369 97.094055 
L 631.555808 94.243617 
L 628.705369 91.393178 
L 625.854931 94.243617 
L 623.004492 91.393178 
L 620.154054 94.243617 
L 623.004492 97.094055 
L 620.154054 99.944494 
z
" style="fill:#ff7f0e;stroke:#ffffff;stroke-width:0.75;"/>
    <path clip-path="url(#p00f05f2436)" d="M 662.970573 136.855707 
L 674.372328 136.855707 
L 674.372328 125.453953 
L 662.970573 125.453953 
z
" style="fill:#2ca02c;stroke:#ffffff;stroke-width:0.75;"/>
    <path clip-path="url(#p00f05f2436)" d="M 663.966306 136.855707 
L 675.368061 136.855707 
L 675.368061 125.453953 
L 663.966306 125.453953 
z
" style="fill:#2ca02c;stroke:#ffffff;stroke-width:0.75;"/>
    <path clip-path="url(#p00f05f2436)" d="M 638.077248 161.804773 
L 649.479002 161.804773 
L 649.479002 150.403019 
L 638.077248 150.403019 
z
" style="fill:#2ca02c;stroke:#ffffff;stroke-width:0.75;"/>
    <path clip-path="url(#p00f05f2436)" d="M 656.000442 81.741673 
L 667.402197 81.741673 
L 667.402197 70.339919 
L 656.000442 70.339919 
z
" style="fill:#2ca02c;stroke:#ffffff;stroke-width:0.75;"/>
    <path clip-path="url(#p00f05f2436)" d="M 654.008976 126.110729 
L 665.41073 126.110729 
L 665.41073 114.708975 
L 654.008976 114.708975 
z
" style="fill:#2ca02c;stroke:#ffffff;stroke-width:0.75;"/>
    <path clip-path="url(#p00f05f2436)" d="M 632.10285 147.600685 
L 643.504604 147.600685 
L 643.504604 136.198931 
L 632.10285 136.198931 
z
" style="fill:#2ca02c;stroke:#ffffff;stroke-width:0.75;"/>
    <path clip-path="url(#p00f05f2436)" d="M 632.10285 166.264342 
L 643.504604 166.264342 
L 643.504604 154.862588 
L 632.10285 154.862588 
z
" style="fill:#2ca02c;stroke:#ffffff;stroke-width:0.75;"/>
    <path clip-path="url(#p00f05f2436)" d="M 612.188189 191.213409 
L 623.589944 191.213409 
L 623.589944 179.811654 
L 612.188189 179.811654 
z
" style="fill:#2ca02c;stroke:#ffffff;stroke-width:0.75;"/>
    <path clip-path="url(#p00f05f2436)" d="M 638.077248 67.100888 
L 649.479002 67.100888 
L 649.479002 55.699133 
L 638.077248 55.699133 
z
" style="fill:#2ca02c;stroke:#ffffff;stroke-width:0.75;"/>
    <path clip-path="url(#p00f05f2436)" d="M 692.842564 126.110729 
L 704.244318 126.110729 
L 704.244318 114.708975 
L 692.842564 114.708975 
z
" style="fill:#2ca02c;stroke:#ffffff;stroke-width:0.75;"/>
    <path clip-path="url(#p00f05f2436)" d="M 650.026044 94.876253 
L 661.427798 94.876253 
L 661.427798 83.474499 
L 650.026044 83.474499 
z
" style="fill:#2ca02c;stroke:#ffffff;stroke-width:0.75;"/>
    <path clip-path="url(#p00f05f2436)" d="M 632.10285 161.804773 
L 643.504604 161.804773 
L 643.504604 150.403019 
L 632.10285 150.403019 
z
" style="fill:#2ca02c;stroke:#ffffff;stroke-width:0.75;"/>
    <path clip-path="url(#p00f05f2436)" d="M 636.085782 142.384784 
L 647.487536 142.384784 
L 647.487536 130.98303 
L 636.085782 130.98303 
z
" style="fill:#2ca02c;stroke:#ffffff;stroke-width:0.75;"/>
    <path clip-path="url(#p00f05f2436)" d="M 684.8767 122.651618 
L 696.278454 122.651618 
L 696.278454 111.249864 
L 684.8767 111.249864 
z
" style="fill:#2ca02c;stroke:#ffffff;stroke-width:0.75;"/>
    <path clip-path="url(#p00f05f2436)" d="M 624.136986 174.183021 
L 635.53874 174.183021 
L 635.53874 162.781267 
L 624.136986 162.781267 
z
" style="fill:#2ca02c;stroke:#ffffff;stroke-width:0.75;"/>
   </g>
   <g id="patch_6">
    <path d="M 441.554706 290.794375 
L 441.554706 41.44 
" style="fill:none;stroke:#262626;stroke-linecap:square;stroke-linejoin:miter;stroke-width:1.875;"/>
   </g>
   <g id="patch_7">
    <path d="M 441.554706 290.794375 
L 710.781 290.794375 
" style="fill:none;stroke:#262626;stroke-linecap:square;stroke-linejoin:miter;stroke-width:1.875;"/>
   </g>
   <g id="text_14">
    <!-- Operating temperature = 75-85$\degree$C -->
    <defs>
     <path d="M 4.734375 62.203125 
L 4.734375 70.65625 
L 51.078125 70.65625 
L 51.078125 63.8125 
Q 44.234375 56.546875 37.515625 44.484375 
Q 30.8125 32.421875 27.15625 19.671875 
Q 24.515625 10.6875 23.78125 0 
L 14.75 0 
Q 14.890625 8.453125 18.0625 20.40625 
Q 21.234375 32.375 27.171875 43.484375 
Q 33.109375 54.59375 39.796875 62.203125 
z
" id="ArialMT-55"/>
     <path d="M 4.15625 18.75 
L 13.375 19.53125 
Q 14.40625 12.796875 18.140625 9.390625 
Q 21.875 6 27.15625 6 
Q 33.5 6 37.890625 10.78125 
Q 42.28125 15.578125 42.28125 23.484375 
Q 42.28125 31 38.0625 35.34375 
Q 33.84375 39.703125 27 39.703125 
Q 22.75 39.703125 19.328125 37.765625 
Q 15.921875 35.84375 13.96875 32.765625 
L 5.71875 33.84375 
L 12.640625 70.609375 
L 48.25 70.609375 
L 48.25 62.203125 
L 19.671875 62.203125 
L 15.828125 42.96875 
Q 22.265625 47.46875 29.34375 47.46875 
Q 38.71875 47.46875 45.15625 40.96875 
Q 51.609375 34.46875 51.609375 24.265625 
Q 51.609375 14.546875 45.953125 7.46875 
Q 39.0625 -1.21875 27.15625 -1.21875 
Q 17.390625 -1.21875 11.203125 4.25 
Q 5.03125 9.71875 4.15625 18.75 
z
" id="ArialMT-53"/>
    </defs>
    <g style="fill:#262626;" transform="translate(441.257853 35.44)scale(0.18 -0.18)">
     <use transform="translate(0 0.78125)" xlink:href="#ArialMT-79"/>
     <use transform="translate(77.783203 0.78125)" xlink:href="#ArialMT-112"/>
     <use transform="translate(133.398438 0.78125)" xlink:href="#ArialMT-101"/>
     <use transform="translate(189.013672 0.78125)" xlink:href="#ArialMT-114"/>
     <use transform="translate(222.314453 0.78125)" xlink:href="#ArialMT-97"/>
     <use transform="translate(277.929688 0.78125)" xlink:href="#ArialMT-116"/>
     <use transform="translate(305.712891 0.78125)" xlink:href="#ArialMT-105"/>
     <use transform="translate(327.929688 0.78125)" xlink:href="#ArialMT-110"/>
     <use transform="translate(383.544922 0.78125)" xlink:href="#ArialMT-103"/>
     <use transform="translate(439.160156 0.78125)" xlink:href="#ArialMT-32"/>
     <use transform="translate(466.943359 0.78125)" xlink:href="#ArialMT-116"/>
     <use transform="translate(494.726562 0.78125)" xlink:href="#ArialMT-101"/>
     <use transform="translate(550.341797 0.78125)" xlink:href="#ArialMT-109"/>
     <use transform="translate(633.642578 0.78125)" xlink:href="#ArialMT-112"/>
     <use transform="translate(689.257812 0.78125)" xlink:href="#ArialMT-101"/>
     <use transform="translate(744.873047 0.78125)" xlink:href="#ArialMT-114"/>
     <use transform="translate(778.173828 0.78125)" xlink:href="#ArialMT-97"/>
     <use transform="translate(833.789062 0.78125)" xlink:href="#ArialMT-116"/>
     <use transform="translate(861.572266 0.78125)" xlink:href="#ArialMT-117"/>
     <use transform="translate(917.1875 0.78125)" xlink:href="#ArialMT-114"/>
     <use transform="translate(950.488281 0.78125)" xlink:href="#ArialMT-101"/>
     <use transform="translate(1006.103516 0.78125)" xlink:href="#ArialMT-32"/>
     <use transform="translate(1033.886719 0.78125)" xlink:href="#ArialMT-61"/>
     <use transform="translate(1092.285156 0.78125)" xlink:href="#ArialMT-32"/>
     <use transform="translate(1120.068359 0.78125)" xlink:href="#ArialMT-55"/>
     <use transform="translate(1175.683594 0.78125)" xlink:href="#ArialMT-53"/>
     <use transform="translate(1231.298828 0.78125)" xlink:href="#ArialMT-45"/>
     <use transform="translate(1264.599609 0.78125)" xlink:href="#ArialMT-56"/>
     <use transform="translate(1320.214844 0.78125)" xlink:href="#ArialMT-53"/>
     <use transform="translate(1375.830078 0.78125)" xlink:href="#DejaVuSans-176"/>
     <use transform="translate(1425.830078 0.78125)" xlink:href="#ArialMT-67"/>
    </g>
   </g>
  </g>
  <g id="legend_1">
   <g id="PathCollection_7">
    <defs>
     <path id="m58068dcbee" style="stroke:#ffffff;stroke-width:2.25;"/>
    </defs>
    <g>
     <use style="fill:#ffffff;stroke:#ffffff;stroke-width:2.25;" x="735.220547" xlink:href="#m58068dcbee" y="144.831797"/>
    </g>
   </g>
   <g id="text_15">
    <!-- Solid polymer class -->
    <g style="fill:#262626;" transform="translate(764.920547 149.163047)scale(0.165 -0.165)">
     <use xlink:href="#ArialMT-83"/>
     <use x="66.699219" xlink:href="#ArialMT-111"/>
     <use x="122.314453" xlink:href="#ArialMT-108"/>
     <use x="144.53125" xlink:href="#ArialMT-105"/>
     <use x="166.748047" xlink:href="#ArialMT-100"/>
     <use x="222.363281" xlink:href="#ArialMT-32"/>
     <use x="250.146484" xlink:href="#ArialMT-112"/>
     <use x="305.761719" xlink:href="#ArialMT-111"/>
     <use x="361.376953" xlink:href="#ArialMT-108"/>
     <use x="383.59375" xlink:href="#ArialMT-121"/>
     <use x="433.59375" xlink:href="#ArialMT-109"/>
     <use x="516.894531" xlink:href="#ArialMT-101"/>
     <use x="572.509766" xlink:href="#ArialMT-114"/>
     <use x="605.810547" xlink:href="#ArialMT-32"/>
     <use x="633.59375" xlink:href="#ArialMT-99"/>
     <use x="683.59375" xlink:href="#ArialMT-108"/>
     <use x="705.810547" xlink:href="#ArialMT-97"/>
     <use x="761.425781" xlink:href="#ArialMT-115"/>
     <use x="811.425781" xlink:href="#ArialMT-115"/>
    </g>
   </g>
   <g id="PathCollection_8">
    <defs>
     <path d="M 0 4.5 
C 1.193414 4.5 2.338109 4.025852 3.181981 3.181981 
C 4.025852 2.338109 4.5 1.193414 4.5 0 
C 4.5 -1.193414 4.025852 -2.338109 3.181981 -3.181981 
C 2.338109 -4.025852 1.193414 -4.5 0 -4.5 
C -1.193414 -4.5 -2.338109 -4.025852 -3.181981 -3.181981 
C -4.025852 -2.338109 -4.5 -1.193414 -4.5 0 
C -4.5 1.193414 -4.025852 2.338109 -3.181981 3.181981 
C -2.338109 4.025852 -1.193414 4.5 0 4.5 
z
" id="mdf4195c2b7" style="stroke:#1f77b4;stroke-width:1.5;"/>
    </defs>
    <g>
     <use style="fill:#1f77b4;stroke:#1f77b4;stroke-width:1.5;" x="735.220547" xlink:href="#mdf4195c2b7" y="168.364922"/>
    </g>
   </g>
   <g id="text_16">
    <!-- Other -->
    <defs>
     <path d="M 6.59375 0 
L 6.59375 71.578125 
L 15.375 71.578125 
L 15.375 45.90625 
Q 21.53125 53.03125 30.90625 53.03125 
Q 36.671875 53.03125 40.921875 50.75 
Q 45.171875 48.484375 47 44.484375 
Q 48.828125 40.484375 48.828125 32.859375 
L 48.828125 0 
L 40.046875 0 
L 40.046875 32.859375 
Q 40.046875 39.453125 37.1875 42.453125 
Q 34.328125 45.453125 29.109375 45.453125 
Q 25.203125 45.453125 21.75 43.421875 
Q 18.3125 41.40625 16.84375 37.9375 
Q 15.375 34.46875 15.375 28.375 
L 15.375 0 
z
" id="ArialMT-104"/>
    </defs>
    <g style="fill:#262626;" transform="translate(764.920547 172.696172)scale(0.165 -0.165)">
     <use xlink:href="#ArialMT-79"/>
     <use x="77.783203" xlink:href="#ArialMT-116"/>
     <use x="105.566406" xlink:href="#ArialMT-104"/>
     <use x="161.181641" xlink:href="#ArialMT-101"/>
     <use x="216.796875" xlink:href="#ArialMT-114"/>
    </g>
   </g>
   <g id="PathCollection_9">
    <defs>
     <path d="M -2.25 4.5 
L 0 2.25 
L 2.25 4.5 
L 4.5 2.25 
L 2.25 0 
L 4.5 -2.25 
L 2.25 -4.5 
L 0 -2.25 
L -2.25 -4.5 
L -4.5 -2.25 
L -2.25 0 
L -4.5 2.25 
z
" id="mbf5b8bc937" style="stroke:#ff7f0e;stroke-width:1.5;"/>
    </defs>
    <g>
     <use style="fill:#ff7f0e;stroke:#ff7f0e;stroke-width:1.5;" x="735.220547" xlink:href="#mbf5b8bc937" y="191.704688"/>
    </g>
   </g>
   <g id="text_17">
    <!-- PEO -->
    <defs>
     <path d="M 7.71875 0 
L 7.71875 71.578125 
L 34.71875 71.578125 
Q 41.84375 71.578125 45.609375 70.90625 
Q 50.875 70.015625 54.4375 67.546875 
Q 58.015625 65.09375 60.1875 60.640625 
Q 62.359375 56.203125 62.359375 50.875 
Q 62.359375 41.75 56.546875 35.421875 
Q 50.734375 29.109375 35.546875 29.109375 
L 17.1875 29.109375 
L 17.1875 0 
z
M 17.1875 37.546875 
L 35.6875 37.546875 
Q 44.875 37.546875 48.734375 40.96875 
Q 52.59375 44.390625 52.59375 50.59375 
Q 52.59375 55.078125 50.3125 58.265625 
Q 48.046875 61.46875 44.34375 62.5 
Q 41.9375 63.140625 35.5 63.140625 
L 17.1875 63.140625 
z
" id="ArialMT-80"/>
     <path d="M 7.90625 0 
L 7.90625 71.578125 
L 59.671875 71.578125 
L 59.671875 63.140625 
L 17.390625 63.140625 
L 17.390625 41.21875 
L 56.984375 41.21875 
L 56.984375 32.8125 
L 17.390625 32.8125 
L 17.390625 8.453125 
L 61.328125 8.453125 
L 61.328125 0 
z
" id="ArialMT-69"/>
    </defs>
    <g style="fill:#262626;" transform="translate(764.920547 196.035938)scale(0.165 -0.165)">
     <use xlink:href="#ArialMT-80"/>
     <use x="66.699219" xlink:href="#ArialMT-69"/>
     <use x="133.398438" xlink:href="#ArialMT-79"/>
    </g>
   </g>
   <g id="PathCollection_10">
    <defs>
     <path d="M -4.5 4.5 
L 4.5 4.5 
L 4.5 -4.5 
L -4.5 -4.5 
z
" id="m7a65bef6a5" style="stroke:#2ca02c;stroke-width:1.5;"/>
    </defs>
    <g>
     <use style="fill:#2ca02c;stroke:#2ca02c;stroke-width:1.5;" x="735.220547" xlink:href="#m7a65bef6a5" y="215.044453"/>
    </g>
   </g>
   <g id="text_18">
    <!-- Polycarbonate -->
    <defs>
     <path d="M 14.703125 0 
L 6.546875 0 
L 6.546875 71.578125 
L 15.328125 71.578125 
L 15.328125 46.046875 
Q 20.90625 53.03125 29.546875 53.03125 
Q 34.328125 53.03125 38.59375 51.09375 
Q 42.875 49.171875 45.625 45.671875 
Q 48.390625 42.1875 49.953125 37.25 
Q 51.515625 32.328125 51.515625 26.703125 
Q 51.515625 13.375 44.921875 6.09375 
Q 38.328125 -1.171875 29.109375 -1.171875 
Q 19.921875 -1.171875 14.703125 6.5 
z
M 14.59375 26.3125 
Q 14.59375 17 17.140625 12.84375 
Q 21.296875 6.0625 28.375 6.0625 
Q 34.125 6.0625 38.328125 11.0625 
Q 42.53125 16.0625 42.53125 25.984375 
Q 42.53125 36.140625 38.5 40.96875 
Q 34.46875 45.796875 28.765625 45.796875 
Q 23 45.796875 18.796875 40.796875 
Q 14.59375 35.796875 14.59375 26.3125 
z
" id="ArialMT-98"/>
    </defs>
    <g style="fill:#262626;" transform="translate(764.920547 219.375703)scale(0.165 -0.165)">
     <use xlink:href="#ArialMT-80"/>
     <use x="66.699219" xlink:href="#ArialMT-111"/>
     <use x="122.314453" xlink:href="#ArialMT-108"/>
     <use x="144.53125" xlink:href="#ArialMT-121"/>
     <use x="194.53125" xlink:href="#ArialMT-99"/>
     <use x="244.53125" xlink:href="#ArialMT-97"/>
     <use x="300.146484" xlink:href="#ArialMT-114"/>
     <use x="333.447266" xlink:href="#ArialMT-98"/>
     <use x="389.0625" xlink:href="#ArialMT-111"/>
     <use x="444.677734" xlink:href="#ArialMT-110"/>
     <use x="500.292969" xlink:href="#ArialMT-97"/>
     <use x="555.908203" xlink:href="#ArialMT-116"/>
     <use x="583.691406" xlink:href="#ArialMT-101"/>
    </g>
   </g>
  </g>
 </g>
 <defs>
  <clipPath id="pe0290cf0b8">
   <rect height="249.354375" width="269.226294" x="144.930363" y="41.44"/>
  </clipPath>
  <clipPath id="p00f05f2436">
   <rect height="249.354375" width="269.226294" x="441.554706" y="41.44"/>
  </clipPath>
 </defs>
</svg>
